<ttFont>
    <TTGlyph name=".notdef" xMin="140" yMin="0" xMax="1120" yMax="1434">
      <contour>
        <pt x="200" y="0" on="1"/>
        <pt x="140" y="0" on="0"/>
        <pt x="140" y="60" on="1"/>
        <pt x="140" y="1374" on="1"/>
        <pt x="140" y="1434" on="0"/>
        <pt x="192" y="1434" on="1"/>
        <pt x="1060" y="1434" on="1"/>
        <pt x="1120" y="1434" on="0"/>
        <pt x="1120" y="1374" on="1"/>
        <pt x="1120" y="60" on="1"/>
        <pt x="1120" y="0" on="0"/>
        <pt x="1060" y="0" on="1"/>
      </contour>
      <contour>
        <pt x="320" y="180" on="1"/>
        <pt x="940" y="180" on="1"/>
        <pt x="940" y="1254" on="1"/>
        <pt x="320" y="1254" on="1"/>
      </contour>
    </TTGlyph>
    <TTGlyph name="A" xMin="18" yMin="0" xMax="1376" yMax="1434">
      <contour>
        <pt x="90" y="0" on="1"/>
        <pt x="18" y="0" on="0"/>
        <pt x="43" y="66" on="1"/>
        <pt x="533" y="1353" on="1"/>
        <pt x="564" y="1434" on="0"/>
        <pt x="627" y="1434" on="1"/>
        <pt x="767" y="1434" on="1"/>
        <pt x="830" y="1434" on="0"/>
        <pt x="861" y="1353" on="1"/>
        <pt x="1351" y="66" on="1"/>
        <pt x="1376" y="0" on="0"/>
        <pt x="1304" y="0" on="1"/>
        <pt x="1145" y="0" on="1"/>
        <pt x="1079" y="0" on="0"/>
        <pt x="1053" y="69" on="1"/>
        <pt x="951" y="338" on="1"/>
        <pt x="443" y="338" on="1"/>
        <pt x="341" y="69" on="1"/>
        <pt x="315" y="0" on="0"/>
        <pt x="249" y="0" on="1"/>
      </contour>
      <contour>
        <pt x="536" y="586" on="1"/>
        <pt x="858" y="586" on="1"/>
        <pt x="735" y="904" on="1"/>
        <pt x="713" y="960" on="0"/>
        <pt x="704" y="1011" on="0"/>
        <pt x="699" y="1061" on="1"/>
        <pt x="695" y="1061" on="1"/>
        <pt x="690" y="1011" on="0"/>
        <pt x="681" y="960" on="0"/>
        <pt x="659" y="904" on="1"/>
      </contour>
    </TTGlyph>
    <TTGlyph name="AE" xMin="15" yMin="0" xMax="1826" yMax="1434">
      <contour>
        <pt x="90" y="0" on="1"/>
        <pt x="15" y="0" on="0"/>
        <pt x="43" y="66" on="1"/>
        <pt x="587" y="1353" on="1"/>
        <pt x="621" y="1434" on="0"/>
        <pt x="681" y="1434" on="1"/>
        <pt x="1719" y="1434" on="1"/>
        <pt x="1794" y="1434" on="0"/>
        <pt x="1794" y="1369" on="1"/>
        <pt x="1794" y="1251" on="1"/>
        <pt x="1794" y="1186" on="0"/>
        <pt x="1719" y="1186" on="1"/>
        <pt x="1116" y="1186" on="1"/>
        <pt x="1116" y="868" on="1"/>
        <pt x="1666" y="868" on="1"/>
        <pt x="1741" y="868" on="0"/>
        <pt x="1741" y="803" on="1"/>
        <pt x="1741" y="685" on="1"/>
        <pt x="1741" y="620" on="0"/>
        <pt x="1666" y="620" on="1"/>
        <pt x="1116" y="620" on="1"/>
        <pt x="1116" y="248" on="1"/>
        <pt x="1751" y="248" on="1"/>
        <pt x="1826" y="248" on="0"/>
        <pt x="1826" y="183" on="1"/>
        <pt x="1826" y="65" on="1"/>
        <pt x="1826" y="0" on="0"/>
        <pt x="1751" y="0" on="1"/>
        <pt x="894" y="0" on="1"/>
        <pt x="824" y="0" on="0"/>
        <pt x="824" y="75" on="1"/>
        <pt x="824" y="338" on="1"/>
        <pt x="458" y="338" on="1"/>
        <pt x="344" y="69" on="1"/>
        <pt x="315" y="0" on="0"/>
        <pt x="252" y="0" on="1"/>
      </contour>
      <contour>
        <pt x="562" y="586" on="1"/>
        <pt x="824" y="586" on="1"/>
        <pt x="824" y="1186" on="1"/>
        <pt x="788" y="1186" on="1"/>
        <pt x="776" y="1114" on="0"/>
        <pt x="746" y="1017" on="0"/>
        <pt x="723" y="964" on="1"/>
      </contour>
    </TTGlyph>
    <TTGlyph name="AEacute" xMin="15" yMin="0" xMax="1826" yMax="1785">
      <component glyphName="uni0301.cap" x="1371" y="0" flags="0x1004"/>
      <component glyphName="AE" x="0" y="0" flags="0x1204"/>
    </TTGlyph>
    <TTGlyph name="Aacute" xMin="18" yMin="0" xMax="1376" yMax="1785">
      <component glyphName="uni0301.cap" x="1098" y="0" flags="0x1004"/>
      <component glyphName="A" x="0" y="0" flags="0x1204"/>
    </TTGlyph>
    <TTGlyph name="Abreve" xMin="18" yMin="0" xMax="1376" yMax="1885">
      <component glyphName="breve.cap" x="287" y="0" flags="0x1004"/>
      <component glyphName="A" x="0" y="0" flags="0x1204"/>
    </TTGlyph>
    <TTGlyph name="Acircumflex" xMin="18" yMin="0" xMax="1376" yMax="1766">
      <component glyphName="circumflex.cap" x="287" y="0" flags="0x1004"/>
      <component glyphName="A" x="0" y="0" flags="0x1204"/>
    </TTGlyph>
    <TTGlyph name="Adieresis" xMin="18" yMin="0" xMax="1376" yMax="1786">
      <component glyphName="A" x="0" y="0" flags="0x1204"/>
      <component glyphName="dieresis.cap" x="287" y="0" flags="0x1004"/>
    </TTGlyph>
    <TTGlyph name="Agrave" xMin="18" yMin="0" xMax="1376" yMax="1785">
      <component glyphName="uni0300.cap" x="1116" y="0" flags="0x1004"/>
      <component glyphName="A" x="0" y="0" flags="0x1204"/>
    </TTGlyph>
    <TTGlyph name="Amacron" xMin="18" yMin="0" xMax="1376" yMax="1724">
      <component glyphName="uni0304.cap" x="1107" y="0" flags="0x1004"/>
      <component glyphName="A" x="0" y="0" flags="0x1204"/>
    </TTGlyph>
    <TTGlyph name="Aogonek" xMin="18" yMin="-420" xMax="1372" yMax="1434">
      <contour>
        <pt x="90" y="0" on="1"/>
        <pt x="18" y="0" on="0"/>
        <pt x="43" y="66" on="1"/>
        <pt x="533" y="1353" on="1"/>
        <pt x="564" y="1434" on="0"/>
        <pt x="627" y="1434" on="1"/>
        <pt x="767" y="1434" on="1"/>
        <pt x="830" y="1434" on="0"/>
        <pt x="861" y="1353" on="1"/>
        <pt x="1351" y="66" on="1"/>
        <pt x="1372" y="11" on="0"/>
        <pt x="1322" y="-6" on="1"/>
        <pt x="1302" y="-13" on="0"/>
        <pt x="1128" y="-145" on="0"/>
        <pt x="1128" y="-176" on="1"/>
        <pt x="1128" y="-207" on="0"/>
        <pt x="1175" y="-224" on="0"/>
        <pt x="1207" y="-224" on="1"/>
        <pt x="1257" y="-224" on="0"/>
        <pt x="1288" y="-219" on="1"/>
        <pt x="1324" y="-213" on="0"/>
        <pt x="1328" y="-250" on="1"/>
        <pt x="1342" y="-368" on="1"/>
        <pt x="1346" y="-404" on="0"/>
        <pt x="1308" y="-411" on="1"/>
        <pt x="1264" y="-420" on="0"/>
        <pt x="1174" y="-420" on="1"/>
        <pt x="1033" y="-420" on="0"/>
        <pt x="892" y="-332" on="0"/>
        <pt x="892" y="-247" on="1"/>
        <pt x="892" y="-213" on="0"/>
        <pt x="913" y="-143" on="0"/>
        <pt x="977" y="-62" on="0"/>
        <pt x="1047" y="0" on="1"/>
        <pt x="1071" y="22" on="0"/>
        <pt x="1053" y="69" on="1"/>
        <pt x="951" y="338" on="1"/>
        <pt x="443" y="338" on="1"/>
        <pt x="341" y="69" on="1"/>
        <pt x="315" y="0" on="0"/>
        <pt x="249" y="0" on="1"/>
      </contour>
      <contour>
        <pt x="536" y="586" on="1"/>
        <pt x="858" y="586" on="1"/>
        <pt x="735" y="904" on="1"/>
        <pt x="713" y="960" on="0"/>
        <pt x="704" y="1011" on="0"/>
        <pt x="699" y="1061" on="1"/>
        <pt x="695" y="1061" on="1"/>
        <pt x="690" y="1011" on="0"/>
        <pt x="681" y="960" on="0"/>
        <pt x="659" y="904" on="1"/>
      </contour>
    </TTGlyph>
    <TTGlyph name="Aring" xMin="18" yMin="0" xMax="1376" yMax="1825">
      <component glyphName="A" x="0" y="0" flags="0x1204"/>
      <component glyphName="ring.cap" x="287" y="-60" flags="0x1004"/>
    </TTGlyph>
    <TTGlyph name="Atilde" xMin="18" yMin="0" xMax="1376" yMax="1794">
      <component glyphName="tilde.cap" x="287" y="0" flags="0x1004"/>
      <component glyphName="A" x="0" y="0" flags="0x1204"/>
    </TTGlyph>
    <TTGlyph name="B" xMin="160" yMin="0" xMax="1275" yMax="1434">
      <contour>
        <pt x="240" y="0" on="1"/>
        <pt x="160" y="0" on="0"/>
        <pt x="160" y="75" on="1"/>
        <pt x="160" y="1359" on="1"/>
        <pt x="160" y="1434" on="0"/>
        <pt x="240" y="1434" on="1"/>
        <pt x="580" y="1434" on="1"/>
        <pt x="964" y="1434" on="0"/>
        <pt x="1233" y="1245" on="0"/>
        <pt x="1233" y="1049" on="1"/>
        <pt x="1233" y="912" on="0"/>
        <pt x="1032" y="762" on="0"/>
        <pt x="938" y="750" on="1"/>
        <pt x="938" y="747" on="1"/>
        <pt x="1029" y="741" on="0"/>
        <pt x="1275" y="569" on="0"/>
        <pt x="1275" y="412" on="1"/>
        <pt x="1275" y="228" on="0"/>
        <pt x="975" y="0" on="0"/>
        <pt x="630" y="0" on="1"/>
      </contour>
      <contour>
        <pt x="452" y="244" on="1"/>
        <pt x="598" y="244" on="1"/>
        <pt x="810" y="244" on="0"/>
        <pt x="963" y="318" on="0"/>
        <pt x="963" y="431" on="1"/>
        <pt x="963" y="537" on="0"/>
        <pt x="786" y="618" on="0"/>
        <pt x="598" y="618" on="1"/>
        <pt x="452" y="618" on="1"/>
      </contour>
      <contour>
        <pt x="452" y="854" on="1"/>
        <pt x="583" y="854" on="1"/>
        <pt x="712" y="854" on="0"/>
        <pt x="937" y="944" on="0"/>
        <pt x="937" y="1039" on="1"/>
        <pt x="937" y="1113" on="0"/>
        <pt x="812" y="1190" on="0"/>
        <pt x="583" y="1190" on="1"/>
        <pt x="452" y="1190" on="1"/>
      </contour>
    </TTGlyph>
    <TTGlyph name="C" xMin="86" yMin="-34" xMax="1347" yMax="1468">
      <contour>
        <pt x="86" y="717" on="1"/>
        <pt x="86" y="1062" on="0"/>
        <pt x="436" y="1468" on="0"/>
        <pt x="766" y="1468" on="1"/>
        <pt x="956" y="1468" on="0"/>
        <pt x="1220" y="1350" on="0"/>
        <pt x="1274" y="1238" on="1"/>
        <pt x="1310" y="1164" on="0"/>
        <pt x="1262" y="1138" on="1"/>
        <pt x="1142" y="1074" on="1"/>
        <pt x="1079" y="1040" on="0"/>
        <pt x="1038" y="1112" on="1"/>
        <pt x="1012" y="1158" on="0"/>
        <pt x="871" y="1232" on="0"/>
        <pt x="776" y="1232" on="1"/>
        <pt x="566" y="1232" on="0"/>
        <pt x="398" y="967" on="0"/>
        <pt x="398" y="717" on="1"/>
        <pt x="398" y="467" on="0"/>
        <pt x="566" y="202" on="0"/>
        <pt x="776" y="202" on="1"/>
        <pt x="889" y="202" on="0"/>
        <pt x="1044" y="304" on="0"/>
        <pt x="1074" y="350" on="1"/>
        <pt x="1123" y="425" on="0"/>
        <pt x="1178" y="388" on="1"/>
        <pt x="1298" y="308" on="1"/>
        <pt x="1347" y="275" on="0"/>
        <pt x="1308" y="208" on="1"/>
        <pt x="1250" y="108" on="0"/>
        <pt x="968" y="-34" on="0"/>
        <pt x="766" y="-34" on="1"/>
        <pt x="441" y="-34" on="0"/>
        <pt x="86" y="372" on="0"/>
      </contour>
    </TTGlyph>
    <TTGlyph name="Cacute" xMin="86" yMin="-34" xMax="1347" yMax="1785">
      <component glyphName="uni0301.cap" x="1167" y="0" flags="0x1004"/>
      <component glyphName="C" x="0" y="0" flags="0x1204"/>
    </TTGlyph>
    <TTGlyph name="Ccaron" xMin="86" yMin="-34" xMax="1347" yMax="1784">
      <component glyphName="caron.cap" x="356" y="0" flags="0x1004"/>
      <component glyphName="C" x="0" y="0" flags="0x1204"/>
    </TTGlyph>
    <TTGlyph name="Ccedilla" xMin="86" yMin="-419" xMax="1347" yMax="1468">
      <component glyphName="C" x="0" y="0" flags="0x1204"/>
      <component glyphName="cedilla" x="432" y="0" flags="0x1004"/>
    </TTGlyph>
    <TTGlyph name="Ccircumflex" xMin="86" yMin="-34" xMax="1347" yMax="1766">
      <component glyphName="circumflex.cap" x="356" y="0" flags="0x1004"/>
      <component glyphName="C" x="0" y="0" flags="0x1204"/>
    </TTGlyph>
    <TTGlyph name="Cdotaccent" xMin="86" yMin="-34" xMax="1347" yMax="1790">
      <component glyphName="dotaccent.cap" x="356" y="0" flags="0x1004"/>
      <component glyphName="C" x="0" y="0" flags="0x1204"/>
    </TTGlyph>
    <TTGlyph name="D" xMin="160" yMin="0" xMax="1364" yMax="1434">
      <contour>
        <pt x="230" y="0" on="1"/>
        <pt x="160" y="0" on="0"/>
        <pt x="160" y="75" on="1"/>
        <pt x="160" y="1359" on="1"/>
        <pt x="160" y="1434" on="0"/>
        <pt x="230" y="1434" on="1"/>
        <pt x="579" y="1434" on="1"/>
        <pt x="1039" y="1434" on="0"/>
        <pt x="1364" y="1062" on="0"/>
        <pt x="1364" y="719" on="1"/>
        <pt x="1364" y="376" on="0"/>
        <pt x="1039" y="0" on="0"/>
        <pt x="579" y="0" on="1"/>
      </contour>
      <contour>
        <pt x="452" y="248" on="1"/>
        <pt x="560" y="248" on="1"/>
        <pt x="870" y="248" on="0"/>
        <pt x="1052" y="479" on="0"/>
        <pt x="1052" y="719" on="1"/>
        <pt x="1052" y="959" on="0"/>
        <pt x="870" y="1188" on="0"/>
        <pt x="560" y="1188" on="1"/>
        <pt x="452" y="1188" on="1"/>
      </contour>
    </TTGlyph>
    <TTGlyph name="Dcaron" xMin="160" yMin="0" xMax="1364" yMax="1784">
      <component glyphName="caron.cap" x="306" y="0" flags="0x1004"/>
      <component glyphName="D" x="0" y="0" flags="0x1204"/>
    </TTGlyph>
    <TTGlyph name="Dcroat" xMin="30" yMin="0" xMax="1414" yMax="1434">
      <component glyphName="Eth" x="0" y="0" flags="0x1204"/>
    </TTGlyph>
    <TTGlyph name="Delta" xMin="95" yMin="0" xMax="1423" yMax="1434">
      <component glyphName="uni0394" x="43" y="0" flags="0x1004"/>
    </TTGlyph>
    <TTGlyph name="E" xMin="160" yMin="0" xMax="1195" yMax="1434">
      <contour>
        <pt x="230" y="0" on="1"/>
        <pt x="160" y="0" on="0"/>
        <pt x="160" y="75" on="1"/>
        <pt x="160" y="1359" on="1"/>
        <pt x="160" y="1434" on="0"/>
        <pt x="230" y="1434" on="1"/>
        <pt x="1088" y="1434" on="1"/>
        <pt x="1163" y="1434" on="0"/>
        <pt x="1163" y="1369" on="1"/>
        <pt x="1163" y="1251" on="1"/>
        <pt x="1163" y="1186" on="0"/>
        <pt x="1088" y="1186" on="1"/>
        <pt x="452" y="1186" on="1"/>
        <pt x="452" y="868" on="1"/>
        <pt x="1035" y="868" on="1"/>
        <pt x="1110" y="868" on="0"/>
        <pt x="1110" y="803" on="1"/>
        <pt x="1110" y="685" on="1"/>
        <pt x="1110" y="620" on="0"/>
        <pt x="1035" y="620" on="1"/>
        <pt x="452" y="620" on="1"/>
        <pt x="452" y="248" on="1"/>
        <pt x="1120" y="248" on="1"/>
        <pt x="1195" y="248" on="0"/>
        <pt x="1195" y="183" on="1"/>
        <pt x="1195" y="65" on="1"/>
        <pt x="1195" y="0" on="0"/>
        <pt x="1120" y="0" on="1"/>
      </contour>
    </TTGlyph>
    <TTGlyph name="Eacute" xMin="160" yMin="0" xMax="1195" yMax="1785">
      <component glyphName="uni0301.cap" x="1079" y="0" flags="0x1004"/>
      <component glyphName="E" x="0" y="0" flags="0x1204"/>
    </TTGlyph>
    <TTGlyph name="Ebreve" xMin="160" yMin="0" xMax="1195" yMax="1885">
      <component glyphName="breve.cap" x="268" y="0" flags="0x1004"/>
      <component glyphName="E" x="0" y="0" flags="0x1204"/>
    </TTGlyph>
    <TTGlyph name="Ecaron" xMin="160" yMin="0" xMax="1195" yMax="1784">
      <component glyphName="caron.cap" x="268" y="0" flags="0x1004"/>
      <component glyphName="E" x="0" y="0" flags="0x1204"/>
    </TTGlyph>
    <TTGlyph name="Ecircumflex" xMin="160" yMin="0" xMax="1195" yMax="1766">
      <component glyphName="circumflex.cap" x="268" y="0" flags="0x1004"/>
      <component glyphName="E" x="0" y="0" flags="0x1204"/>
    </TTGlyph>
    <TTGlyph name="Edieresis" xMin="160" yMin="0" xMax="1195" yMax="1786">
      <component glyphName="dieresis.cap" x="265" y="0" flags="0x1004"/>
      <component glyphName="E" x="0" y="0" flags="0x1204"/>
    </TTGlyph>
    <TTGlyph name="Edotaccent" xMin="160" yMin="0" xMax="1195" yMax="1790">
      <component glyphName="dotaccent.cap" x="268" y="0" flags="0x1004"/>
      <component glyphName="E" x="0" y="0" flags="0x1204"/>
    </TTGlyph>
    <TTGlyph name="Egrave" xMin="160" yMin="0" xMax="1195" yMax="1785">
      <component glyphName="uni0300.cap" x="1097" y="0" flags="0x1004"/>
      <component glyphName="E" x="0" y="0" flags="0x1204"/>
    </TTGlyph>
    <TTGlyph name="Emacron" xMin="160" yMin="0" xMax="1195" yMax="1724">
      <component glyphName="uni0304.cap" x="1088" y="0" flags="0x1004"/>
      <component glyphName="E" x="0" y="0" flags="0x1204"/>
    </TTGlyph>
    <TTGlyph name="Eng" xMin="160" yMin="-420" xMax="1282" yMax="1468">
      <contour>
        <pt x="230" y="0" on="1"/>
        <pt x="160" y="0" on="0"/>
        <pt x="160" y="75" on="1"/>
        <pt x="160" y="1359" on="1"/>
        <pt x="160" y="1434" on="0"/>
        <pt x="230" y="1434" on="1"/>
        <pt x="364" y="1434" on="1"/>
        <pt x="427" y="1434" on="0"/>
        <pt x="434" y="1359" on="1"/>
        <pt x="447" y="1223" on="1"/>
        <pt x="454" y="1223" on="1"/>
        <pt x="521" y="1327" on="0"/>
        <pt x="705" y="1468" on="0"/>
        <pt x="855" y="1468" on="1"/>
        <pt x="1073" y="1468" on="0"/>
        <pt x="1282" y="1216" on="0"/>
        <pt x="1282" y="952" on="1"/>
        <pt x="1282" y="35" on="1"/>
        <pt x="1282" y="-201" on="0"/>
        <pt x="1092" y="-420" on="0"/>
        <pt x="902" y="-420" on="1"/>
        <pt x="788" y="-420" on="0"/>
        <pt x="700" y="-389" on="1"/>
        <pt x="649" y="-371" on="0"/>
        <pt x="662" y="-320" on="1"/>
        <pt x="694" y="-199" on="1"/>
        <pt x="710" y="-140" on="0"/>
        <pt x="771" y="-165" on="1"/>
        <pt x="819" y="-184" on="0"/>
        <pt x="863" y="-184" on="1"/>
        <pt x="930" y="-184" on="0"/>
        <pt x="990" y="-88" on="0"/>
        <pt x="990" y="91" on="1"/>
        <pt x="990" y="864" on="1"/>
        <pt x="990" y="1052" on="0"/>
        <pt x="888" y="1232" on="0"/>
        <pt x="752" y="1232" on="1"/>
        <pt x="628" y="1232" on="0"/>
        <pt x="452" y="912" on="0"/>
        <pt x="452" y="627" on="1"/>
        <pt x="452" y="75" on="1"/>
        <pt x="452" y="0" on="0"/>
        <pt x="382" y="0" on="1"/>
      </contour>
    </TTGlyph>
    <TTGlyph name="Eogonek" xMin="160" yMin="-420" xMax="1195" yMax="1434">
      <contour>
        <pt x="230" y="0" on="1"/>
        <pt x="160" y="0" on="0"/>
        <pt x="160" y="75" on="1"/>
        <pt x="160" y="1359" on="1"/>
        <pt x="160" y="1434" on="0"/>
        <pt x="230" y="1434" on="1"/>
        <pt x="1088" y="1434" on="1"/>
        <pt x="1163" y="1434" on="0"/>
        <pt x="1163" y="1369" on="1"/>
        <pt x="1163" y="1251" on="1"/>
        <pt x="1163" y="1186" on="0"/>
        <pt x="1088" y="1186" on="1"/>
        <pt x="452" y="1186" on="1"/>
        <pt x="452" y="868" on="1"/>
        <pt x="1035" y="868" on="1"/>
        <pt x="1110" y="868" on="0"/>
        <pt x="1110" y="803" on="1"/>
        <pt x="1110" y="685" on="1"/>
        <pt x="1110" y="620" on="0"/>
        <pt x="1035" y="620" on="1"/>
        <pt x="452" y="620" on="1"/>
        <pt x="452" y="248" on="1"/>
        <pt x="1120" y="248" on="1"/>
        <pt x="1195" y="248" on="0"/>
        <pt x="1195" y="183" on="1"/>
        <pt x="1195" y="65" on="1"/>
        <pt x="1195" y="0" on="0"/>
        <pt x="1120" y="0" on="1"/>
        <pt x="1109" y="0" on="1"/>
        <pt x="1059" y="-34" on="0"/>
        <pt x="910" y="-145" on="0"/>
        <pt x="910" y="-176" on="1"/>
        <pt x="910" y="-207" on="0"/>
        <pt x="958" y="-224" on="0"/>
        <pt x="990" y="-224" on="1"/>
        <pt x="1040" y="-224" on="0"/>
        <pt x="1070" y="-219" on="1"/>
        <pt x="1106" y="-213" on="0"/>
        <pt x="1110" y="-250" on="1"/>
        <pt x="1124" y="-368" on="1"/>
        <pt x="1128" y="-404" on="0"/>
        <pt x="1090" y="-411" on="1"/>
        <pt x="1046" y="-420" on="0"/>
        <pt x="956" y="-420" on="1"/>
        <pt x="815" y="-420" on="0"/>
        <pt x="674" y="-332" on="0"/>
        <pt x="674" y="-247" on="1"/>
        <pt x="674" y="-211" on="0"/>
        <pt x="694" y="-143" on="0"/>
        <pt x="777" y="-46" on="0"/>
        <pt x="830" y="-3" on="1"/>
        <pt x="830" y="4" on="1"/>
        <pt x="770" y="0" on="0"/>
        <pt x="710" y="0" on="1"/>
      </contour>
    </TTGlyph>
    <TTGlyph name="Eth" xMin="30" yMin="0" xMax="1414" yMax="1434">
      <contour>
        <pt x="105" y="612" on="1"/>
        <pt x="30" y="612" on="0"/>
        <pt x="30" y="677" on="1"/>
        <pt x="30" y="795" on="1"/>
        <pt x="30" y="860" on="0"/>
        <pt x="105" y="860" on="1"/>
        <pt x="210" y="860" on="1"/>
        <pt x="210" y="1359" on="1"/>
        <pt x="210" y="1434" on="0"/>
        <pt x="280" y="1434" on="1"/>
        <pt x="629" y="1434" on="1"/>
        <pt x="1089" y="1434" on="0"/>
        <pt x="1414" y="1062" on="0"/>
        <pt x="1414" y="719" on="1"/>
        <pt x="1414" y="376" on="0"/>
        <pt x="1089" y="0" on="0"/>
        <pt x="629" y="0" on="1"/>
        <pt x="280" y="0" on="1"/>
        <pt x="210" y="0" on="0"/>
        <pt x="210" y="75" on="1"/>
        <pt x="210" y="612" on="1"/>
      </contour>
      <contour>
        <pt x="502" y="248" on="1"/>
        <pt x="610" y="248" on="1"/>
        <pt x="920" y="248" on="0"/>
        <pt x="1102" y="479" on="0"/>
        <pt x="1102" y="719" on="1"/>
        <pt x="1102" y="959" on="0"/>
        <pt x="920" y="1188" on="0"/>
        <pt x="610" y="1188" on="1"/>
        <pt x="502" y="1188" on="1"/>
        <pt x="502" y="860" on="1"/>
        <pt x="741" y="860" on="1"/>
        <pt x="816" y="860" on="0"/>
        <pt x="816" y="795" on="1"/>
        <pt x="816" y="677" on="1"/>
        <pt x="816" y="612" on="0"/>
        <pt x="741" y="612" on="1"/>
        <pt x="502" y="612" on="1"/>
      </contour>
    </TTGlyph>
    <TTGlyph name="Euro" xMin="8" yMin="-35" xMax="1155" yMax="1456">
      <contour>
        <pt x="63" y="474" on="1"/>
        <pt x="8" y="474" on="0"/>
        <pt x="16" y="519" on="1"/>
        <pt x="32" y="611" on="1"/>
        <pt x="40" y="656" on="0"/>
        <pt x="95" y="656" on="1"/>
        <pt x="100" y="656" on="1"/>
        <pt x="99" y="724" on="0"/>
        <pt x="104" y="788" on="1"/>
        <pt x="63" y="788" on="1"/>
        <pt x="8" y="788" on="0"/>
        <pt x="16" y="833" on="1"/>
        <pt x="32" y="925" on="1"/>
        <pt x="40" y="970" on="0"/>
        <pt x="95" y="970" on="1"/>
        <pt x="130" y="970" on="1"/>
        <pt x="170" y="1174" on="0"/>
        <pt x="478" y="1456" on="0"/>
        <pt x="731" y="1456" on="1"/>
        <pt x="813" y="1456" on="0"/>
        <pt x="1005" y="1404" on="0"/>
        <pt x="1081" y="1326" on="1"/>
        <pt x="1133" y="1272" on="0"/>
        <pt x="1089" y="1234" on="1"/>
        <pt x="989" y="1148" on="1"/>
        <pt x="952" y="1116" on="0"/>
        <pt x="904" y="1160" on="1"/>
        <pt x="846" y="1214" on="0"/>
        <pt x="766" y="1232" on="0"/>
        <pt x="711" y="1232" on="1"/>
        <pt x="600" y="1232" on="0"/>
        <pt x="456" y="1086" on="0"/>
        <pt x="428" y="970" on="1"/>
        <pt x="791" y="970" on="1"/>
        <pt x="846" y="970" on="0"/>
        <pt x="838" y="925" on="1"/>
        <pt x="822" y="833" on="1"/>
        <pt x="814" y="788" on="0"/>
        <pt x="759" y="788" on="1"/>
        <pt x="404" y="788" on="1"/>
        <pt x="400" y="726" on="0"/>
        <pt x="400" y="656" on="1"/>
        <pt x="791" y="656" on="1"/>
        <pt x="846" y="656" on="0"/>
        <pt x="838" y="611" on="1"/>
        <pt x="822" y="519" on="1"/>
        <pt x="814" y="474" on="0"/>
        <pt x="759" y="474" on="1"/>
        <pt x="411" y="474" on="1"/>
        <pt x="428" y="338" on="0"/>
        <pt x="572" y="190" on="0"/>
        <pt x="694" y="190" on="1"/>
        <pt x="786" y="190" on="0"/>
        <pt x="889" y="235" on="0"/>
        <pt x="936" y="277" on="1"/>
        <pt x="992" y="326" on="0"/>
        <pt x="1027" y="291" on="1"/>
        <pt x="1115" y="202" on="1"/>
        <pt x="1155" y="161" on="0"/>
        <pt x="1106" y="114" on="1"/>
        <pt x="1029" y="40" on="0"/>
        <pt x="816" y="-35" on="0"/>
        <pt x="693" y="-35" on="1"/>
        <pt x="414" y="-35" on="0"/>
        <pt x="147" y="219" on="0"/>
        <pt x="113" y="474" on="1"/>
      </contour>
    </TTGlyph>
    <TTGlyph name="F" xMin="160" yMin="0" xMax="1096" yMax="1434">
      <contour>
        <pt x="230" y="0" on="1"/>
        <pt x="160" y="0" on="0"/>
        <pt x="160" y="75" on="1"/>
        <pt x="160" y="1359" on="1"/>
        <pt x="160" y="1434" on="0"/>
        <pt x="230" y="1434" on="1"/>
        <pt x="1021" y="1434" on="1"/>
        <pt x="1096" y="1434" on="0"/>
        <pt x="1096" y="1369" on="1"/>
        <pt x="1096" y="1251" on="1"/>
        <pt x="1096" y="1186" on="0"/>
        <pt x="1021" y="1186" on="1"/>
        <pt x="452" y="1186" on="1"/>
        <pt x="452" y="838" on="1"/>
        <pt x="939" y="838" on="1"/>
        <pt x="1014" y="838" on="0"/>
        <pt x="1014" y="773" on="1"/>
        <pt x="1014" y="655" on="1"/>
        <pt x="1014" y="590" on="0"/>
        <pt x="939" y="590" on="1"/>
        <pt x="452" y="590" on="1"/>
        <pt x="452" y="75" on="1"/>
        <pt x="452" y="0" on="0"/>
        <pt x="382" y="0" on="1"/>
      </contour>
    </TTGlyph>
    <TTGlyph name="G" xMin="86" yMin="-34" xMax="1394" yMax="1468">
      <contour>
        <pt x="86" y="717" on="1"/>
        <pt x="86" y="1062" on="0"/>
        <pt x="446" y="1468" on="0"/>
        <pt x="776" y="1468" on="1"/>
        <pt x="975" y="1468" on="0"/>
        <pt x="1202" y="1366" on="0"/>
        <pt x="1288" y="1259" on="1"/>
        <pt x="1340" y="1194" on="0"/>
        <pt x="1285" y="1158" on="1"/>
        <pt x="1171" y="1084" on="1"/>
        <pt x="1121" y="1051" on="0"/>
        <pt x="1064" y="1113" on="1"/>
        <pt x="1017" y="1164" on="0"/>
        <pt x="873" y="1232" on="0"/>
        <pt x="786" y="1232" on="1"/>
        <pt x="576" y="1232" on="0"/>
        <pt x="398" y="967" on="0"/>
        <pt x="398" y="717" on="1"/>
        <pt x="398" y="467" on="0"/>
        <pt x="576" y="202" on="0"/>
        <pt x="786" y="202" on="1"/>
        <pt x="888" y="202" on="0"/>
        <pt x="1036" y="243" on="0"/>
        <pt x="1102" y="297" on="1"/>
        <pt x="1102" y="476" on="1"/>
        <pt x="885" y="476" on="1"/>
        <pt x="810" y="476" on="0"/>
        <pt x="810" y="541" on="1"/>
        <pt x="810" y="659" on="1"/>
        <pt x="810" y="724" on="0"/>
        <pt x="885" y="724" on="1"/>
        <pt x="1319" y="724" on="1"/>
        <pt x="1394" y="724" on="0"/>
        <pt x="1394" y="659" on="1"/>
        <pt x="1394" y="151" on="1"/>
        <pt x="1254" y="48" on="0"/>
        <pt x="969" y="-34" on="0"/>
        <pt x="776" y="-34" on="1"/>
        <pt x="451" y="-34" on="0"/>
        <pt x="86" y="372" on="0"/>
      </contour>
    </TTGlyph>
    <TTGlyph name="Gbreve" xMin="86" yMin="-34" xMax="1394" yMax="1885">
      <component glyphName="breve.cap" x="366" y="0" flags="0x1004"/>
      <component glyphName="G" x="0" y="0" flags="0x1204"/>
    </TTGlyph>
    <TTGlyph name="Gcaron" xMin="86" yMin="-34" xMax="1394" yMax="1784">
      <component glyphName="caron.cap" x="366" y="0" flags="0x1004"/>
      <component glyphName="G" x="0" y="0" flags="0x1204"/>
    </TTGlyph>
    <TTGlyph name="Gcircumflex" xMin="86" yMin="-34" xMax="1394" yMax="1766">
      <component glyphName="circumflex.cap" x="366" y="0" flags="0x1004"/>
      <component glyphName="G" x="0" y="0" flags="0x1204"/>
    </TTGlyph>
    <TTGlyph name="Gdotaccent" xMin="86" yMin="-34" xMax="1394" yMax="1790">
      <component glyphName="dotaccent.cap" x="366" y="0" flags="0x1004"/>
      <component glyphName="G" x="0" y="0" flags="0x1204"/>
    </TTGlyph>
    <TTGlyph name="H" xMin="160" yMin="0" xMax="1282" yMax="1434">
      <contour>
        <pt x="230" y="0" on="1"/>
        <pt x="160" y="0" on="0"/>
        <pt x="160" y="75" on="1"/>
        <pt x="160" y="1359" on="1"/>
        <pt x="160" y="1434" on="0"/>
        <pt x="230" y="1434" on="1"/>
        <pt x="382" y="1434" on="1"/>
        <pt x="452" y="1434" on="0"/>
        <pt x="452" y="1359" on="1"/>
        <pt x="452" y="870" on="1"/>
        <pt x="990" y="870" on="1"/>
        <pt x="990" y="1359" on="1"/>
        <pt x="990" y="1434" on="0"/>
        <pt x="1060" y="1434" on="1"/>
        <pt x="1212" y="1434" on="1"/>
        <pt x="1282" y="1434" on="0"/>
        <pt x="1282" y="1359" on="1"/>
        <pt x="1282" y="75" on="1"/>
        <pt x="1282" y="0" on="0"/>
        <pt x="1212" y="0" on="1"/>
        <pt x="1060" y="0" on="1"/>
        <pt x="990" y="0" on="0"/>
        <pt x="990" y="75" on="1"/>
        <pt x="990" y="622" on="1"/>
        <pt x="452" y="622" on="1"/>
        <pt x="452" y="75" on="1"/>
        <pt x="452" y="0" on="0"/>
        <pt x="382" y="0" on="1"/>
      </contour>
    </TTGlyph>
    <TTGlyph name="Hcircumflex" xMin="160" yMin="0" xMax="1282" yMax="1766">
      <component glyphName="circumflex.cap" x="311" y="0" flags="0x1004"/>
      <component glyphName="H" x="0" y="0" flags="0x1204"/>
    </TTGlyph>
    <TTGlyph name="I" xMin="160" yMin="0" xMax="452" yMax="1434">
      <contour>
        <pt x="230" y="0" on="1"/>
        <pt x="160" y="0" on="0"/>
        <pt x="160" y="75" on="1"/>
        <pt x="160" y="1359" on="1"/>
        <pt x="160" y="1434" on="0"/>
        <pt x="230" y="1434" on="1"/>
        <pt x="382" y="1434" on="1"/>
        <pt x="452" y="1434" on="0"/>
        <pt x="452" y="1359" on="1"/>
        <pt x="452" y="75" on="1"/>
        <pt x="452" y="0" on="0"/>
        <pt x="382" y="0" on="1"/>
      </contour>
    </TTGlyph>
    <TTGlyph name="Iacute" xMin="106" yMin="0" xMax="611" yMax="1785">
      <component glyphName="uni0301.cap" x="707" y="0" flags="0x1004"/>
      <component glyphName="I" x="0" y="0" flags="0x1204"/>
    </TTGlyph>
    <TTGlyph name="Ibreve" xMin="-88" yMin="0" xMax="700" yMax="1885">
      <component glyphName="breve.cap" x="-104" y="0" flags="0x1004"/>
      <component glyphName="I" x="0" y="0" flags="0x1204"/>
    </TTGlyph>
    <TTGlyph name="Icircumflex" xMin="-101" yMin="0" xMax="713" yMax="1766">
      <component glyphName="circumflex.cap" x="-104" y="0" flags="0x1004"/>
      <component glyphName="I" x="0" y="0" flags="0x1204"/>
    </TTGlyph>
    <TTGlyph name="Idieresis" xMin="-54" yMin="0" xMax="666" yMax="1786">
      <component glyphName="I" x="0" y="0" flags="0x1204"/>
      <component glyphName="dieresis.alt1" x="-104" y="0" flags="0x1004"/>
    </TTGlyph>
    <TTGlyph name="Idotaccent" xMin="160" yMin="0" xMax="452" yMax="1790">
      <component glyphName="dotaccent.cap" x="-104" y="0" flags="0x1004"/>
      <component glyphName="I" x="0" y="0" flags="0x1204"/>
    </TTGlyph>
    <TTGlyph name="Igrave" xMin="1" yMin="0" xMax="506" yMax="1785">
      <component glyphName="uni0300.cap" x="725" y="0" flags="0x1004"/>
      <component glyphName="I" x="0" y="0" flags="0x1204"/>
    </TTGlyph>
    <TTGlyph name="Imacron" xMin="-66" yMin="0" xMax="678" yMax="1724">
      <component glyphName="uni0304.cap" x="716" y="0" flags="0x1004"/>
      <component glyphName="I" x="0" y="0" flags="0x1204"/>
    </TTGlyph>
    <TTGlyph name="Itilde" xMin="-107" yMin="0" xMax="719" yMax="1794">
      <component glyphName="tilde.cap" x="-104" y="0" flags="0x1004"/>
      <component glyphName="I" x="0" y="0" flags="0x1204"/>
    </TTGlyph>
    <TTGlyph name="J" xMin="24" yMin="-34" xMax="787" yMax="1434">
      <contour>
        <pt x="77" y="19" on="1"/>
        <pt x="24" y="50" on="0"/>
        <pt x="37" y="94" on="1"/>
        <pt x="79" y="231" on="1"/>
        <pt x="97" y="290" on="0"/>
        <pt x="173" y="243" on="1"/>
        <pt x="238" y="202" on="0"/>
        <pt x="318" y="202" on="1"/>
        <pt x="428" y="202" on="0"/>
        <pt x="495" y="354" on="0"/>
        <pt x="495" y="531" on="1"/>
        <pt x="495" y="1359" on="1"/>
        <pt x="495" y="1434" on="0"/>
        <pt x="565" y="1434" on="1"/>
        <pt x="717" y="1434" on="1"/>
        <pt x="787" y="1434" on="0"/>
        <pt x="787" y="1359" on="1"/>
        <pt x="787" y="551" on="1"/>
        <pt x="787" y="183" on="0"/>
        <pt x="540" y="-34" on="0"/>
        <pt x="321" y="-34" on="1"/>
        <pt x="168" y="-34" on="0"/>
      </contour>
    </TTGlyph>
    <TTGlyph name="Jcircumflex" xMin="24" yMin="-34" xMax="1048" yMax="1766">
      <component glyphName="circumflex.cap" x="231" y="0" flags="0x1004"/>
      <component glyphName="J" x="0" y="0" flags="0x1204"/>
    </TTGlyph>
    <TTGlyph name="K" xMin="160" yMin="0" xMax="1358" yMax="1434">
      <contour>
        <pt x="230" y="0" on="1"/>
        <pt x="160" y="0" on="0"/>
        <pt x="160" y="75" on="1"/>
        <pt x="160" y="1359" on="1"/>
        <pt x="160" y="1434" on="0"/>
        <pt x="230" y="1434" on="1"/>
        <pt x="382" y="1434" on="1"/>
        <pt x="452" y="1434" on="0"/>
        <pt x="452" y="1359" on="1"/>
        <pt x="452" y="961" on="1"/>
        <pt x="452" y="901" on="0"/>
        <pt x="447" y="841" on="1"/>
        <pt x="454" y="841" on="1"/>
        <pt x="940" y="1375" on="1"/>
        <pt x="994" y="1434" on="0"/>
        <pt x="1032" y="1434" on="1"/>
        <pt x="1233" y="1434" on="1"/>
        <pt x="1350" y="1434" on="0"/>
        <pt x="1271" y="1348" on="1"/>
        <pt x="816" y="850" on="1"/>
        <pt x="1303" y="86" on="1"/>
        <pt x="1358" y="0" on="0"/>
        <pt x="1265" y="0" on="1"/>
        <pt x="1078" y="0" on="1"/>
        <pt x="1026" y="0" on="0"/>
        <pt x="988" y="59" on="1"/>
        <pt x="620" y="636" on="1"/>
        <pt x="452" y="447" on="1"/>
        <pt x="452" y="75" on="1"/>
        <pt x="452" y="0" on="0"/>
        <pt x="382" y="0" on="1"/>
      </contour>
    </TTGlyph>
    <TTGlyph name="L" xMin="160" yMin="0" xMax="1110" yMax="1434">
      <contour>
        <pt x="230" y="0" on="1"/>
        <pt x="160" y="0" on="0"/>
        <pt x="160" y="75" on="1"/>
        <pt x="160" y="1359" on="1"/>
        <pt x="160" y="1434" on="0"/>
        <pt x="230" y="1434" on="1"/>
        <pt x="392" y="1434" on="1"/>
        <pt x="452" y="1434" on="0"/>
        <pt x="452" y="1359" on="1"/>
        <pt x="452" y="248" on="1"/>
        <pt x="1035" y="248" on="1"/>
        <pt x="1110" y="248" on="0"/>
        <pt x="1110" y="183" on="1"/>
        <pt x="1110" y="65" on="1"/>
        <pt x="1110" y="0" on="0"/>
        <pt x="1035" y="0" on="1"/>
      </contour>
    </TTGlyph>
    <TTGlyph name="Lacute" xMin="160" yMin="0" xMax="1110" yMax="1785">
      <component glyphName="uni0301.cap" x="1036" y="0" flags="0x1004"/>
      <component glyphName="L" x="0" y="0" flags="0x1204"/>
    </TTGlyph>
    <TTGlyph name="Lcaron" xMin="160" yMin="0" xMax="1110" yMax="1476">
      <component glyphName="caron.alt" x="500" y="0" flags="0x1004"/>
      <component glyphName="L" x="0" y="0" flags="0x1004"/>
    </TTGlyph>
    <TTGlyph name="Lslash" xMin="55" yMin="0" xMax="1192" yMax="1434">
      <contour>
        <pt x="125" y="398" on="1"/>
        <pt x="55" y="351" on="0"/>
        <pt x="55" y="418" on="1"/>
        <pt x="55" y="562" on="1"/>
        <pt x="55" y="616" on="0"/>
        <pt x="105" y="650" on="1"/>
        <pt x="242" y="742" on="1"/>
        <pt x="242" y="1359" on="1"/>
        <pt x="242" y="1434" on="0"/>
        <pt x="312" y="1434" on="1"/>
        <pt x="474" y="1434" on="1"/>
        <pt x="534" y="1434" on="0"/>
        <pt x="534" y="1359" on="1"/>
        <pt x="534" y="1062" on="1"/>
        <pt x="534" y="1002" on="0"/>
        <pt x="529" y="942" on="1"/>
        <pt x="536" y="942" on="1"/>
        <pt x="767" y="1097" on="1"/>
        <pt x="837" y="1144" on="0"/>
        <pt x="837" y="1077" on="1"/>
        <pt x="837" y="933" on="1"/>
        <pt x="837" y="878" on="0"/>
        <pt x="787" y="845" on="1"/>
        <pt x="534" y="676" on="1"/>
        <pt x="534" y="248" on="1"/>
        <pt x="1117" y="248" on="1"/>
        <pt x="1192" y="248" on="0"/>
        <pt x="1192" y="183" on="1"/>
        <pt x="1192" y="65" on="1"/>
        <pt x="1192" y="0" on="0"/>
        <pt x="1117" y="0" on="1"/>
        <pt x="312" y="0" on="1"/>
        <pt x="242" y="0" on="0"/>
        <pt x="242" y="75" on="1"/>
        <pt x="242" y="356" on="1"/>
        <pt x="242" y="416" on="0"/>
        <pt x="247" y="476" on="1"/>
        <pt x="240" y="476" on="1"/>
      </contour>
    </TTGlyph>
    <TTGlyph name="M" xMin="160" yMin="0" xMax="1668" yMax="1434">
      <contour>
        <pt x="230" y="0" on="1"/>
        <pt x="160" y="0" on="0"/>
        <pt x="160" y="75" on="1"/>
        <pt x="160" y="1359" on="1"/>
        <pt x="160" y="1434" on="0"/>
        <pt x="230" y="1434" on="1"/>
        <pt x="520" y="1434" on="1"/>
        <pt x="578" y="1434" on="0"/>
        <pt x="603" y="1354" on="1"/>
        <pt x="874" y="477" on="1"/>
        <pt x="892" y="420" on="0"/>
        <pt x="906" y="347" on="0"/>
        <pt x="911" y="297" on="1"/>
        <pt x="917" y="297" on="1"/>
        <pt x="922" y="347" on="0"/>
        <pt x="936" y="420" on="0"/>
        <pt x="954" y="477" on="1"/>
        <pt x="1225" y="1354" on="1"/>
        <pt x="1250" y="1434" on="0"/>
        <pt x="1308" y="1434" on="1"/>
        <pt x="1598" y="1434" on="1"/>
        <pt x="1668" y="1434" on="0"/>
        <pt x="1668" y="1359" on="1"/>
        <pt x="1668" y="75" on="1"/>
        <pt x="1668" y="0" on="0"/>
        <pt x="1598" y="0" on="1"/>
        <pt x="1446" y="0" on="1"/>
        <pt x="1376" y="0" on="0"/>
        <pt x="1376" y="75" on="1"/>
        <pt x="1376" y="901" on="1"/>
        <pt x="1376" y="961" on="0"/>
        <pt x="1381" y="1021" on="1"/>
        <pt x="1374" y="1021" on="1"/>
        <pt x="1085" y="81" on="1"/>
        <pt x="1060" y="0" on="0"/>
        <pt x="999" y="0" on="1"/>
        <pt x="829" y="0" on="1"/>
        <pt x="768" y="0" on="0"/>
        <pt x="743" y="81" on="1"/>
        <pt x="454" y="1021" on="1"/>
        <pt x="447" y="1021" on="1"/>
        <pt x="452" y="961" on="0"/>
        <pt x="452" y="901" on="1"/>
        <pt x="452" y="75" on="1"/>
        <pt x="452" y="0" on="0"/>
        <pt x="382" y="0" on="1"/>
      </contour>
    </TTGlyph>
    <TTGlyph name="N" xMin="160" yMin="0" xMax="1312" yMax="1434">
      <contour>
        <pt x="230" y="0" on="1"/>
        <pt x="160" y="0" on="0"/>
        <pt x="160" y="75" on="1"/>
        <pt x="160" y="1359" on="1"/>
        <pt x="160" y="1434" on="0"/>
        <pt x="230" y="1434" on="1"/>
        <pt x="378" y="1434" on="1"/>
        <pt x="464" y="1434" on="0"/>
        <pt x="508" y="1364" on="1"/>
        <pt x="1018" y="545" on="1"/>
        <pt x="1025" y="545" on="1"/>
        <pt x="1020" y="605" on="0"/>
        <pt x="1020" y="665" on="1"/>
        <pt x="1020" y="1359" on="1"/>
        <pt x="1020" y="1434" on="0"/>
        <pt x="1090" y="1434" on="1"/>
        <pt x="1242" y="1434" on="1"/>
        <pt x="1312" y="1434" on="0"/>
        <pt x="1312" y="1359" on="1"/>
        <pt x="1312" y="75" on="1"/>
        <pt x="1312" y="0" on="0"/>
        <pt x="1242" y="0" on="1"/>
        <pt x="1104" y="0" on="1"/>
        <pt x="1018" y="0" on="0"/>
        <pt x="974" y="70" on="1"/>
        <pt x="454" y="904" on="1"/>
        <pt x="447" y="904" on="1"/>
        <pt x="452" y="844" on="0"/>
        <pt x="452" y="784" on="1"/>
        <pt x="452" y="75" on="1"/>
        <pt x="452" y="0" on="0"/>
        <pt x="382" y="0" on="1"/>
      </contour>
    </TTGlyph>
    <TTGlyph name="Nacute" xMin="160" yMin="0" xMax="1312" yMax="1785">
      <component glyphName="uni0301.cap" x="1137" y="0" flags="0x1004"/>
      <component glyphName="N" x="0" y="0" flags="0x1204"/>
    </TTGlyph>
    <TTGlyph name="Ncaron" xMin="160" yMin="0" xMax="1312" yMax="1784">
      <component glyphName="caron.cap" x="326" y="0" flags="0x1004"/>
      <component glyphName="N" x="0" y="0" flags="0x1204"/>
    </TTGlyph>
    <TTGlyph name="Ntilde" xMin="160" yMin="0" xMax="1312" yMax="1794">
      <component glyphName="tilde.cap" x="326" y="0" flags="0x1004"/>
      <component glyphName="N" x="0" y="0" flags="0x1204"/>
    </TTGlyph>
    <TTGlyph name="O" xMin="86" yMin="-34" xMax="1458" yMax="1468">
      <contour>
        <pt x="86" y="717" on="1"/>
        <pt x="86" y="1062" on="0"/>
        <pt x="442" y="1468" on="0"/>
        <pt x="772" y="1468" on="1"/>
        <pt x="1102" y="1468" on="0"/>
        <pt x="1458" y="1062" on="0"/>
        <pt x="1458" y="717" on="1"/>
        <pt x="1458" y="372" on="0"/>
        <pt x="1102" y="-34" on="0"/>
        <pt x="772" y="-34" on="1"/>
        <pt x="442" y="-34" on="0"/>
        <pt x="86" y="372" on="0"/>
      </contour>
      <contour>
        <pt x="398" y="717" on="1"/>
        <pt x="398" y="467" on="0"/>
        <pt x="577" y="202" on="0"/>
        <pt x="772" y="202" on="1"/>
        <pt x="967" y="202" on="0"/>
        <pt x="1146" y="467" on="0"/>
        <pt x="1146" y="717" on="1"/>
        <pt x="1146" y="967" on="0"/>
        <pt x="967" y="1232" on="0"/>
        <pt x="772" y="1232" on="1"/>
        <pt x="577" y="1232" on="0"/>
        <pt x="398" y="967" on="0"/>
      </contour>
    </TTGlyph>
    <TTGlyph name="Oacute" xMin="86" yMin="-34" xMax="1458" yMax="1785">
      <component glyphName="O" x="0" y="0" flags="0x1204"/>
      <component glyphName="acute.cap" x="353" y="0" flags="0x1004"/>
    </TTGlyph>
    <TTGlyph name="Obreve" xMin="86" yMin="-34" xMax="1458" yMax="1885">
      <component glyphName="breve.cap" x="362" y="0" flags="0x1004"/>
      <component glyphName="O" x="0" y="0" flags="0x1204"/>
    </TTGlyph>
    <TTGlyph name="Ocircumflex" xMin="86" yMin="-34" xMax="1458" yMax="1766">
      <component glyphName="circumflex.cap" x="362" y="0" flags="0x1004"/>
      <component glyphName="O" x="0" y="0" flags="0x1204"/>
    </TTGlyph>
    <TTGlyph name="Odieresis" xMin="86" yMin="-34" xMax="1458" yMax="1786">
      <component glyphName="O" x="0" y="0" flags="0x1204"/>
      <component glyphName="dieresis.cap" x="367" y="0" flags="0x1004"/>
    </TTGlyph>
    <TTGlyph name="Ograve" xMin="86" yMin="-34" xMax="1458" yMax="1785">
      <component glyphName="uni0300.cap" x="1191" y="0" flags="0x1004"/>
      <component glyphName="O" x="0" y="0" flags="0x1204"/>
    </TTGlyph>
    <TTGlyph name="Ohungarumlaut" xMin="86" yMin="-34" xMax="1458" yMax="1785">
      <component glyphName="hungarumlaut.cap" x="416" y="0" flags="0x1004"/>
      <component glyphName="O" x="0" y="0" flags="0x1204"/>
    </TTGlyph>
    <TTGlyph name="Omacron" xMin="86" yMin="-34" xMax="1458" yMax="1724">
      <component glyphName="uni0304.cap" x="1182" y="0" flags="0x1004"/>
      <component glyphName="O" x="0" y="0" flags="0x1204"/>
    </TTGlyph>
    <TTGlyph name="Omega" xMin="58" yMin="0" xMax="1566" yMax="1468">
      <component glyphName="uni03A9" x="0" y="0" flags="0x1204"/>
    </TTGlyph>
    <TTGlyph name="Oslash" xMin="26" yMin="-94" xMax="1518" yMax="1528">
      <contour>
        <pt x="86" y="717" on="1"/>
        <pt x="86" y="1062" on="0"/>
        <pt x="442" y="1468" on="0"/>
        <pt x="772" y="1468" on="1"/>
        <pt x="1024" y="1468" on="0"/>
        <pt x="1187" y="1350" on="1"/>
        <pt x="1307" y="1483" on="1"/>
        <pt x="1347" y="1528" on="0"/>
        <pt x="1388" y="1491" on="1"/>
        <pt x="1477" y="1410" on="1"/>
        <pt x="1518" y="1374" on="0"/>
        <pt x="1478" y="1329" on="1"/>
        <pt x="1343" y="1179" on="1"/>
        <pt x="1458" y="994" on="0"/>
        <pt x="1458" y="717" on="1"/>
        <pt x="1458" y="372" on="0"/>
        <pt x="1102" y="-34" on="0"/>
        <pt x="772" y="-34" on="1"/>
        <pt x="520" y="-34" on="0"/>
        <pt x="357" y="84" on="1"/>
        <pt x="237" y="-49" on="1"/>
        <pt x="197" y="-94" on="0"/>
        <pt x="156" y="-57" on="1"/>
        <pt x="67" y="24" on="1"/>
        <pt x="26" y="61" on="0"/>
        <pt x="66" y="105" on="1"/>
        <pt x="201" y="255" on="1"/>
        <pt x="86" y="440" on="0"/>
      </contour>
      <contour>
        <pt x="398" y="717" on="1"/>
        <pt x="398" y="593" on="0"/>
        <pt x="420" y="498" on="1"/>
        <pt x="1010" y="1153" on="1"/>
        <pt x="922" y="1232" on="0"/>
        <pt x="772" y="1232" on="1"/>
        <pt x="577" y="1232" on="0"/>
        <pt x="398" y="967" on="0"/>
      </contour>
      <contour>
        <pt x="534" y="281" on="1"/>
        <pt x="622" y="202" on="0"/>
        <pt x="772" y="202" on="1"/>
        <pt x="967" y="202" on="0"/>
        <pt x="1146" y="467" on="0"/>
        <pt x="1146" y="717" on="1"/>
        <pt x="1146" y="841" on="0"/>
        <pt x="1124" y="936" on="1"/>
      </contour>
    </TTGlyph>
    <TTGlyph name="Oslashacute" xMin="26" yMin="-94" xMax="1518" yMax="1875">
      <component glyphName="uni0301.cap" x="1254" y="90" flags="0x1004"/>
      <component glyphName="Oslash" x="0" y="0" flags="0x1204"/>
    </TTGlyph>
    <TTGlyph name="Otilde" xMin="86" yMin="-34" xMax="1458" yMax="1794">
      <component glyphName="tilde.cap" x="362" y="0" flags="0x1004"/>
      <component glyphName="O" x="0" y="0" flags="0x1204"/>
    </TTGlyph>
    <TTGlyph name="P" xMin="160" yMin="0" xMax="1243" yMax="1434">
      <contour>
        <pt x="230" y="0" on="1"/>
        <pt x="160" y="0" on="0"/>
        <pt x="160" y="75" on="1"/>
        <pt x="160" y="1359" on="1"/>
        <pt x="160" y="1434" on="0"/>
        <pt x="230" y="1434" on="1"/>
        <pt x="604" y="1434" on="1"/>
        <pt x="964" y="1434" on="0"/>
        <pt x="1243" y="1200" on="0"/>
        <pt x="1243" y="985" on="1"/>
        <pt x="1243" y="770" on="0"/>
        <pt x="964" y="536" on="0"/>
        <pt x="604" y="536" on="1"/>
        <pt x="452" y="536" on="1"/>
        <pt x="452" y="75" on="1"/>
        <pt x="452" y="0" on="0"/>
        <pt x="382" y="0" on="1"/>
      </contour>
      <contour>
        <pt x="452" y="780" on="1"/>
        <pt x="603" y="780" on="1"/>
        <pt x="803" y="780" on="0"/>
        <pt x="947" y="875" on="0"/>
        <pt x="947" y="985" on="1"/>
        <pt x="947" y="1095" on="0"/>
        <pt x="803" y="1190" on="0"/>
        <pt x="603" y="1190" on="1"/>
        <pt x="452" y="1190" on="1"/>
      </contour>
    </TTGlyph>
    <TTGlyph name="Q" xMin="86" yMin="-407" xMax="1458" yMax="1468">
      <contour>
        <pt x="86" y="717" on="1"/>
        <pt x="86" y="1062" on="0"/>
        <pt x="442" y="1468" on="0"/>
        <pt x="772" y="1468" on="1"/>
        <pt x="1102" y="1468" on="0"/>
        <pt x="1458" y="1062" on="0"/>
        <pt x="1458" y="717" on="1"/>
        <pt x="1458" y="372" on="0"/>
        <pt x="1280" y="169" on="1"/>
        <pt x="1144" y="14" on="0"/>
        <pt x="919" y="-23" on="1"/>
        <pt x="928" y="-113" on="0"/>
        <pt x="1005" y="-202" on="0"/>
        <pt x="1116" y="-202" on="1"/>
        <pt x="1167" y="-202" on="0"/>
        <pt x="1222" y="-188" on="1"/>
        <pt x="1272" y="-175" on="0"/>
        <pt x="1280" y="-210" on="1"/>
        <pt x="1308" y="-326" on="1"/>
        <pt x="1317" y="-365" on="0"/>
        <pt x="1272" y="-376" on="1"/>
        <pt x="1154" y="-407" on="0"/>
        <pt x="1084" y="-407" on="1"/>
        <pt x="816" y="-407" on="0"/>
        <pt x="637" y="-181" on="0"/>
        <pt x="626" y="-23" on="1"/>
        <pt x="400" y="13" on="0"/>
        <pt x="264" y="169" on="1"/>
        <pt x="86" y="372" on="0"/>
      </contour>
      <contour>
        <pt x="398" y="717" on="1"/>
        <pt x="398" y="467" on="0"/>
        <pt x="577" y="202" on="0"/>
        <pt x="772" y="202" on="1"/>
        <pt x="967" y="202" on="0"/>
        <pt x="1146" y="467" on="0"/>
        <pt x="1146" y="717" on="1"/>
        <pt x="1146" y="967" on="0"/>
        <pt x="967" y="1232" on="0"/>
        <pt x="772" y="1232" on="1"/>
        <pt x="577" y="1232" on="0"/>
        <pt x="398" y="967" on="0"/>
      </contour>
    </TTGlyph>
    <TTGlyph name="R" xMin="160" yMin="0" xMax="1379" yMax="1434">
      <contour>
        <pt x="230" y="0" on="1"/>
        <pt x="160" y="0" on="0"/>
        <pt x="160" y="75" on="1"/>
        <pt x="160" y="1359" on="1"/>
        <pt x="160" y="1434" on="0"/>
        <pt x="230" y="1434" on="1"/>
        <pt x="693" y="1434" on="1"/>
        <pt x="1002" y="1434" on="0"/>
        <pt x="1286" y="1243" on="0"/>
        <pt x="1286" y="1028" on="1"/>
        <pt x="1286" y="868" on="0"/>
        <pt x="1056" y="678" on="0"/>
        <pt x="879" y="647" on="1"/>
        <pt x="879" y="645" on="1"/>
        <pt x="975" y="609" on="0"/>
        <pt x="1073" y="481" on="0"/>
        <pt x="1104" y="433" on="1"/>
        <pt x="1324" y="86" on="1"/>
        <pt x="1379" y="0" on="0"/>
        <pt x="1286" y="0" on="1"/>
        <pt x="1112" y="0" on="1"/>
        <pt x="1057" y="0" on="0"/>
        <pt x="1022" y="59" on="1"/>
        <pt x="820" y="396" on="1"/>
        <pt x="787" y="450" on="0"/>
        <pt x="612" y="579" on="0"/>
        <pt x="526" y="579" on="1"/>
        <pt x="452" y="579" on="1"/>
        <pt x="452" y="75" on="1"/>
        <pt x="452" y="0" on="0"/>
        <pt x="382" y="0" on="1"/>
      </contour>
      <contour>
        <pt x="452" y="827" on="1"/>
        <pt x="631" y="827" on="1"/>
        <pt x="831" y="827" on="0"/>
        <pt x="1000" y="918" on="0"/>
        <pt x="1000" y="1017" on="1"/>
        <pt x="1000" y="1125" on="0"/>
        <pt x="837" y="1190" on="0"/>
        <pt x="679" y="1190" on="1"/>
        <pt x="452" y="1190" on="1"/>
      </contour>
    </TTGlyph>
    <TTGlyph name="Racute" xMin="160" yMin="0" xMax="1379" yMax="1785">
      <component glyphName="uni0301.cap" x="1057" y="0" flags="0x1004"/>
      <component glyphName="R" x="0" y="0" flags="0x1204"/>
    </TTGlyph>
    <TTGlyph name="Rcaron" xMin="160" yMin="0" xMax="1379" yMax="1784">
      <component glyphName="caron.cap" x="246" y="0" flags="0x1004"/>
      <component glyphName="R" x="0" y="0" flags="0x1204"/>
    </TTGlyph>
    <TTGlyph name="S" xMin="83" yMin="-34" xMax="1206" yMax="1468">
      <contour>
        <pt x="145" y="107" on="1"/>
        <pt x="83" y="154" on="0"/>
        <pt x="115" y="202" on="1"/>
        <pt x="192" y="318" on="1"/>
        <pt x="230" y="375" on="0"/>
        <pt x="303" y="324" on="1"/>
        <pt x="359" y="285" on="0"/>
        <pt x="540" y="202" on="0"/>
        <pt x="640" y="202" on="1"/>
        <pt x="710" y="202" on="0"/>
        <pt x="840" y="234" on="0"/>
        <pt x="908" y="326" on="0"/>
        <pt x="908" y="389" on="1"/>
        <pt x="908" y="434" on="0"/>
        <pt x="878" y="502" on="0"/>
        <pt x="810" y="546" on="0"/>
        <pt x="774" y="561" on="1"/>
        <pt x="711" y="587" on="0"/>
        <pt x="520" y="638" on="0"/>
        <pt x="427" y="674" on="1"/>
        <pt x="344" y="706" on="0"/>
        <pt x="206" y="818" on="0"/>
        <pt x="130" y="958" on="0"/>
        <pt x="130" y="1075" on="1"/>
        <pt x="130" y="1214" on="0"/>
        <pt x="310" y="1412" on="0"/>
        <pt x="544" y="1468" on="0"/>
        <pt x="663" y="1468" on="1"/>
        <pt x="781" y="1468" on="0"/>
        <pt x="1032" y="1396" on="0"/>
        <pt x="1096" y="1342" on="1"/>
        <pt x="1159" y="1289" on="0"/>
        <pt x="1127" y="1246" on="1"/>
        <pt x="1046" y="1137" on="1"/>
        <pt x="1005" y="1081" on="0"/>
        <pt x="936" y="1128" on="1"/>
        <pt x="892" y="1158" on="0"/>
        <pt x="739" y="1232" on="0"/>
        <pt x="656" y="1232" on="1"/>
        <pt x="597" y="1232" on="0"/>
        <pt x="498" y="1212" on="0"/>
        <pt x="422" y="1136" on="0"/>
        <pt x="422" y="1080" on="1"/>
        <pt x="422" y="1026" on="0"/>
        <pt x="478" y="959" on="0"/>
        <pt x="546" y="926" on="0"/>
        <pt x="581" y="915" on="1"/>
        <pt x="689" y="880" on="0"/>
        <pt x="859" y="827" on="0"/>
        <pt x="931" y="795" on="1"/>
        <pt x="1031" y="750" on="0"/>
        <pt x="1137" y="660" on="0"/>
        <pt x="1206" y="504" on="0"/>
        <pt x="1206" y="396" on="1"/>
        <pt x="1206" y="236" on="0"/>
        <pt x="1002" y="27" on="0"/>
        <pt x="753" y="-34" on="0"/>
        <pt x="635" y="-34" on="1"/>
        <pt x="461" y="-34" on="0"/>
        <pt x="243" y="33" on="0"/>
      </contour>
    </TTGlyph>
    <TTGlyph name="Sacute" xMin="83" yMin="-34" xMax="1206" yMax="1785">
      <component glyphName="uni0301.cap" x="1064" y="0" flags="0x1004"/>
      <component glyphName="S" x="0" y="0" flags="0x1204"/>
    </TTGlyph>
    <TTGlyph name="Scaron" xMin="83" yMin="-34" xMax="1206" yMax="1784">
      <component glyphName="caron.cap" x="253" y="0" flags="0x1004"/>
      <component glyphName="S" x="0" y="0" flags="0x1204"/>
    </TTGlyph>
    <TTGlyph name="Scircumflex" xMin="83" yMin="-34" xMax="1206" yMax="1766">
      <component glyphName="circumflex.cap" x="253" y="0" flags="0x1004"/>
      <component glyphName="S" x="0" y="0" flags="0x1204"/>
    </TTGlyph>
    <TTGlyph name="Sigma" xMin="70" yMin="0" xMax="1179" yMax="1434">
      <contour>
        <pt x="145" y="0" on="1"/>
        <pt x="70" y="0" on="0"/>
        <pt x="70" y="65" on="1"/>
        <pt x="70" y="147" on="1"/>
        <pt x="70" y="216" on="0"/>
        <pt x="121" y="286" on="1"/>
        <pt x="416" y="693" on="1"/>
        <pt x="464" y="759" on="0"/>
        <pt x="416" y="824" on="1"/>
        <pt x="138" y="1201" on="1"/>
        <pt x="103" y="1248" on="0"/>
        <pt x="103" y="1302" on="1"/>
        <pt x="103" y="1369" on="1"/>
        <pt x="103" y="1434" on="0"/>
        <pt x="178" y="1434" on="1"/>
        <pt x="1074" y="1434" on="1"/>
        <pt x="1149" y="1434" on="0"/>
        <pt x="1149" y="1369" on="1"/>
        <pt x="1149" y="1251" on="1"/>
        <pt x="1149" y="1186" on="0"/>
        <pt x="1074" y="1186" on="1"/>
        <pt x="624" y="1186" on="1"/>
        <pt x="564" y="1186" on="0"/>
        <pt x="504" y="1191" on="1"/>
        <pt x="504" y="1184" on="1"/>
        <pt x="773" y="820" on="1"/>
        <pt x="820" y="756" on="0"/>
        <pt x="774" y="693" on="1"/>
        <pt x="451" y="250" on="1"/>
        <pt x="451" y="243" on="1"/>
        <pt x="511" y="248" on="0"/>
        <pt x="571" y="248" on="1"/>
        <pt x="1104" y="248" on="1"/>
        <pt x="1179" y="248" on="0"/>
        <pt x="1179" y="183" on="1"/>
        <pt x="1179" y="65" on="1"/>
        <pt x="1179" y="0" on="0"/>
        <pt x="1104" y="0" on="1"/>
      </contour>
    </TTGlyph>
    <TTGlyph name="T" xMin="34" yMin="0" xMax="1212" yMax="1434">
      <contour>
        <pt x="109" y="1178" on="1"/>
        <pt x="34" y="1178" on="0"/>
        <pt x="34" y="1243" on="1"/>
        <pt x="34" y="1369" on="1"/>
        <pt x="34" y="1434" on="0"/>
        <pt x="109" y="1434" on="1"/>
        <pt x="1137" y="1434" on="1"/>
        <pt x="1212" y="1434" on="0"/>
        <pt x="1212" y="1369" on="1"/>
        <pt x="1212" y="1243" on="1"/>
        <pt x="1212" y="1178" on="0"/>
        <pt x="1137" y="1178" on="1"/>
        <pt x="769" y="1178" on="1"/>
        <pt x="769" y="55" on="1"/>
        <pt x="769" y="0" on="0"/>
        <pt x="719" y="0" on="1"/>
        <pt x="527" y="0" on="1"/>
        <pt x="477" y="0" on="0"/>
        <pt x="477" y="55" on="1"/>
        <pt x="477" y="1178" on="1"/>
      </contour>
    </TTGlyph>
    <TTGlyph name="Tcaron" xMin="34" yMin="0" xMax="1212" yMax="1784">
      <component glyphName="caron.cap" x="213" y="0" flags="0x1004"/>
      <component glyphName="T" x="0" y="0" flags="0x1204"/>
    </TTGlyph>
    <TTGlyph name="Thorn" xMin="160" yMin="-11" xMax="1222" yMax="1438">
      <contour>
        <pt x="230" y="-11" on="1"/>
        <pt x="160" y="-11" on="0"/>
        <pt x="160" y="64" on="1"/>
        <pt x="160" y="1363" on="1"/>
        <pt x="160" y="1438" on="0"/>
        <pt x="230" y="1438" on="1"/>
        <pt x="382" y="1438" on="1"/>
        <pt x="452" y="1438" on="0"/>
        <pt x="452" y="1363" on="1"/>
        <pt x="452" y="1198" on="1"/>
        <pt x="608" y="1198" on="1"/>
        <pt x="928" y="1198" on="0"/>
        <pt x="1222" y="970" on="0"/>
        <pt x="1222" y="750" on="1"/>
        <pt x="1222" y="530" on="0"/>
        <pt x="928" y="302" on="0"/>
        <pt x="608" y="302" on="1"/>
        <pt x="452" y="302" on="1"/>
        <pt x="452" y="64" on="1"/>
        <pt x="452" y="-11" on="0"/>
        <pt x="382" y="-11" on="1"/>
      </contour>
      <contour>
        <pt x="452" y="546" on="1"/>
        <pt x="615" y="546" on="1"/>
        <pt x="776" y="546" on="0"/>
        <pt x="920" y="640" on="0"/>
        <pt x="920" y="750" on="1"/>
        <pt x="920" y="860" on="0"/>
        <pt x="776" y="954" on="0"/>
        <pt x="615" y="954" on="1"/>
        <pt x="452" y="954" on="1"/>
      </contour>
    </TTGlyph>
    <TTGlyph name="U" xMin="160" yMin="-34" xMax="1262" yMax="1434">
      <contour>
        <pt x="160" y="597" on="1"/>
        <pt x="160" y="1379" on="1"/>
        <pt x="160" y="1434" on="0"/>
        <pt x="230" y="1434" on="1"/>
        <pt x="382" y="1434" on="1"/>
        <pt x="452" y="1434" on="0"/>
        <pt x="452" y="1379" on="1"/>
        <pt x="452" y="607" on="1"/>
        <pt x="452" y="337" on="0"/>
        <pt x="611" y="202" on="0"/>
        <pt x="711" y="202" on="1"/>
        <pt x="811" y="202" on="0"/>
        <pt x="970" y="337" on="0"/>
        <pt x="970" y="607" on="1"/>
        <pt x="970" y="1379" on="1"/>
        <pt x="970" y="1434" on="0"/>
        <pt x="1040" y="1434" on="1"/>
        <pt x="1192" y="1434" on="1"/>
        <pt x="1262" y="1434" on="0"/>
        <pt x="1262" y="1379" on="1"/>
        <pt x="1262" y="597" on="1"/>
        <pt x="1262" y="247" on="0"/>
        <pt x="966" y="-34" on="0"/>
        <pt x="711" y="-34" on="1"/>
        <pt x="456" y="-34" on="0"/>
        <pt x="160" y="247" on="0"/>
      </contour>
    </TTGlyph>
    <TTGlyph name="Uacute" xMin="160" yMin="-34" xMax="1262" yMax="1785">
      <component glyphName="uni0301.cap" x="1112" y="0" flags="0x1004"/>
      <component glyphName="U" x="0" y="0" flags="0x1204"/>
    </TTGlyph>
    <TTGlyph name="Ubreve" xMin="160" yMin="-34" xMax="1262" yMax="1885">
      <component glyphName="breve.cap" x="301" y="0" flags="0x1004"/>
      <component glyphName="U" x="0" y="0" flags="0x1204"/>
    </TTGlyph>
    <TTGlyph name="Ucircumflex" xMin="160" yMin="-34" xMax="1262" yMax="1766">
      <component glyphName="circumflex.cap" x="301" y="0" flags="0x1004"/>
      <component glyphName="U" x="0" y="0" flags="0x1204"/>
    </TTGlyph>
    <TTGlyph name="Udieresis" xMin="160" yMin="-34" xMax="1262" yMax="1786">
      <component glyphName="dieresis.cap" x="301" y="0" flags="0x1004"/>
      <component glyphName="U" x="0" y="0" flags="0x1204"/>
    </TTGlyph>
    <TTGlyph name="Ugrave" xMin="160" yMin="-34" xMax="1262" yMax="1785">
      <component glyphName="uni0300.cap" x="1130" y="0" flags="0x1004"/>
      <component glyphName="U" x="0" y="0" flags="0x1204"/>
    </TTGlyph>
    <TTGlyph name="Uhungarumlaut" xMin="160" yMin="-34" xMax="1262" yMax="1785">
      <component glyphName="hungarumlaut.cap" x="355" y="0" flags="0x1004"/>
      <component glyphName="U" x="0" y="0" flags="0x1204"/>
    </TTGlyph>
    <TTGlyph name="Umacron" xMin="160" yMin="-34" xMax="1262" yMax="1724">
      <component glyphName="uni0304.cap" x="1121" y="0" flags="0x1004"/>
      <component glyphName="U" x="0" y="0" flags="0x1204"/>
    </TTGlyph>
    <TTGlyph name="Uring" xMin="160" yMin="-34" xMax="1262" yMax="1885">
      <component glyphName="ring.cap" x="301" y="0" flags="0x1004"/>
      <component glyphName="U" x="0" y="0" flags="0x1204"/>
    </TTGlyph>
    <TTGlyph name="Utilde" xMin="160" yMin="-34" xMax="1262" yMax="1794">
      <component glyphName="tilde.cap" x="301" y="0" flags="0x1004"/>
      <component glyphName="U" x="0" y="0" flags="0x1204"/>
    </TTGlyph>
    <TTGlyph name="V" xMin="18" yMin="0" xMax="1352" yMax="1434">
      <contour>
        <pt x="43" y="1368" on="1"/>
        <pt x="18" y="1434" on="0"/>
        <pt x="90" y="1434" on="1"/>
        <pt x="249" y="1434" on="1"/>
        <pt x="316" y="1434" on="0"/>
        <pt x="341" y="1365" on="1"/>
        <pt x="647" y="530" on="1"/>
        <pt x="670" y="466" on="0"/>
        <pt x="678" y="423" on="0"/>
        <pt x="683" y="373" on="1"/>
        <pt x="687" y="373" on="1"/>
        <pt x="692" y="423" on="0"/>
        <pt x="700" y="466" on="0"/>
        <pt x="723" y="530" on="1"/>
        <pt x="1029" y="1365" on="1"/>
        <pt x="1054" y="1434" on="0"/>
        <pt x="1121" y="1434" on="1"/>
        <pt x="1280" y="1434" on="1"/>
        <pt x="1352" y="1434" on="0"/>
        <pt x="1327" y="1368" on="1"/>
        <pt x="849" y="81" on="1"/>
        <pt x="819" y="0" on="0"/>
        <pt x="755" y="0" on="1"/>
        <pt x="615" y="0" on="1"/>
        <pt x="551" y="0" on="0"/>
        <pt x="521" y="81" on="1"/>
      </contour>
    </TTGlyph>
    <TTGlyph name="W" xMin="23" yMin="0" xMax="1999" yMax="1434">
      <contour>
        <pt x="45" y="1354" on="1"/>
        <pt x="23" y="1434" on="0"/>
        <pt x="91" y="1434" on="1"/>
        <pt x="276" y="1434" on="1"/>
        <pt x="323" y="1434" on="0"/>
        <pt x="339" y="1368" on="1"/>
        <pt x="529" y="582" on="1"/>
        <pt x="550" y="496" on="0"/>
        <pt x="563" y="433" on="0"/>
        <pt x="568" y="363" on="1"/>
        <pt x="573" y="363" on="1"/>
        <pt x="578" y="433" on="0"/>
        <pt x="588" y="505" on="0"/>
        <pt x="612" y="588" on="1"/>
        <pt x="835" y="1360" on="1"/>
        <pt x="856" y="1434" on="0"/>
        <pt x="919" y="1434" on="1"/>
        <pt x="1103" y="1434" on="1"/>
        <pt x="1166" y="1434" on="0"/>
        <pt x="1187" y="1360" on="1"/>
        <pt x="1410" y="588" on="1"/>
        <pt x="1434" y="505" on="0"/>
        <pt x="1444" y="433" on="0"/>
        <pt x="1449" y="363" on="1"/>
        <pt x="1454" y="363" on="1"/>
        <pt x="1459" y="433" on="0"/>
        <pt x="1472" y="496" on="0"/>
        <pt x="1493" y="582" on="1"/>
        <pt x="1683" y="1368" on="1"/>
        <pt x="1699" y="1434" on="0"/>
        <pt x="1746" y="1434" on="1"/>
        <pt x="1931" y="1434" on="1"/>
        <pt x="1999" y="1434" on="0"/>
        <pt x="1977" y="1354" on="1"/>
        <pt x="1637" y="97" on="1"/>
        <pt x="1611" y="0" on="0"/>
        <pt x="1543" y="0" on="1"/>
        <pt x="1368" y="0" on="1"/>
        <pt x="1310" y="0" on="0"/>
        <pt x="1283" y="96" on="1"/>
        <pt x="1043" y="934" on="1"/>
        <pt x="1023" y="1002" on="0"/>
        <pt x="1017" y="1043" on="0"/>
        <pt x="1012" y="1099" on="1"/>
        <pt x="1010" y="1099" on="1"/>
        <pt x="1005" y="1043" on="0"/>
        <pt x="999" y="1002" on="0"/>
        <pt x="979" y="934" on="1"/>
        <pt x="739" y="96" on="1"/>
        <pt x="712" y="0" on="0"/>
        <pt x="654" y="0" on="1"/>
        <pt x="479" y="0" on="1"/>
        <pt x="411" y="0" on="0"/>
        <pt x="385" y="97" on="1"/>
      </contour>
    </TTGlyph>
    <TTGlyph name="Wacute" xMin="23" yMin="0" xMax="1999" yMax="1785">
      <component glyphName="uni0301.cap" x="1411" y="0" flags="0x1004"/>
      <component glyphName="W" x="0" y="0" flags="0x1204"/>
    </TTGlyph>
    <TTGlyph name="Wcircumflex" xMin="23" yMin="0" xMax="1999" yMax="1766">
      <component glyphName="circumflex.cap" x="600" y="0" flags="0x1004"/>
      <component glyphName="W" x="0" y="0" flags="0x1204"/>
    </TTGlyph>
    <TTGlyph name="Wdieresis" xMin="23" yMin="0" xMax="1999" yMax="1786">
      <component glyphName="dieresis.cap" x="600" y="0" flags="0x1004"/>
      <component glyphName="W" x="0" y="0" flags="0x1204"/>
    </TTGlyph>
    <TTGlyph name="Wgrave" xMin="23" yMin="0" xMax="1999" yMax="1785">
      <component glyphName="uni0300.cap" x="1429" y="0" flags="0x1004"/>
      <component glyphName="W" x="0" y="0" flags="0x1204"/>
    </TTGlyph>
    <TTGlyph name="X" xMin="12" yMin="0" xMax="1406" yMax="1434">
      <contour>
        <pt x="108" y="0" on="1"/>
        <pt x="12" y="0" on="0"/>
        <pt x="70" y="86" on="1"/>
        <pt x="513" y="740" on="1"/>
        <pt x="106" y="1348" on="1"/>
        <pt x="48" y="1434" on="0"/>
        <pt x="144" y="1434" on="1"/>
        <pt x="346" y="1434" on="1"/>
        <pt x="399" y="1434" on="0"/>
        <pt x="436" y="1375" on="1"/>
        <pt x="709" y="943" on="1"/>
        <pt x="982" y="1375" on="1"/>
        <pt x="1019" y="1434" on="0"/>
        <pt x="1072" y="1434" on="1"/>
        <pt x="1274" y="1434" on="1"/>
        <pt x="1370" y="1434" on="0"/>
        <pt x="1312" y="1348" on="1"/>
        <pt x="904" y="740" on="1"/>
        <pt x="1348" y="86" on="1"/>
        <pt x="1406" y="0" on="0"/>
        <pt x="1310" y="0" on="1"/>
        <pt x="1105" y="0" on="1"/>
        <pt x="1053" y="0" on="0"/>
        <pt x="1015" y="59" on="1"/>
        <pt x="709" y="537" on="1"/>
        <pt x="403" y="59" on="1"/>
        <pt x="365" y="0" on="0"/>
        <pt x="313" y="0" on="1"/>
      </contour>
    </TTGlyph>
    <TTGlyph name="Y" xMin="0" yMin="0" xMax="1368" yMax="1434">
      <contour>
        <pt x="51" y="1348" on="1"/>
        <pt x="0" y="1434" on="0"/>
        <pt x="98" y="1434" on="1"/>
        <pt x="273" y="1434" on="1"/>
        <pt x="325" y="1434" on="0"/>
        <pt x="365" y="1365" on="1"/>
        <pt x="578" y="994" on="1"/>
        <pt x="587" y="979" on="0"/>
        <pt x="675" y="822" on="0"/>
        <pt x="682" y="748" on="1"/>
        <pt x="686" y="748" on="1"/>
        <pt x="693" y="822" on="0"/>
        <pt x="781" y="979" on="0"/>
        <pt x="790" y="994" on="1"/>
        <pt x="1003" y="1365" on="1"/>
        <pt x="1043" y="1434" on="0"/>
        <pt x="1095" y="1434" on="1"/>
        <pt x="1270" y="1434" on="1"/>
        <pt x="1368" y="1434" on="0"/>
        <pt x="1317" y="1348" on="1"/>
        <pt x="830" y="525" on="1"/>
        <pt x="830" y="55" on="1"/>
        <pt x="830" y="0" on="0"/>
        <pt x="760" y="0" on="1"/>
        <pt x="608" y="0" on="1"/>
        <pt x="538" y="0" on="0"/>
        <pt x="538" y="55" on="1"/>
        <pt x="538" y="525" on="1"/>
      </contour>
    </TTGlyph>
    <TTGlyph name="Yacute" xMin="0" yMin="0" xMax="1368" yMax="1785">
      <component glyphName="uni0301.cap" x="1085" y="0" flags="0x1004"/>
      <component glyphName="Y" x="0" y="0" flags="0x1204"/>
    </TTGlyph>
    <TTGlyph name="Ycircumflex" xMin="0" yMin="0" xMax="1368" yMax="1766">
      <component glyphName="circumflex.cap" x="274" y="0" flags="0x1004"/>
      <component glyphName="Y" x="0" y="0" flags="0x1204"/>
    </TTGlyph>
    <TTGlyph name="Ydieresis" xMin="0" yMin="0" xMax="1368" yMax="1786">
      <component glyphName="dieresis.cap" x="274" y="0" flags="0x1004"/>
      <component glyphName="Y" x="0" y="0" flags="0x1204"/>
    </TTGlyph>
    <TTGlyph name="Ygrave" xMin="0" yMin="0" xMax="1368" yMax="1785">
      <component glyphName="uni0300.cap" x="1103" y="0" flags="0x1004"/>
      <component glyphName="Y" x="0" y="0" flags="0x1204"/>
    </TTGlyph>
    <TTGlyph name="Z" xMin="61" yMin="0" xMax="1191" yMax="1434">
      <contour>
        <pt x="136" y="0" on="1"/>
        <pt x="61" y="0" on="0"/>
        <pt x="61" y="65" on="1"/>
        <pt x="61" y="147" on="1"/>
        <pt x="61" y="216" on="0"/>
        <pt x="112" y="286" on="1"/>
        <pt x="762" y="1184" on="1"/>
        <pt x="762" y="1191" on="1"/>
        <pt x="702" y="1186" on="0"/>
        <pt x="642" y="1186" on="1"/>
        <pt x="176" y="1186" on="1"/>
        <pt x="101" y="1186" on="0"/>
        <pt x="101" y="1251" on="1"/>
        <pt x="101" y="1369" on="1"/>
        <pt x="101" y="1434" on="0"/>
        <pt x="176" y="1434" on="1"/>
        <pt x="1088" y="1434" on="1"/>
        <pt x="1163" y="1434" on="0"/>
        <pt x="1163" y="1369" on="1"/>
        <pt x="1163" y="1302" on="1"/>
        <pt x="1163" y="1249" on="0"/>
        <pt x="1128" y="1201" on="1"/>
        <pt x="438" y="250" on="1"/>
        <pt x="438" y="243" on="1"/>
        <pt x="498" y="248" on="0"/>
        <pt x="558" y="248" on="1"/>
        <pt x="1116" y="248" on="1"/>
        <pt x="1191" y="248" on="0"/>
        <pt x="1191" y="183" on="1"/>
        <pt x="1191" y="65" on="1"/>
        <pt x="1191" y="0" on="0"/>
        <pt x="1116" y="0" on="1"/>
      </contour>
    </TTGlyph>
    <TTGlyph name="Zacute" xMin="61" yMin="0" xMax="1191" yMax="1785">
      <component glyphName="uni0301.cap" x="1027" y="0" flags="0x1004"/>
      <component glyphName="Z" x="0" y="0" flags="0x1204"/>
    </TTGlyph>
    <TTGlyph name="Zcaron" xMin="61" yMin="0" xMax="1191" yMax="1784">
      <component glyphName="caron.cap" x="216" y="0" flags="0x1004"/>
      <component glyphName="Z" x="0" y="0" flags="0x1204"/>
    </TTGlyph>
    <TTGlyph name="Zdotaccent" xMin="61" yMin="0" xMax="1191" yMax="1790">
      <component glyphName="dotaccent.cap" x="216" y="0" flags="0x1004"/>
      <component glyphName="Z" x="0" y="0" flags="0x1204"/>
    </TTGlyph>
    <TTGlyph name="a" xMin="80" yMin="-20" xMax="987" yMax="1070">
      <contour>
        <pt x="80" y="280" on="1"/>
        <pt x="80" y="480" on="0"/>
        <pt x="462" y="660" on="0"/>
        <pt x="707" y="666" on="1"/>
        <pt x="707" y="706" on="1"/>
        <pt x="707" y="798" on="0"/>
        <pt x="615" y="874" on="0"/>
        <pt x="533" y="874" on="1"/>
        <pt x="475" y="874" on="0"/>
        <pt x="386" y="841" on="0"/>
        <pt x="321" y="798" on="0"/>
        <pt x="295" y="776" on="1"/>
        <pt x="249" y="736" on="0"/>
        <pt x="219" y="772" on="1"/>
        <pt x="136" y="874" on="1"/>
        <pt x="105" y="912" on="0"/>
        <pt x="151" y="952" on="1"/>
        <pt x="186" y="983" on="0"/>
        <pt x="279" y="1029" on="0"/>
        <pt x="433" y="1070" on="0"/>
        <pt x="556" y="1070" on="1"/>
        <pt x="764" y="1070" on="0"/>
        <pt x="987" y="878" on="0"/>
        <pt x="987" y="691" on="1"/>
        <pt x="987" y="60" on="1"/>
        <pt x="987" y="0" on="0"/>
        <pt x="927" y="0" on="1"/>
        <pt x="763" y="0" on="1"/>
        <pt x="709" y="0" on="0"/>
        <pt x="709" y="60" on="1"/>
        <pt x="709" y="90" on="1"/>
        <pt x="707" y="90" on="1"/>
        <pt x="648" y="33" on="0"/>
        <pt x="483" y="-20" on="0"/>
        <pt x="414" y="-20" on="1"/>
        <pt x="250" y="-20" on="0"/>
        <pt x="80" y="141" on="0"/>
      </contour>
      <contour>
        <pt x="376" y="286" on="1"/>
        <pt x="376" y="251" on="0"/>
        <pt x="404" y="200" on="0"/>
        <pt x="464" y="176" on="0"/>
        <pt x="501" y="176" on="1"/>
        <pt x="552" y="176" on="0"/>
        <pt x="648" y="204" on="0"/>
        <pt x="707" y="256" on="1"/>
        <pt x="707" y="473" on="1"/>
        <pt x="539" y="454" on="0"/>
        <pt x="425" y="394" on="0"/>
        <pt x="376" y="330" on="0"/>
      </contour>
    </TTGlyph>
    <TTGlyph name="aacute" xMin="80" yMin="-20" xMax="987" yMax="1435">
      <component glyphName="acutecomb" x="864" y="0" flags="0x1004"/>
      <component glyphName="a" x="0" y="0" flags="0x1204"/>
    </TTGlyph>
    <TTGlyph name="abreve" xMin="80" yMin="-20" xMax="987" yMax="1466">
      <component glyphName="uni0306" x="863" y="0" flags="0x1004"/>
      <component glyphName="a" x="0" y="0" flags="0x1204"/>
    </TTGlyph>
    <TTGlyph name="acircumflex" xMin="80" yMin="-20" xMax="987" yMax="1434">
      <component glyphName="uni0302" x="863" y="0" flags="0x1004"/>
      <component glyphName="a" x="0" y="0" flags="0x1204"/>
    </TTGlyph>
    <TTGlyph name="acute" xMin="117" yMin="1150" xMax="593" yMax="1435">
      <contour>
        <pt x="174" y="1150" on="1"/>
        <pt x="117" y="1150" on="0"/>
        <pt x="153" y="1209" on="1"/>
        <pt x="261" y="1388" on="1"/>
        <pt x="289" y="1435" on="0"/>
        <pt x="367" y="1435" on="1"/>
        <pt x="519" y="1435" on="1"/>
        <pt x="593" y="1435" on="0"/>
        <pt x="541" y="1376" on="1"/>
        <pt x="376" y="1187" on="1"/>
        <pt x="344" y="1150" on="0"/>
        <pt x="275" y="1150" on="1"/>
      </contour>
    </TTGlyph>
    <TTGlyph name="acute.cap" xMin="219" yMin="1540" xMax="724" yMax="1785">
      <contour>
        <pt x="286" y="1540" on="1"/>
        <pt x="219" y="1540" on="0"/>
        <pt x="261" y="1604" on="1"/>
        <pt x="349" y="1738" on="1"/>
        <pt x="380" y="1785" on="0"/>
        <pt x="458" y="1785" on="1"/>
        <pt x="634" y="1785" on="1"/>
        <pt x="724" y="1785" on="0"/>
        <pt x="658" y="1724" on="1"/>
        <pt x="500" y="1578" on="1"/>
        <pt x="459" y="1540" on="0"/>
        <pt x="389" y="1540" on="1"/>
      </contour>
    </TTGlyph>
    <TTGlyph name="acutecomb" xMin="-497" yMin="1150" xMax="-21" yMax="1435">
      <component glyphName="acute" x="-614" y="0" flags="0x1004"/>
    </TTGlyph>
    <TTGlyph name="adieresis" xMin="80" yMin="-20" xMax="987" yMax="1442">
      <component glyphName="a" x="0" y="0" flags="0x1204"/>
      <component glyphName="dieresis" x="251" y="0" flags="0x1004"/>
    </TTGlyph>
    <TTGlyph name="ae" xMin="80" yMin="-20" xMax="1683" yMax="1070">
      <contour>
        <pt x="80" y="280" on="1"/>
        <pt x="80" y="480" on="0"/>
        <pt x="457" y="660" on="0"/>
        <pt x="697" y="666" on="1"/>
        <pt x="697" y="706" on="1"/>
        <pt x="697" y="798" on="0"/>
        <pt x="605" y="874" on="0"/>
        <pt x="527" y="874" on="1"/>
        <pt x="469" y="874" on="0"/>
        <pt x="380" y="837" on="0"/>
        <pt x="320" y="798" on="0"/>
        <pt x="295" y="776" on="1"/>
        <pt x="249" y="736" on="0"/>
        <pt x="219" y="772" on="1"/>
        <pt x="136" y="874" on="1"/>
        <pt x="105" y="912" on="0"/>
        <pt x="151" y="952" on="1"/>
        <pt x="189" y="986" on="0"/>
        <pt x="289" y="1033" on="0"/>
        <pt x="436" y="1070" on="0"/>
        <pt x="552" y="1070" on="1"/>
        <pt x="636" y="1070" on="0"/>
        <pt x="797" y="1031" on="0"/>
        <pt x="859" y="976" on="1"/>
        <pt x="862" y="976" on="1"/>
        <pt x="912" y="1024" on="0"/>
        <pt x="1076" y="1070" on="0"/>
        <pt x="1160" y="1070" on="1"/>
        <pt x="1428" y="1070" on="0"/>
        <pt x="1683" y="794" on="0"/>
        <pt x="1683" y="488" on="1"/>
        <pt x="1683" y="428" on="0"/>
        <pt x="1627" y="428" on="1"/>
        <pt x="977" y="428" on="1"/>
        <pt x="988" y="280" on="0"/>
        <pt x="1120" y="176" on="0"/>
        <pt x="1202" y="176" on="1"/>
        <pt x="1270" y="176" on="0"/>
        <pt x="1378" y="218" on="0"/>
        <pt x="1410" y="258" on="1"/>
        <pt x="1446" y="303" on="0"/>
        <pt x="1494" y="272" on="1"/>
        <pt x="1587" y="211" on="1"/>
        <pt x="1645" y="173" on="0"/>
        <pt x="1604" y="125" on="1"/>
        <pt x="1543" y="52" on="0"/>
        <pt x="1384" y="-20" on="0"/>
        <pt x="1207" y="-20" on="1"/>
        <pt x="1044" y="-20" on="0"/>
        <pt x="842" y="58" on="0"/>
        <pt x="779" y="146" on="1"/>
        <pt x="777" y="146" on="1"/>
        <pt x="714" y="76" on="0"/>
        <pt x="518" y="-20" on="0"/>
        <pt x="424" y="-20" on="1"/>
        <pt x="246" y="-20" on="0"/>
        <pt x="80" y="141" on="0"/>
      </contour>
      <contour>
        <pt x="376" y="286" on="1"/>
        <pt x="376" y="256" on="0"/>
        <pt x="400" y="201" on="0"/>
        <pt x="462" y="176" on="0"/>
        <pt x="495" y="176" on="1"/>
        <pt x="543" y="176" on="0"/>
        <pt x="647" y="224" on="0"/>
        <pt x="710" y="284" on="1"/>
        <pt x="699" y="360" on="0"/>
        <pt x="697" y="473" on="1"/>
        <pt x="543" y="453" on="0"/>
        <pt x="429" y="398" on="0"/>
        <pt x="376" y="333" on="0"/>
      </contour>
      <contour>
        <pt x="977" y="628" on="1"/>
        <pt x="1403" y="628" on="1"/>
        <pt x="1403" y="736" on="0"/>
        <pt x="1300" y="873" on="0"/>
        <pt x="1182" y="873" on="1"/>
        <pt x="1088" y="873" on="0"/>
        <pt x="982" y="742" on="0"/>
      </contour>
    </TTGlyph>
    <TTGlyph name="aeacute" xMin="80" yMin="-20" xMax="1683" yMax="1435">
      <component glyphName="acutecomb" x="1158" y="0" flags="0x1004"/>
      <component glyphName="ae" x="0" y="0" flags="0x1204"/>
    </TTGlyph>
    <TTGlyph name="afii10017" xMin="18" yMin="0" xMax="1376" yMax="1434">
      <component glyphName="A" x="0" y="0" flags="0x1204"/>
    </TTGlyph>
    <TTGlyph name="afii10018" xMin="160" yMin="0" xMax="1275" yMax="1434">
      <contour>
        <pt x="230" y="0" on="1"/>
        <pt x="160" y="0" on="0"/>
        <pt x="160" y="75" on="1"/>
        <pt x="160" y="1359" on="1"/>
        <pt x="160" y="1434" on="0"/>
        <pt x="230" y="1434" on="1"/>
        <pt x="1079" y="1434" on="1"/>
        <pt x="1154" y="1434" on="0"/>
        <pt x="1154" y="1369" on="1"/>
        <pt x="1154" y="1251" on="1"/>
        <pt x="1154" y="1186" on="0"/>
        <pt x="1079" y="1186" on="1"/>
        <pt x="452" y="1186" on="1"/>
        <pt x="452" y="876" on="1"/>
        <pt x="617" y="876" on="1"/>
        <pt x="987" y="876" on="0"/>
        <pt x="1275" y="638" on="0"/>
        <pt x="1275" y="438" on="1"/>
        <pt x="1275" y="238" on="0"/>
        <pt x="987" y="0" on="0"/>
        <pt x="617" y="0" on="1"/>
      </contour>
      <contour>
        <pt x="452" y="244" on="1"/>
        <pt x="588" y="244" on="1"/>
        <pt x="798" y="244" on="0"/>
        <pt x="963" y="318" on="0"/>
        <pt x="963" y="438" on="1"/>
        <pt x="963" y="558" on="0"/>
        <pt x="798" y="632" on="0"/>
        <pt x="588" y="632" on="1"/>
        <pt x="452" y="632" on="1"/>
      </contour>
    </TTGlyph>
    <TTGlyph name="afii10019" xMin="160" yMin="0" xMax="1275" yMax="1434">
      <component glyphName="B" x="0" y="0" flags="0x1204"/>
    </TTGlyph>
    <TTGlyph name="afii10020" xMin="160" yMin="0" xMax="1084" yMax="1434">
      <contour>
        <pt x="230" y="0" on="1"/>
        <pt x="160" y="0" on="0"/>
        <pt x="160" y="75" on="1"/>
        <pt x="160" y="1359" on="1"/>
        <pt x="160" y="1434" on="0"/>
        <pt x="230" y="1434" on="1"/>
        <pt x="1009" y="1434" on="1"/>
        <pt x="1084" y="1434" on="0"/>
        <pt x="1084" y="1369" on="1"/>
        <pt x="1084" y="1251" on="1"/>
        <pt x="1084" y="1186" on="0"/>
        <pt x="1009" y="1186" on="1"/>
        <pt x="452" y="1186" on="1"/>
        <pt x="452" y="75" on="1"/>
        <pt x="452" y="0" on="0"/>
        <pt x="382" y="0" on="1"/>
      </contour>
    </TTGlyph>
    <TTGlyph name="afii10021" xMin="60" yMin="-370" xMax="1490" yMax="1434">
      <contour>
        <pt x="120" y="-370" on="1"/>
        <pt x="60" y="-370" on="0"/>
        <pt x="60" y="-300" on="1"/>
        <pt x="60" y="173" on="1"/>
        <pt x="60" y="248" on="0"/>
        <pt x="150" y="248" on="1"/>
        <pt x="193" y="248" on="1"/>
        <pt x="324" y="384" on="0"/>
        <pt x="420" y="716" on="0"/>
        <pt x="420" y="1100" on="1"/>
        <pt x="420" y="1359" on="1"/>
        <pt x="420" y="1434" on="0"/>
        <pt x="490" y="1434" on="1"/>
        <pt x="1230" y="1434" on="1"/>
        <pt x="1300" y="1434" on="0"/>
        <pt x="1300" y="1359" on="1"/>
        <pt x="1300" y="248" on="1"/>
        <pt x="1400" y="248" on="1"/>
        <pt x="1490" y="248" on="0"/>
        <pt x="1490" y="173" on="1"/>
        <pt x="1490" y="-300" on="1"/>
        <pt x="1490" y="-370" on="0"/>
        <pt x="1430" y="-370" on="1"/>
        <pt x="1300" y="-370" on="1"/>
        <pt x="1240" y="-370" on="0"/>
        <pt x="1240" y="-300" on="1"/>
        <pt x="1240" y="0" on="1"/>
        <pt x="310" y="0" on="1"/>
        <pt x="310" y="-300" on="1"/>
        <pt x="310" y="-370" on="0"/>
        <pt x="250" y="-370" on="1"/>
      </contour>
      <contour>
        <pt x="489" y="248" on="1"/>
        <pt x="1008" y="248" on="1"/>
        <pt x="1008" y="1186" on="1"/>
        <pt x="670" y="1186" on="1"/>
        <pt x="670" y="1044" on="1"/>
        <pt x="670" y="688" on="0"/>
        <pt x="568" y="304" on="0"/>
      </contour>
    </TTGlyph>
    <TTGlyph name="afii10022" xMin="160" yMin="0" xMax="1195" yMax="1434">
      <component glyphName="E" x="0" y="0" flags="0x1204"/>
    </TTGlyph>
    <TTGlyph name="afii10023" xMin="160" yMin="0" xMax="1195" yMax="1786">
      <component glyphName="Edieresis" x="0" y="0" flags="0x1204"/>
    </TTGlyph>
    <TTGlyph name="afii10024" xMin="5" yMin="0" xMax="2035" yMax="1434">
      <contour>
        <pt x="96" y="0" on="1"/>
        <pt x="5" y="0" on="0"/>
        <pt x="58" y="86" on="1"/>
        <pt x="299" y="480" on="1"/>
        <pt x="370" y="596" on="0"/>
        <pt x="497" y="705" on="0"/>
        <pt x="573" y="734" on="1"/>
        <pt x="573" y="735" on="1"/>
        <pt x="516" y="765" on="0"/>
        <pt x="392" y="896" on="0"/>
        <pt x="353" y="954" on="1"/>
        <pt x="89" y="1348" on="1"/>
        <pt x="31" y="1434" on="0"/>
        <pt x="127" y="1434" on="1"/>
        <pt x="304" y="1434" on="1"/>
        <pt x="357" y="1434" on="0"/>
        <pt x="394" y="1375" on="1"/>
        <pt x="599" y="1050" on="1"/>
        <pt x="651" y="968" on="0"/>
        <pt x="794" y="855" on="0"/>
        <pt x="851" y="855" on="1"/>
        <pt x="874" y="855" on="1"/>
        <pt x="874" y="1359" on="1"/>
        <pt x="874" y="1434" on="0"/>
        <pt x="944" y="1434" on="1"/>
        <pt x="1096" y="1434" on="1"/>
        <pt x="1166" y="1434" on="0"/>
        <pt x="1166" y="1359" on="1"/>
        <pt x="1166" y="855" on="1"/>
        <pt x="1189" y="855" on="1"/>
        <pt x="1246" y="855" on="0"/>
        <pt x="1389" y="968" on="0"/>
        <pt x="1441" y="1050" on="1"/>
        <pt x="1646" y="1375" on="1"/>
        <pt x="1683" y="1434" on="0"/>
        <pt x="1736" y="1434" on="1"/>
        <pt x="1913" y="1434" on="1"/>
        <pt x="2009" y="1434" on="0"/>
        <pt x="1951" y="1348" on="1"/>
        <pt x="1687" y="954" on="1"/>
        <pt x="1648" y="896" on="0"/>
        <pt x="1524" y="765" on="0"/>
        <pt x="1467" y="735" on="1"/>
        <pt x="1467" y="734" on="1"/>
        <pt x="1543" y="705" on="0"/>
        <pt x="1670" y="596" on="0"/>
        <pt x="1741" y="480" on="1"/>
        <pt x="1982" y="86" on="1"/>
        <pt x="2035" y="0" on="0"/>
        <pt x="1944" y="0" on="1"/>
        <pt x="1757" y="0" on="1"/>
        <pt x="1700" y="0" on="0"/>
        <pt x="1667" y="59" on="1"/>
        <pt x="1483" y="384" on="1"/>
        <pt x="1431" y="476" on="0"/>
        <pt x="1267" y="611" on="0"/>
        <pt x="1204" y="611" on="1"/>
        <pt x="1166" y="611" on="1"/>
        <pt x="1166" y="75" on="1"/>
        <pt x="1166" y="0" on="0"/>
        <pt x="1096" y="0" on="1"/>
        <pt x="944" y="0" on="1"/>
        <pt x="874" y="0" on="0"/>
        <pt x="874" y="75" on="1"/>
        <pt x="874" y="611" on="1"/>
        <pt x="836" y="611" on="1"/>
        <pt x="773" y="611" on="0"/>
        <pt x="609" y="476" on="0"/>
        <pt x="557" y="384" on="1"/>
        <pt x="373" y="59" on="1"/>
        <pt x="340" y="0" on="0"/>
        <pt x="283" y="0" on="1"/>
      </contour>
    </TTGlyph>
    <TTGlyph name="afii10025" xMin="74" yMin="-34" xMax="1250" yMax="1468">
      <contour>
        <pt x="124" y="150" on="1"/>
        <pt x="74" y="207" on="0"/>
        <pt x="115" y="249" on="1"/>
        <pt x="211" y="348" on="1"/>
        <pt x="253" y="392" on="0"/>
        <pt x="321" y="331" on="1"/>
        <pt x="369" y="288" on="0"/>
        <pt x="519" y="202" on="0"/>
        <pt x="642" y="202" on="1"/>
        <pt x="759" y="202" on="0"/>
        <pt x="938" y="288" on="0"/>
        <pt x="938" y="414" on="1"/>
        <pt x="938" y="540" on="0"/>
        <pt x="789" y="636" on="0"/>
        <pt x="666" y="636" on="1"/>
        <pt x="500" y="636" on="1"/>
        <pt x="425" y="636" on="0"/>
        <pt x="425" y="699" on="1"/>
        <pt x="425" y="807" on="1"/>
        <pt x="425" y="872" on="0"/>
        <pt x="500" y="872" on="1"/>
        <pt x="624" y="872" on="1"/>
        <pt x="793" y="872" on="0"/>
        <pt x="903" y="978" on="0"/>
        <pt x="903" y="1062" on="1"/>
        <pt x="903" y="1149" on="0"/>
        <pt x="778" y="1232" on="0"/>
        <pt x="642" y="1232" on="1"/>
        <pt x="537" y="1232" on="0"/>
        <pt x="380" y="1167" on="0"/>
        <pt x="341" y="1131" on="1"/>
        <pt x="276" y="1072" on="0"/>
        <pt x="230" y="1122" on="1"/>
        <pt x="147" y="1213" on="1"/>
        <pt x="100" y="1264" on="0"/>
        <pt x="160" y="1313" on="1"/>
        <pt x="267" y="1401" on="0"/>
        <pt x="504" y="1468" on="0"/>
        <pt x="652" y="1468" on="1"/>
        <pt x="922" y="1468" on="0"/>
        <pt x="1199" y="1260" on="0"/>
        <pt x="1199" y="1092" on="1"/>
        <pt x="1199" y="948" on="0"/>
        <pt x="1044" y="795" on="0"/>
        <pt x="931" y="767" on="1"/>
        <pt x="931" y="763" on="1"/>
        <pt x="1056" y="750" on="0"/>
        <pt x="1250" y="552" on="0"/>
        <pt x="1250" y="397" on="1"/>
        <pt x="1250" y="195" on="0"/>
        <pt x="927" y="-34" on="0"/>
        <pt x="637" y="-34" on="1"/>
        <pt x="431" y="-34" on="0"/>
        <pt x="200" y="63" on="0"/>
      </contour>
    </TTGlyph>
    <TTGlyph name="afii10026" xMin="160" yMin="0" xMax="1332" yMax="1434">
      <contour>
        <pt x="230" y="0" on="1"/>
        <pt x="160" y="0" on="0"/>
        <pt x="160" y="75" on="1"/>
        <pt x="160" y="1359" on="1"/>
        <pt x="160" y="1434" on="0"/>
        <pt x="230" y="1434" on="1"/>
        <pt x="382" y="1434" on="1"/>
        <pt x="452" y="1434" on="0"/>
        <pt x="452" y="1359" on="1"/>
        <pt x="452" y="570" on="1"/>
        <pt x="452" y="510" on="0"/>
        <pt x="447" y="450" on="1"/>
        <pt x="454" y="450" on="1"/>
        <pt x="944" y="1364" on="1"/>
        <pt x="982" y="1434" on="0"/>
        <pt x="1074" y="1434" on="1"/>
        <pt x="1262" y="1434" on="1"/>
        <pt x="1332" y="1434" on="0"/>
        <pt x="1332" y="1359" on="1"/>
        <pt x="1332" y="75" on="1"/>
        <pt x="1332" y="0" on="0"/>
        <pt x="1262" y="0" on="1"/>
        <pt x="1110" y="0" on="1"/>
        <pt x="1040" y="0" on="0"/>
        <pt x="1040" y="75" on="1"/>
        <pt x="1040" y="864" on="1"/>
        <pt x="1040" y="924" on="0"/>
        <pt x="1045" y="984" on="1"/>
        <pt x="1038" y="984" on="1"/>
        <pt x="548" y="70" on="1"/>
        <pt x="510" y="0" on="0"/>
        <pt x="418" y="0" on="1"/>
      </contour>
    </TTGlyph>
    <TTGlyph name="afii10027" xMin="160" yMin="0" xMax="1332" yMax="1877">
      <component glyphName="afii10026" x="0" y="0" flags="0x1204"/>
      <component glyphName="cyrBreve" x="0" y="0" flags="0x1004"/>
    </TTGlyph>
    <TTGlyph name="afii10028" xMin="160" yMin="0" xMax="1344" yMax="1434">
      <contour>
        <pt x="230" y="0" on="1"/>
        <pt x="160" y="0" on="0"/>
        <pt x="160" y="75" on="1"/>
        <pt x="160" y="1359" on="1"/>
        <pt x="160" y="1434" on="0"/>
        <pt x="230" y="1434" on="1"/>
        <pt x="382" y="1434" on="1"/>
        <pt x="452" y="1434" on="0"/>
        <pt x="452" y="1359" on="1"/>
        <pt x="452" y="855" on="1"/>
        <pt x="482" y="855" on="1"/>
        <pt x="549" y="855" on="0"/>
        <pt x="691" y="967" on="0"/>
        <pt x="744" y="1050" on="1"/>
        <pt x="954" y="1375" on="1"/>
        <pt x="992" y="1434" on="0"/>
        <pt x="1044" y="1434" on="1"/>
        <pt x="1221" y="1434" on="1"/>
        <pt x="1318" y="1434" on="0"/>
        <pt x="1259" y="1348" on="1"/>
        <pt x="990" y="954" on="1"/>
        <pt x="940" y="881" on="0"/>
        <pt x="843" y="783" on="0"/>
        <pt x="770" y="735" on="1"/>
        <pt x="770" y="734" on="1"/>
        <pt x="846" y="705" on="0"/>
        <pt x="970" y="598" on="0"/>
        <pt x="1044" y="480" on="1"/>
        <pt x="1290" y="86" on="1"/>
        <pt x="1344" y="0" on="0"/>
        <pt x="1252" y="0" on="1"/>
        <pt x="1065" y="0" on="1"/>
        <pt x="1009" y="0" on="0"/>
        <pt x="975" y="59" on="1"/>
        <pt x="786" y="384" on="1"/>
        <pt x="733" y="476" on="0"/>
        <pt x="570" y="611" on="0"/>
        <pt x="497" y="611" on="1"/>
        <pt x="452" y="611" on="1"/>
        <pt x="452" y="75" on="1"/>
        <pt x="452" y="0" on="0"/>
        <pt x="382" y="0" on="1"/>
      </contour>
    </TTGlyph>
    <TTGlyph name="afii10029" xMin="26" yMin="-34" xMax="1334" yMax="1434">
      <contour>
        <pt x="68" y="-10" on="1"/>
        <pt x="26" y="4" on="0"/>
        <pt x="38" y="58" on="1"/>
        <pt x="64" y="172" on="1"/>
        <pt x="76" y="225" on="0"/>
        <pt x="127" y="210" on="1"/>
        <pt x="155" y="202" on="0"/>
        <pt x="185" y="202" on="1"/>
        <pt x="338" y="202" on="0"/>
        <pt x="454" y="639" on="0"/>
        <pt x="454" y="1090" on="1"/>
        <pt x="454" y="1359" on="1"/>
        <pt x="454" y="1434" on="0"/>
        <pt x="524" y="1434" on="1"/>
        <pt x="1264" y="1434" on="1"/>
        <pt x="1334" y="1434" on="0"/>
        <pt x="1334" y="1359" on="1"/>
        <pt x="1334" y="75" on="1"/>
        <pt x="1334" y="0" on="0"/>
        <pt x="1264" y="0" on="1"/>
        <pt x="1112" y="0" on="1"/>
        <pt x="1042" y="0" on="0"/>
        <pt x="1042" y="75" on="1"/>
        <pt x="1042" y="1186" on="1"/>
        <pt x="704" y="1186" on="1"/>
        <pt x="704" y="1034" on="1"/>
        <pt x="704" y="439" on="0"/>
        <pt x="470" y="-34" on="0"/>
        <pt x="208" y="-34" on="1"/>
        <pt x="142" y="-34" on="0"/>
      </contour>
    </TTGlyph>
    <TTGlyph name="afii10030" xMin="160" yMin="0" xMax="1668" yMax="1434">
      <component glyphName="M" x="0" y="0" flags="0x1204"/>
    </TTGlyph>
    <TTGlyph name="afii10031" xMin="160" yMin="0" xMax="1282" yMax="1434">
      <component glyphName="H" x="0" y="0" flags="0x1204"/>
    </TTGlyph>
    <TTGlyph name="afii10032" xMin="86" yMin="-34" xMax="1458" yMax="1468">
      <component glyphName="O" x="0" y="0" flags="0x1204"/>
    </TTGlyph>
    <TTGlyph name="afii10033" xMin="160" yMin="0" xMax="1276" yMax="1434">
      <contour>
        <pt x="230" y="0" on="1"/>
        <pt x="160" y="0" on="0"/>
        <pt x="160" y="75" on="1"/>
        <pt x="160" y="1359" on="1"/>
        <pt x="160" y="1434" on="0"/>
        <pt x="230" y="1434" on="1"/>
        <pt x="1206" y="1434" on="1"/>
        <pt x="1276" y="1434" on="0"/>
        <pt x="1276" y="1359" on="1"/>
        <pt x="1276" y="75" on="1"/>
        <pt x="1276" y="0" on="0"/>
        <pt x="1206" y="0" on="1"/>
        <pt x="1054" y="0" on="1"/>
        <pt x="984" y="0" on="0"/>
        <pt x="984" y="75" on="1"/>
        <pt x="984" y="1186" on="1"/>
        <pt x="452" y="1186" on="1"/>
        <pt x="452" y="75" on="1"/>
        <pt x="452" y="0" on="0"/>
        <pt x="382" y="0" on="1"/>
      </contour>
    </TTGlyph>
    <TTGlyph name="afii10034" xMin="160" yMin="0" xMax="1243" yMax="1434">
      <component glyphName="P" x="0" y="0" flags="0x1204"/>
    </TTGlyph>
    <TTGlyph name="afii10035" xMin="86" yMin="-34" xMax="1347" yMax="1468">
      <component glyphName="C" x="0" y="0" flags="0x1204"/>
    </TTGlyph>
    <TTGlyph name="afii10036" xMin="34" yMin="0" xMax="1212" yMax="1434">
      <component glyphName="T" x="0" y="0" flags="0x1204"/>
    </TTGlyph>
    <TTGlyph name="afii10037" xMin="17" yMin="-34" xMax="1367" yMax="1434">
      <contour>
        <pt x="62" y="1348" on="1"/>
        <pt x="17" y="1434" on="0"/>
        <pt x="109" y="1434" on="1"/>
        <pt x="286" y="1434" on="1"/>
        <pt x="344" y="1434" on="0"/>
        <pt x="378" y="1365" on="1"/>
        <pt x="676" y="754" on="1"/>
        <pt x="705" y="695" on="0"/>
        <pt x="735" y="579" on="0"/>
        <pt x="743" y="524" on="1"/>
        <pt x="747" y="524" on="1"/>
        <pt x="756" y="582" on="0"/>
        <pt x="780" y="697" on="0"/>
        <pt x="800" y="754" on="1"/>
        <pt x="1021" y="1365" on="1"/>
        <pt x="1046" y="1434" on="0"/>
        <pt x="1113" y="1434" on="1"/>
        <pt x="1285" y="1434" on="1"/>
        <pt x="1367" y="1434" on="0"/>
        <pt x="1332" y="1348" on="1"/>
        <pt x="915" y="331" on="1"/>
        <pt x="824" y="109" on="0"/>
        <pt x="630" y="-34" on="0"/>
        <pt x="452" y="-34" on="1"/>
        <pt x="323" y="-34" on="0"/>
        <pt x="245" y="0" on="1"/>
        <pt x="184" y="27" on="0"/>
        <pt x="199" y="78" on="1"/>
        <pt x="236" y="207" on="1"/>
        <pt x="249" y="252" on="0"/>
        <pt x="310" y="227" on="1"/>
        <pt x="372" y="202" on="0"/>
        <pt x="419" y="202" on="1"/>
        <pt x="477" y="202" on="0"/>
        <pt x="565" y="234" on="0"/>
        <pt x="589" y="291" on="1"/>
        <pt x="603" y="324" on="1"/>
      </contour>
    </TTGlyph>
    <TTGlyph name="afii10038" xMin="86" yMin="-15" xMax="1772" yMax="1442">
      <contour>
        <pt x="86" y="730" on="1"/>
        <pt x="86" y="1000" on="0"/>
        <pt x="430" y="1300" on="0"/>
        <pt x="740" y="1300" on="1"/>
        <pt x="783" y="1300" on="1"/>
        <pt x="783" y="1367" on="1"/>
        <pt x="783" y="1442" on="0"/>
        <pt x="853" y="1442" on="1"/>
        <pt x="1005" y="1442" on="1"/>
        <pt x="1075" y="1442" on="0"/>
        <pt x="1075" y="1367" on="1"/>
        <pt x="1075" y="1300" on="1"/>
        <pt x="1118" y="1300" on="1"/>
        <pt x="1428" y="1300" on="0"/>
        <pt x="1772" y="1000" on="0"/>
        <pt x="1772" y="730" on="1"/>
        <pt x="1772" y="460" on="0"/>
        <pt x="1428" y="160" on="0"/>
        <pt x="1118" y="160" on="1"/>
        <pt x="1075" y="160" on="1"/>
        <pt x="1075" y="60" on="1"/>
        <pt x="1075" y="-15" on="0"/>
        <pt x="1005" y="-15" on="1"/>
        <pt x="853" y="-15" on="1"/>
        <pt x="783" y="-15" on="0"/>
        <pt x="783" y="60" on="1"/>
        <pt x="783" y="160" on="1"/>
        <pt x="740" y="160" on="1"/>
        <pt x="430" y="160" on="0"/>
        <pt x="86" y="460" on="0"/>
      </contour>
      <contour>
        <pt x="388" y="730" on="1"/>
        <pt x="388" y="575" on="0"/>
        <pt x="548" y="390" on="0"/>
        <pt x="753" y="390" on="1"/>
        <pt x="783" y="390" on="1"/>
        <pt x="783" y="1070" on="1"/>
        <pt x="753" y="1070" on="1"/>
        <pt x="548" y="1070" on="0"/>
        <pt x="388" y="885" on="0"/>
      </contour>
      <contour>
        <pt x="1075" y="390" on="1"/>
        <pt x="1105" y="390" on="1"/>
        <pt x="1310" y="390" on="0"/>
        <pt x="1470" y="575" on="0"/>
        <pt x="1470" y="730" on="1"/>
        <pt x="1470" y="885" on="0"/>
        <pt x="1310" y="1070" on="0"/>
        <pt x="1105" y="1070" on="1"/>
        <pt x="1075" y="1070" on="1"/>
      </contour>
    </TTGlyph>
    <TTGlyph name="afii10039" xMin="12" yMin="0" xMax="1406" yMax="1434">
      <component glyphName="X" x="0" y="0" flags="0x1204"/>
    </TTGlyph>
    <TTGlyph name="afii10040" xMin="160" yMin="-370" xMax="1462" yMax="1434">
      <contour>
        <pt x="230" y="0" on="1"/>
        <pt x="160" y="0" on="0"/>
        <pt x="160" y="75" on="1"/>
        <pt x="160" y="1359" on="1"/>
        <pt x="160" y="1434" on="0"/>
        <pt x="230" y="1434" on="1"/>
        <pt x="382" y="1434" on="1"/>
        <pt x="452" y="1434" on="0"/>
        <pt x="452" y="1359" on="1"/>
        <pt x="452" y="248" on="1"/>
        <pt x="978" y="248" on="1"/>
        <pt x="978" y="1359" on="1"/>
        <pt x="978" y="1434" on="0"/>
        <pt x="1048" y="1434" on="1"/>
        <pt x="1200" y="1434" on="1"/>
        <pt x="1270" y="1434" on="0"/>
        <pt x="1270" y="1359" on="1"/>
        <pt x="1270" y="248" on="1"/>
        <pt x="1392" y="248" on="1"/>
        <pt x="1462" y="248" on="0"/>
        <pt x="1462" y="173" on="1"/>
        <pt x="1462" y="-300" on="1"/>
        <pt x="1462" y="-370" on="0"/>
        <pt x="1402" y="-370" on="1"/>
        <pt x="1272" y="-370" on="1"/>
        <pt x="1212" y="-370" on="0"/>
        <pt x="1212" y="-300" on="1"/>
        <pt x="1212" y="0" on="1"/>
      </contour>
    </TTGlyph>
    <TTGlyph name="afii10041" xMin="112" yMin="0" xMax="1148" yMax="1434">
      <contour>
        <pt x="112" y="932" on="1"/>
        <pt x="112" y="1359" on="1"/>
        <pt x="112" y="1434" on="0"/>
        <pt x="182" y="1434" on="1"/>
        <pt x="334" y="1434" on="1"/>
        <pt x="404" y="1434" on="0"/>
        <pt x="404" y="1359" on="1"/>
        <pt x="404" y="980" on="1"/>
        <pt x="404" y="858" on="0"/>
        <pt x="492" y="760" on="0"/>
        <pt x="569" y="760" on="1"/>
        <pt x="641" y="760" on="0"/>
        <pt x="768" y="786" on="0"/>
        <pt x="856" y="827" on="1"/>
        <pt x="856" y="1359" on="1"/>
        <pt x="856" y="1434" on="0"/>
        <pt x="926" y="1434" on="1"/>
        <pt x="1078" y="1434" on="1"/>
        <pt x="1148" y="1434" on="0"/>
        <pt x="1148" y="1359" on="1"/>
        <pt x="1148" y="75" on="1"/>
        <pt x="1148" y="0" on="0"/>
        <pt x="1078" y="0" on="1"/>
        <pt x="926" y="0" on="1"/>
        <pt x="856" y="0" on="0"/>
        <pt x="856" y="75" on="1"/>
        <pt x="856" y="491" on="1"/>
        <pt x="856" y="551" on="0"/>
        <pt x="861" y="611" on="1"/>
        <pt x="854" y="611" on="1"/>
        <pt x="782" y="574" on="0"/>
        <pt x="580" y="524" on="0"/>
        <pt x="495" y="524" on="1"/>
        <pt x="320" y="524" on="0"/>
        <pt x="112" y="768" on="0"/>
      </contour>
    </TTGlyph>
    <TTGlyph name="afii10042" xMin="160" yMin="0" xMax="1980" yMax="1434">
      <contour>
        <pt x="230" y="0" on="1"/>
        <pt x="160" y="0" on="0"/>
        <pt x="160" y="75" on="1"/>
        <pt x="160" y="1359" on="1"/>
        <pt x="160" y="1434" on="0"/>
        <pt x="230" y="1434" on="1"/>
        <pt x="382" y="1434" on="1"/>
        <pt x="452" y="1434" on="0"/>
        <pt x="452" y="1359" on="1"/>
        <pt x="452" y="248" on="1"/>
        <pt x="924" y="248" on="1"/>
        <pt x="924" y="1359" on="1"/>
        <pt x="924" y="1434" on="0"/>
        <pt x="994" y="1434" on="1"/>
        <pt x="1146" y="1434" on="1"/>
        <pt x="1216" y="1434" on="0"/>
        <pt x="1216" y="1359" on="1"/>
        <pt x="1216" y="248" on="1"/>
        <pt x="1688" y="248" on="1"/>
        <pt x="1688" y="1359" on="1"/>
        <pt x="1688" y="1434" on="0"/>
        <pt x="1758" y="1434" on="1"/>
        <pt x="1910" y="1434" on="1"/>
        <pt x="1980" y="1434" on="0"/>
        <pt x="1980" y="1359" on="1"/>
        <pt x="1980" y="75" on="1"/>
        <pt x="1980" y="0" on="0"/>
        <pt x="1910" y="0" on="1"/>
      </contour>
    </TTGlyph>
    <TTGlyph name="afii10043" xMin="160" yMin="-370" xMax="2172" yMax="1434">
      <contour>
        <pt x="230" y="0" on="1"/>
        <pt x="160" y="0" on="0"/>
        <pt x="160" y="75" on="1"/>
        <pt x="160" y="1359" on="1"/>
        <pt x="160" y="1434" on="0"/>
        <pt x="230" y="1434" on="1"/>
        <pt x="382" y="1434" on="1"/>
        <pt x="452" y="1434" on="0"/>
        <pt x="452" y="1359" on="1"/>
        <pt x="452" y="248" on="1"/>
        <pt x="924" y="248" on="1"/>
        <pt x="924" y="1359" on="1"/>
        <pt x="924" y="1434" on="0"/>
        <pt x="994" y="1434" on="1"/>
        <pt x="1146" y="1434" on="1"/>
        <pt x="1216" y="1434" on="0"/>
        <pt x="1216" y="1359" on="1"/>
        <pt x="1216" y="248" on="1"/>
        <pt x="1688" y="248" on="1"/>
        <pt x="1688" y="1359" on="1"/>
        <pt x="1688" y="1434" on="0"/>
        <pt x="1758" y="1434" on="1"/>
        <pt x="1910" y="1434" on="1"/>
        <pt x="1980" y="1434" on="0"/>
        <pt x="1980" y="1359" on="1"/>
        <pt x="1980" y="248" on="1"/>
        <pt x="2102" y="248" on="1"/>
        <pt x="2172" y="248" on="0"/>
        <pt x="2172" y="173" on="1"/>
        <pt x="2172" y="-300" on="1"/>
        <pt x="2172" y="-370" on="0"/>
        <pt x="2112" y="-370" on="1"/>
        <pt x="1982" y="-370" on="1"/>
        <pt x="1922" y="-370" on="0"/>
        <pt x="1922" y="-300" on="1"/>
        <pt x="1922" y="0" on="1"/>
      </contour>
    </TTGlyph>
    <TTGlyph name="afii10044" xMin="34" yMin="0" xMax="1661" yMax="1434">
      <contour>
        <pt x="109" y="1186" on="1"/>
        <pt x="34" y="1186" on="0"/>
        <pt x="34" y="1251" on="1"/>
        <pt x="34" y="1369" on="1"/>
        <pt x="34" y="1434" on="0"/>
        <pt x="109" y="1434" on="1"/>
        <pt x="778" y="1434" on="1"/>
        <pt x="848" y="1434" on="0"/>
        <pt x="848" y="1359" on="1"/>
        <pt x="848" y="870" on="1"/>
        <pt x="1003" y="870" on="1"/>
        <pt x="1373" y="870" on="0"/>
        <pt x="1661" y="635" on="0"/>
        <pt x="1661" y="435" on="1"/>
        <pt x="1661" y="235" on="0"/>
        <pt x="1373" y="0" on="0"/>
        <pt x="1003" y="0" on="1"/>
        <pt x="626" y="0" on="1"/>
        <pt x="556" y="0" on="0"/>
        <pt x="556" y="75" on="1"/>
        <pt x="556" y="1186" on="1"/>
      </contour>
      <contour>
        <pt x="848" y="244" on="1"/>
        <pt x="974" y="244" on="1"/>
        <pt x="1184" y="244" on="0"/>
        <pt x="1349" y="315" on="0"/>
        <pt x="1349" y="435" on="1"/>
        <pt x="1349" y="555" on="0"/>
        <pt x="1184" y="626" on="0"/>
        <pt x="974" y="626" on="1"/>
        <pt x="848" y="626" on="1"/>
      </contour>
    </TTGlyph>
    <TTGlyph name="afii10045" xMin="160" yMin="0" xMax="1710" yMax="1434">
      <component glyphName="I" x="1258" y="0" flags="0x1004"/>
      <component glyphName="afii10046" x="0" y="0" flags="0x1004"/>
    </TTGlyph>
    <TTGlyph name="afii10046" xMin="160" yMin="0" xMax="1265" yMax="1434">
      <contour>
        <pt x="230" y="0" on="1"/>
        <pt x="160" y="0" on="0"/>
        <pt x="160" y="75" on="1"/>
        <pt x="160" y="1359" on="1"/>
        <pt x="160" y="1434" on="0"/>
        <pt x="230" y="1434" on="1"/>
        <pt x="382" y="1434" on="1"/>
        <pt x="452" y="1434" on="0"/>
        <pt x="452" y="1359" on="1"/>
        <pt x="452" y="870" on="1"/>
        <pt x="607" y="870" on="1"/>
        <pt x="977" y="870" on="0"/>
        <pt x="1265" y="635" on="0"/>
        <pt x="1265" y="435" on="1"/>
        <pt x="1265" y="235" on="0"/>
        <pt x="977" y="0" on="0"/>
        <pt x="607" y="0" on="1"/>
      </contour>
      <contour>
        <pt x="452" y="244" on="1"/>
        <pt x="578" y="244" on="1"/>
        <pt x="788" y="244" on="0"/>
        <pt x="953" y="315" on="0"/>
        <pt x="953" y="435" on="1"/>
        <pt x="953" y="555" on="0"/>
        <pt x="788" y="626" on="0"/>
        <pt x="578" y="626" on="1"/>
        <pt x="452" y="626" on="1"/>
      </contour>
    </TTGlyph>
    <TTGlyph name="afii10047" xMin="71" yMin="-34" xMax="1332" yMax="1468">
      <contour>
        <pt x="119" y="161" on="1"/>
        <pt x="71" y="222" on="0"/>
        <pt x="115" y="261" on="1"/>
        <pt x="222" y="357" on="1"/>
        <pt x="272" y="401" on="0"/>
        <pt x="331" y="334" on="1"/>
        <pt x="367" y="292" on="0"/>
        <pt x="516" y="202" on="0"/>
        <pt x="642" y="202" on="1"/>
        <pt x="852" y="202" on="0"/>
        <pt x="1001" y="424" on="0"/>
        <pt x="1014" y="622" on="1"/>
        <pt x="479" y="622" on="1"/>
        <pt x="404" y="622" on="0"/>
        <pt x="404" y="687" on="1"/>
        <pt x="404" y="805" on="1"/>
        <pt x="404" y="870" on="0"/>
        <pt x="479" y="870" on="1"/>
        <pt x="1012" y="870" on="1"/>
        <pt x="994" y="1027" on="0"/>
        <pt x="852" y="1232" on="0"/>
        <pt x="642" y="1232" on="1"/>
        <pt x="540" y="1232" on="0"/>
        <pt x="384" y="1165" on="0"/>
        <pt x="348" y="1126" on="1"/>
        <pt x="288" y="1061" on="0"/>
        <pt x="238" y="1107" on="1"/>
        <pt x="147" y="1190" on="1"/>
        <pt x="98" y="1234" on="0"/>
        <pt x="152" y="1291" on="1"/>
        <pt x="248" y="1392" on="0"/>
        <pt x="472" y="1468" on="0"/>
        <pt x="652" y="1468" on="1"/>
        <pt x="982" y="1468" on="0"/>
        <pt x="1332" y="1095" on="0"/>
        <pt x="1332" y="717" on="1"/>
        <pt x="1332" y="339" on="0"/>
        <pt x="977" y="-34" on="0"/>
        <pt x="652" y="-34" on="1"/>
        <pt x="428" y="-34" on="0"/>
        <pt x="190" y="70" on="0"/>
      </contour>
    </TTGlyph>
    <TTGlyph name="afii10048" xMin="160" yMin="-34" xMax="2010" yMax="1468">
      <contour>
        <pt x="230" y="0" on="1"/>
        <pt x="160" y="0" on="0"/>
        <pt x="160" y="75" on="1"/>
        <pt x="160" y="1359" on="1"/>
        <pt x="160" y="1434" on="0"/>
        <pt x="230" y="1434" on="1"/>
        <pt x="382" y="1434" on="1"/>
        <pt x="452" y="1434" on="0"/>
        <pt x="452" y="1359" on="1"/>
        <pt x="452" y="870" on="1"/>
        <pt x="648" y="870" on="1"/>
        <pt x="656" y="1080" on="0"/>
        <pt x="994" y="1468" on="0"/>
        <pt x="1324" y="1468" on="1"/>
        <pt x="1654" y="1468" on="0"/>
        <pt x="2010" y="1062" on="0"/>
        <pt x="2010" y="717" on="1"/>
        <pt x="2010" y="372" on="0"/>
        <pt x="1654" y="-34" on="0"/>
        <pt x="1324" y="-34" on="1"/>
        <pt x="994" y="-34" on="0"/>
        <pt x="655" y="355" on="0"/>
        <pt x="642" y="622" on="1"/>
        <pt x="452" y="622" on="1"/>
        <pt x="452" y="75" on="1"/>
        <pt x="452" y="0" on="0"/>
        <pt x="382" y="0" on="1"/>
      </contour>
      <contour>
        <pt x="950" y="717" on="1"/>
        <pt x="950" y="467" on="0"/>
        <pt x="1129" y="202" on="0"/>
        <pt x="1324" y="202" on="1"/>
        <pt x="1519" y="202" on="0"/>
        <pt x="1698" y="467" on="0"/>
        <pt x="1698" y="717" on="1"/>
        <pt x="1698" y="967" on="0"/>
        <pt x="1519" y="1232" on="0"/>
        <pt x="1324" y="1232" on="1"/>
        <pt x="1129" y="1232" on="0"/>
        <pt x="950" y="967" on="0"/>
      </contour>
    </TTGlyph>
    <TTGlyph name="afii10049" xMin="55" yMin="0" xMax="1266" yMax="1434">
      <contour>
        <pt x="151" y="0" on="1"/>
        <pt x="55" y="0" on="0"/>
        <pt x="113" y="86" on="1"/>
        <pt x="327" y="406" on="1"/>
        <pt x="356" y="449" on="0"/>
        <pt x="489" y="598" on="0"/>
        <pt x="553" y="636" on="1"/>
        <pt x="553" y="638" on="1"/>
        <pt x="352" y="648" on="0"/>
        <pt x="133" y="867" on="0"/>
        <pt x="133" y="1011" on="1"/>
        <pt x="133" y="1218" on="0"/>
        <pt x="409" y="1434" on="0"/>
        <pt x="732" y="1434" on="1"/>
        <pt x="1196" y="1434" on="1"/>
        <pt x="1266" y="1434" on="0"/>
        <pt x="1266" y="1359" on="1"/>
        <pt x="1266" y="75" on="1"/>
        <pt x="1266" y="0" on="0"/>
        <pt x="1196" y="0" on="1"/>
        <pt x="1044" y="0" on="1"/>
        <pt x="974" y="0" on="0"/>
        <pt x="974" y="75" on="1"/>
        <pt x="974" y="573" on="1"/>
        <pt x="913" y="573" on="1"/>
        <pt x="816" y="573" on="0"/>
        <pt x="698" y="473" on="0"/>
        <pt x="639" y="382" on="1"/>
        <pt x="430" y="59" on="1"/>
        <pt x="392" y="0" on="0"/>
        <pt x="340" y="0" on="1"/>
      </contour>
      <contour>
        <pt x="429" y="1013" on="1"/>
        <pt x="429" y="882" on="0"/>
        <pt x="643" y="817" on="0"/>
        <pt x="784" y="817" on="1"/>
        <pt x="974" y="817" on="1"/>
        <pt x="974" y="1190" on="1"/>
        <pt x="746" y="1190" on="1"/>
        <pt x="595" y="1190" on="0"/>
        <pt x="429" y="1110" on="0"/>
      </contour>
    </TTGlyph>
    <TTGlyph name="afii10050" xMin="160" yMin="0" xMax="1072" yMax="1810">
      <contour>
        <pt x="230" y="0" on="1"/>
        <pt x="160" y="0" on="0"/>
        <pt x="160" y="75" on="1"/>
        <pt x="160" y="1359" on="1"/>
        <pt x="160" y="1434" on="0"/>
        <pt x="230" y="1434" on="1"/>
        <pt x="822" y="1434" on="1"/>
        <pt x="822" y="1740" on="1"/>
        <pt x="822" y="1810" on="0"/>
        <pt x="882" y="1810" on="1"/>
        <pt x="1012" y="1810" on="1"/>
        <pt x="1072" y="1810" on="0"/>
        <pt x="1072" y="1740" on="1"/>
        <pt x="1072" y="1261" on="1"/>
        <pt x="1072" y="1186" on="0"/>
        <pt x="1002" y="1186" on="1"/>
        <pt x="452" y="1186" on="1"/>
        <pt x="452" y="75" on="1"/>
        <pt x="452" y="0" on="0"/>
        <pt x="382" y="0" on="1"/>
      </contour>
    </TTGlyph>
    <TTGlyph name="afii10051" xMin="34" yMin="-34" xMax="1515" yMax="1434">
      <contour>
        <pt x="109" y="1178" on="1"/>
        <pt x="34" y="1178" on="0"/>
        <pt x="34" y="1243" on="1"/>
        <pt x="34" y="1369" on="1"/>
        <pt x="34" y="1434" on="0"/>
        <pt x="109" y="1434" on="1"/>
        <pt x="1137" y="1434" on="1"/>
        <pt x="1212" y="1434" on="0"/>
        <pt x="1212" y="1369" on="1"/>
        <pt x="1212" y="1243" on="1"/>
        <pt x="1212" y="1178" on="0"/>
        <pt x="1137" y="1178" on="1"/>
        <pt x="739" y="1178" on="1"/>
        <pt x="739" y="943" on="1"/>
        <pt x="739" y="883" on="0"/>
        <pt x="734" y="823" on="1"/>
        <pt x="741" y="823" on="1"/>
        <pt x="813" y="860" on="0"/>
        <pt x="993" y="910" on="0"/>
        <pt x="1078" y="910" on="1"/>
        <pt x="1287" y="910" on="0"/>
        <pt x="1515" y="640" on="0"/>
        <pt x="1515" y="434" on="1"/>
        <pt x="1515" y="166" on="0"/>
        <pt x="1314" y="-34" on="0"/>
        <pt x="1082" y="-34" on="1"/>
        <pt x="995" y="-34" on="0"/>
        <pt x="940" y="-16" on="1"/>
        <pt x="878" y="4" on="0"/>
        <pt x="891" y="50" on="1"/>
        <pt x="924" y="170" on="1"/>
        <pt x="938" y="222" on="0"/>
        <pt x="983" y="212" on="1"/>
        <pt x="1028" y="202" on="0"/>
        <pt x="1069" y="202" on="1"/>
        <pt x="1146" y="202" on="0"/>
        <pt x="1203" y="298" on="0"/>
        <pt x="1203" y="422" on="1"/>
        <pt x="1203" y="538" on="0"/>
        <pt x="1096" y="674" on="0"/>
        <pt x="1011" y="674" on="1"/>
        <pt x="946" y="674" on="0"/>
        <pt x="827" y="648" on="0"/>
        <pt x="739" y="607" on="1"/>
        <pt x="739" y="55" on="1"/>
        <pt x="739" y="0" on="0"/>
        <pt x="689" y="0" on="1"/>
        <pt x="497" y="0" on="1"/>
        <pt x="447" y="0" on="0"/>
        <pt x="447" y="55" on="1"/>
        <pt x="447" y="1178" on="1"/>
      </contour>
    </TTGlyph>
    <TTGlyph name="afii10052" xMin="160" yMin="0" xMax="1084" yMax="1785">
      <component glyphName="afii10020" x="0" y="0" flags="0x1204"/>
      <component glyphName="acute.cap" x="191" y="0" flags="0x1004"/>
    </TTGlyph>
    <TTGlyph name="afii10053" xMin="86" yMin="-34" xMax="1347" yMax="1468">
      <contour>
        <pt x="1299" y="161" on="1"/>
        <pt x="1228" y="70" on="0"/>
        <pt x="990" y="-34" on="0"/>
        <pt x="766" y="-34" on="1"/>
        <pt x="441" y="-34" on="0"/>
        <pt x="86" y="339" on="0"/>
        <pt x="86" y="717" on="1"/>
        <pt x="86" y="1095" on="0"/>
        <pt x="436" y="1468" on="0"/>
        <pt x="766" y="1468" on="1"/>
        <pt x="946" y="1468" on="0"/>
        <pt x="1170" y="1392" on="0"/>
        <pt x="1266" y="1291" on="1"/>
        <pt x="1320" y="1234" on="0"/>
        <pt x="1271" y="1190" on="1"/>
        <pt x="1180" y="1107" on="1"/>
        <pt x="1130" y="1061" on="0"/>
        <pt x="1070" y="1126" on="1"/>
        <pt x="1034" y="1165" on="0"/>
        <pt x="878" y="1232" on="0"/>
        <pt x="776" y="1232" on="1"/>
        <pt x="566" y="1232" on="0"/>
        <pt x="424" y="1027" on="0"/>
        <pt x="406" y="870" on="1"/>
        <pt x="939" y="870" on="1"/>
        <pt x="1014" y="870" on="0"/>
        <pt x="1014" y="805" on="1"/>
        <pt x="1014" y="687" on="1"/>
        <pt x="1014" y="622" on="0"/>
        <pt x="939" y="622" on="1"/>
        <pt x="404" y="622" on="1"/>
        <pt x="417" y="424" on="0"/>
        <pt x="566" y="202" on="0"/>
        <pt x="776" y="202" on="1"/>
        <pt x="902" y="202" on="0"/>
        <pt x="1051" y="292" on="0"/>
        <pt x="1087" y="334" on="1"/>
        <pt x="1146" y="401" on="0"/>
        <pt x="1196" y="357" on="1"/>
        <pt x="1303" y="261" on="1"/>
        <pt x="1347" y="222" on="0"/>
      </contour>
    </TTGlyph>
    <TTGlyph name="afii10054" xMin="83" yMin="-34" xMax="1206" yMax="1468">
      <component glyphName="S" x="0" y="0" flags="0x1204"/>
    </TTGlyph>
    <TTGlyph name="afii10055" xMin="160" yMin="0" xMax="452" yMax="1434">
      <component glyphName="I" x="0" y="0" flags="0x1204"/>
    </TTGlyph>
    <TTGlyph name="afii10056" xMin="-54" yMin="0" xMax="666" yMax="1786">
      <component glyphName="Idieresis" x="0" y="0" flags="0x1204"/>
    </TTGlyph>
    <TTGlyph name="afii10057" xMin="24" yMin="-34" xMax="787" yMax="1434">
      <component glyphName="J" x="0" y="0" flags="0x1204"/>
    </TTGlyph>
    <TTGlyph name="afii10058" xMin="26" yMin="-34" xMax="2147" yMax="1434">
      <contour>
        <pt x="68" y="-10" on="1"/>
        <pt x="26" y="4" on="0"/>
        <pt x="38" y="58" on="1"/>
        <pt x="64" y="172" on="1"/>
        <pt x="76" y="225" on="0"/>
        <pt x="127" y="210" on="1"/>
        <pt x="155" y="202" on="0"/>
        <pt x="185" y="202" on="1"/>
        <pt x="338" y="202" on="0"/>
        <pt x="454" y="639" on="0"/>
        <pt x="454" y="1090" on="1"/>
        <pt x="454" y="1359" on="1"/>
        <pt x="454" y="1434" on="0"/>
        <pt x="524" y="1434" on="1"/>
        <pt x="1264" y="1434" on="1"/>
        <pt x="1334" y="1434" on="0"/>
        <pt x="1334" y="1359" on="1"/>
        <pt x="1334" y="870" on="1"/>
        <pt x="1489" y="870" on="1"/>
        <pt x="1859" y="870" on="0"/>
        <pt x="2147" y="635" on="0"/>
        <pt x="2147" y="435" on="1"/>
        <pt x="2147" y="235" on="0"/>
        <pt x="1859" y="0" on="0"/>
        <pt x="1489" y="0" on="1"/>
        <pt x="1112" y="0" on="1"/>
        <pt x="1042" y="0" on="0"/>
        <pt x="1042" y="75" on="1"/>
        <pt x="1042" y="1186" on="1"/>
        <pt x="704" y="1186" on="1"/>
        <pt x="704" y="1034" on="1"/>
        <pt x="704" y="439" on="0"/>
        <pt x="470" y="-34" on="0"/>
        <pt x="208" y="-34" on="1"/>
        <pt x="142" y="-34" on="0"/>
      </contour>
      <contour>
        <pt x="1334" y="244" on="1"/>
        <pt x="1460" y="244" on="1"/>
        <pt x="1670" y="244" on="0"/>
        <pt x="1835" y="315" on="0"/>
        <pt x="1835" y="435" on="1"/>
        <pt x="1835" y="555" on="0"/>
        <pt x="1670" y="626" on="0"/>
        <pt x="1460" y="626" on="1"/>
        <pt x="1334" y="626" on="1"/>
      </contour>
    </TTGlyph>
    <TTGlyph name="afii10059" xMin="160" yMin="0" xMax="2095" yMax="1434">
      <contour>
        <pt x="230" y="0" on="1"/>
        <pt x="160" y="0" on="0"/>
        <pt x="160" y="75" on="1"/>
        <pt x="160" y="1359" on="1"/>
        <pt x="160" y="1434" on="0"/>
        <pt x="230" y="1434" on="1"/>
        <pt x="382" y="1434" on="1"/>
        <pt x="452" y="1434" on="0"/>
        <pt x="452" y="1359" on="1"/>
        <pt x="452" y="870" on="1"/>
        <pt x="990" y="870" on="1"/>
        <pt x="990" y="1359" on="1"/>
        <pt x="990" y="1434" on="0"/>
        <pt x="1060" y="1434" on="1"/>
        <pt x="1212" y="1434" on="1"/>
        <pt x="1282" y="1434" on="0"/>
        <pt x="1282" y="1359" on="1"/>
        <pt x="1282" y="870" on="1"/>
        <pt x="1437" y="870" on="1"/>
        <pt x="1807" y="870" on="0"/>
        <pt x="2095" y="635" on="0"/>
        <pt x="2095" y="435" on="1"/>
        <pt x="2095" y="235" on="0"/>
        <pt x="1807" y="0" on="0"/>
        <pt x="1437" y="0" on="1"/>
        <pt x="1060" y="0" on="1"/>
        <pt x="990" y="0" on="0"/>
        <pt x="990" y="75" on="1"/>
        <pt x="990" y="622" on="1"/>
        <pt x="452" y="622" on="1"/>
        <pt x="452" y="75" on="1"/>
        <pt x="452" y="0" on="0"/>
        <pt x="382" y="0" on="1"/>
      </contour>
      <contour>
        <pt x="1282" y="244" on="1"/>
        <pt x="1408" y="244" on="1"/>
        <pt x="1618" y="244" on="0"/>
        <pt x="1783" y="315" on="0"/>
        <pt x="1783" y="435" on="1"/>
        <pt x="1783" y="555" on="0"/>
        <pt x="1618" y="626" on="0"/>
        <pt x="1408" y="626" on="1"/>
        <pt x="1282" y="626" on="1"/>
      </contour>
    </TTGlyph>
    <TTGlyph name="afii10060" xMin="34" yMin="0" xMax="1483" yMax="1434">
      <contour>
        <pt x="109" y="1178" on="1"/>
        <pt x="34" y="1178" on="0"/>
        <pt x="34" y="1243" on="1"/>
        <pt x="34" y="1369" on="1"/>
        <pt x="34" y="1434" on="0"/>
        <pt x="109" y="1434" on="1"/>
        <pt x="1137" y="1434" on="1"/>
        <pt x="1212" y="1434" on="0"/>
        <pt x="1212" y="1369" on="1"/>
        <pt x="1212" y="1243" on="1"/>
        <pt x="1212" y="1178" on="0"/>
        <pt x="1137" y="1178" on="1"/>
        <pt x="739" y="1178" on="1"/>
        <pt x="739" y="943" on="1"/>
        <pt x="739" y="883" on="0"/>
        <pt x="734" y="823" on="1"/>
        <pt x="741" y="823" on="1"/>
        <pt x="813" y="860" on="0"/>
        <pt x="1015" y="910" on="0"/>
        <pt x="1100" y="910" on="1"/>
        <pt x="1275" y="910" on="0"/>
        <pt x="1483" y="666" on="0"/>
        <pt x="1483" y="502" on="1"/>
        <pt x="1483" y="75" on="1"/>
        <pt x="1483" y="0" on="0"/>
        <pt x="1413" y="0" on="1"/>
        <pt x="1261" y="0" on="1"/>
        <pt x="1191" y="0" on="0"/>
        <pt x="1191" y="75" on="1"/>
        <pt x="1191" y="454" on="1"/>
        <pt x="1191" y="577" on="0"/>
        <pt x="1103" y="674" on="0"/>
        <pt x="1028" y="674" on="1"/>
        <pt x="953" y="674" on="0"/>
        <pt x="827" y="648" on="0"/>
        <pt x="739" y="607" on="1"/>
        <pt x="739" y="55" on="1"/>
        <pt x="739" y="0" on="0"/>
        <pt x="689" y="0" on="1"/>
        <pt x="497" y="0" on="1"/>
        <pt x="447" y="0" on="0"/>
        <pt x="447" y="55" on="1"/>
        <pt x="447" y="1178" on="1"/>
      </contour>
    </TTGlyph>
    <TTGlyph name="afii10061" xMin="160" yMin="0" xMax="1344" yMax="1785">
      <component glyphName="afii10028" x="0" y="0" flags="0x1204"/>
      <component glyphName="acute.cap" x="258" y="0" flags="0x1004"/>
    </TTGlyph>
    <TTGlyph name="afii10062" xMin="17" yMin="-34" xMax="1367" yMax="1877">
      <component glyphName="afii10037" x="0" y="0" flags="0x1204"/>
      <component glyphName="cyrBreve" x="-37" y="0" flags="0x1004"/>
    </TTGlyph>
    <TTGlyph name="afii10065" xMin="80" yMin="-20" xMax="987" yMax="1070">
      <component glyphName="a" x="0" y="0" flags="0x1204"/>
    </TTGlyph>
    <TTGlyph name="afii10066" xMin="84" yMin="-20" xMax="1130" yMax="1514">
      <contour>
        <pt x="84" y="598" on="1"/>
        <pt x="84" y="712" on="0"/>
        <pt x="127" y="1026" on="0"/>
        <pt x="202" y="1224" on="0"/>
        <pt x="316" y="1342" on="0"/>
        <pt x="476" y="1421" on="0"/>
        <pt x="544" y="1430" on="1"/>
        <pt x="644" y="1444" on="0"/>
        <pt x="807" y="1449" on="0"/>
        <pt x="843" y="1457" on="1"/>
        <pt x="882" y="1466" on="0"/>
        <pt x="914" y="1514" on="0"/>
        <pt x="960" y="1514" on="1"/>
        <pt x="1030" y="1514" on="1"/>
        <pt x="1069" y="1514" on="0"/>
        <pt x="1069" y="1469" on="1"/>
        <pt x="1069" y="1394" on="0"/>
        <pt x="970" y="1279" on="0"/>
        <pt x="882" y="1264" on="1"/>
        <pt x="841" y="1257" on="0"/>
        <pt x="700" y="1248" on="0"/>
        <pt x="530" y="1230" on="0"/>
        <pt x="442" y="1186" on="1"/>
        <pt x="261" y="1095" on="0"/>
        <pt x="253" y="845" on="1"/>
        <pt x="261" y="841" on="1"/>
        <pt x="281" y="915" on="0"/>
        <pt x="477" y="1070" on="0"/>
        <pt x="633" y="1070" on="1"/>
        <pt x="864" y="1070" on="0"/>
        <pt x="1130" y="780" on="0"/>
        <pt x="1130" y="525" on="1"/>
        <pt x="1130" y="270" on="0"/>
        <pt x="867" y="-20" on="0"/>
        <pt x="607" y="-20" on="1"/>
        <pt x="334" y="-20" on="0"/>
        <pt x="84" y="306" on="0"/>
      </contour>
      <contour>
        <pt x="380" y="525" on="1"/>
        <pt x="380" y="335" on="0"/>
        <pt x="497" y="176" on="0"/>
        <pt x="607" y="176" on="1"/>
        <pt x="717" y="176" on="0"/>
        <pt x="834" y="335" on="0"/>
        <pt x="834" y="525" on="1"/>
        <pt x="834" y="715" on="0"/>
        <pt x="717" y="874" on="0"/>
        <pt x="607" y="874" on="1"/>
        <pt x="497" y="874" on="0"/>
        <pt x="380" y="715" on="0"/>
      </contour>
    </TTGlyph>
    <TTGlyph name="afii10067" xMin="136" yMin="0" xMax="1012" yMax="1050">
      <contour>
        <pt x="196" y="0" on="1"/>
        <pt x="136" y="0" on="0"/>
        <pt x="136" y="60" on="1"/>
        <pt x="136" y="990" on="1"/>
        <pt x="136" y="1050" on="0"/>
        <pt x="196" y="1050" on="1"/>
        <pt x="555" y="1050" on="1"/>
        <pt x="768" y="1050" on="0"/>
        <pt x="979" y="900" on="0"/>
        <pt x="979" y="797" on="1"/>
        <pt x="979" y="687" on="0"/>
        <pt x="866" y="576" on="0"/>
        <pt x="799" y="553" on="1"/>
        <pt x="799" y="550" on="1"/>
        <pt x="917" y="510" on="0"/>
        <pt x="1012" y="387" on="0"/>
        <pt x="1012" y="296" on="1"/>
        <pt x="1012" y="165" on="0"/>
        <pt x="851" y="0" on="0"/>
        <pt x="623" y="0" on="1"/>
      </contour>
      <contour>
        <pt x="416" y="196" on="1"/>
        <pt x="505" y="196" on="1"/>
        <pt x="625" y="196" on="0"/>
        <pt x="716" y="255" on="0"/>
        <pt x="716" y="312" on="1"/>
        <pt x="716" y="375" on="0"/>
        <pt x="625" y="447" on="0"/>
        <pt x="505" y="447" on="1"/>
        <pt x="416" y="447" on="1"/>
      </contour>
      <contour>
        <pt x="416" y="637" on="1"/>
        <pt x="510" y="637" on="1"/>
        <pt x="597" y="637" on="0"/>
        <pt x="699" y="705" on="0"/>
        <pt x="699" y="761" on="1"/>
        <pt x="699" y="825" on="0"/>
        <pt x="573" y="854" on="0"/>
        <pt x="515" y="854" on="1"/>
        <pt x="416" y="854" on="1"/>
      </contour>
    </TTGlyph>
    <TTGlyph name="afii10068" xMin="136" yMin="0" xMax="886" yMax="1050">
      <contour>
        <pt x="196" y="0" on="1"/>
        <pt x="136" y="0" on="0"/>
        <pt x="136" y="60" on="1"/>
        <pt x="136" y="990" on="1"/>
        <pt x="136" y="1050" on="0"/>
        <pt x="196" y="1050" on="1"/>
        <pt x="826" y="1050" on="1"/>
        <pt x="886" y="1050" on="0"/>
        <pt x="886" y="1000" on="1"/>
        <pt x="886" y="900" on="1"/>
        <pt x="886" y="850" on="0"/>
        <pt x="826" y="850" on="1"/>
        <pt x="416" y="850" on="1"/>
        <pt x="416" y="60" on="1"/>
        <pt x="416" y="0" on="0"/>
        <pt x="356" y="0" on="1"/>
      </contour>
    </TTGlyph>
    <TTGlyph name="afii10069" xMin="42" yMin="-310" xMax="1170" yMax="1050">
      <contour>
        <pt x="97" y="-310" on="1"/>
        <pt x="42" y="-310" on="0"/>
        <pt x="42" y="-250" on="1"/>
        <pt x="42" y="140" on="1"/>
        <pt x="42" y="200" on="0"/>
        <pt x="102" y="200" on="1"/>
        <pt x="133" y="200" on="1"/>
        <pt x="229" y="258" on="0"/>
        <pt x="308" y="552" on="0"/>
        <pt x="308" y="774" on="1"/>
        <pt x="308" y="990" on="1"/>
        <pt x="308" y="1050" on="0"/>
        <pt x="368" y="1050" on="1"/>
        <pt x="964" y="1050" on="1"/>
        <pt x="1024" y="1050" on="0"/>
        <pt x="1024" y="990" on="1"/>
        <pt x="1024" y="200" on="1"/>
        <pt x="1110" y="200" on="1"/>
        <pt x="1170" y="200" on="0"/>
        <pt x="1170" y="140" on="1"/>
        <pt x="1170" y="-250" on="1"/>
        <pt x="1170" y="-310" on="0"/>
        <pt x="1115" y="-310" on="1"/>
        <pt x="995" y="-310" on="1"/>
        <pt x="940" y="-310" on="0"/>
        <pt x="940" y="-250" on="1"/>
        <pt x="940" y="0" on="1"/>
        <pt x="272" y="0" on="1"/>
        <pt x="272" y="-250" on="1"/>
        <pt x="272" y="-310" on="0"/>
        <pt x="217" y="-310" on="1"/>
      </contour>
      <contour>
        <pt x="419" y="200" on="1"/>
        <pt x="744" y="200" on="1"/>
        <pt x="744" y="850" on="1"/>
        <pt x="538" y="850" on="1"/>
        <pt x="538" y="723" on="1"/>
        <pt x="538" y="492" on="0"/>
        <pt x="469" y="234" on="0"/>
      </contour>
    </TTGlyph>
    <TTGlyph name="afii10070" xMin="80" yMin="-20" xMax="1092" yMax="1070">
      <component glyphName="e" x="0" y="0" flags="0x1204"/>
    </TTGlyph>
    <TTGlyph name="afii10071" xMin="80" yMin="-20" xMax="1092" yMax="1442">
      <component glyphName="edieresis" x="0" y="0" flags="0x1204"/>
    </TTGlyph>
    <TTGlyph name="afii10072" xMin="19" yMin="0" xMax="1555" yMax="1050">
      <contour>
        <pt x="92" y="0" on="1"/>
        <pt x="19" y="0" on="0"/>
        <pt x="61" y="74" on="1"/>
        <pt x="230" y="372" on="1"/>
        <pt x="281" y="462" on="0"/>
        <pt x="357" y="536" on="0"/>
        <pt x="431" y="552" on="1"/>
        <pt x="431" y="554" on="1"/>
        <pt x="367" y="570" on="0"/>
        <pt x="281" y="654" on="0"/>
        <pt x="243" y="716" on="1"/>
        <pt x="83" y="976" on="1"/>
        <pt x="37" y="1050" on="0"/>
        <pt x="114" y="1050" on="1"/>
        <pt x="274" y="1050" on="1"/>
        <pt x="328" y="1050" on="0"/>
        <pt x="352" y="1009" on="1"/>
        <pt x="486" y="776" on="1"/>
        <pt x="513" y="729" on="0"/>
        <pt x="579" y="648" on="0"/>
        <pt x="631" y="648" on="1"/>
        <pt x="647" y="648" on="1"/>
        <pt x="647" y="990" on="1"/>
        <pt x="647" y="1050" on="0"/>
        <pt x="707" y="1050" on="1"/>
        <pt x="867" y="1050" on="1"/>
        <pt x="927" y="1050" on="0"/>
        <pt x="927" y="990" on="1"/>
        <pt x="927" y="648" on="1"/>
        <pt x="943" y="648" on="1"/>
        <pt x="995" y="648" on="0"/>
        <pt x="1061" y="729" on="0"/>
        <pt x="1088" y="776" on="1"/>
        <pt x="1222" y="1009" on="1"/>
        <pt x="1246" y="1050" on="0"/>
        <pt x="1300" y="1050" on="1"/>
        <pt x="1460" y="1050" on="1"/>
        <pt x="1537" y="1050" on="0"/>
        <pt x="1491" y="976" on="1"/>
        <pt x="1331" y="716" on="1"/>
        <pt x="1293" y="654" on="0"/>
        <pt x="1207" y="570" on="0"/>
        <pt x="1143" y="554" on="1"/>
        <pt x="1143" y="552" on="1"/>
        <pt x="1217" y="536" on="0"/>
        <pt x="1293" y="462" on="0"/>
        <pt x="1344" y="372" on="1"/>
        <pt x="1513" y="74" on="1"/>
        <pt x="1555" y="0" on="0"/>
        <pt x="1482" y="0" on="1"/>
        <pt x="1315" y="0" on="1"/>
        <pt x="1260" y="0" on="0"/>
        <pt x="1233" y="52" on="1"/>
        <pt x="1082" y="338" on="1"/>
        <pt x="1064" y="372" on="0"/>
        <pt x="1001" y="448" on="0"/>
        <pt x="944" y="448" on="1"/>
        <pt x="927" y="448" on="1"/>
        <pt x="927" y="60" on="1"/>
        <pt x="927" y="0" on="0"/>
        <pt x="867" y="0" on="1"/>
        <pt x="707" y="0" on="1"/>
        <pt x="647" y="0" on="0"/>
        <pt x="647" y="60" on="1"/>
        <pt x="647" y="448" on="1"/>
        <pt x="630" y="448" on="1"/>
        <pt x="573" y="448" on="0"/>
        <pt x="510" y="372" on="0"/>
        <pt x="492" y="338" on="1"/>
        <pt x="341" y="52" on="1"/>
        <pt x="314" y="0" on="0"/>
        <pt x="259" y="0" on="1"/>
      </contour>
    </TTGlyph>
    <TTGlyph name="afii10073" xMin="37" yMin="-20" xMax="955" yMax="1070">
      <contour>
        <pt x="81" y="89" on="1"/>
        <pt x="37" y="123" on="0"/>
        <pt x="74" y="171" on="1"/>
        <pt x="144" y="262" on="1"/>
        <pt x="175" y="303" on="0"/>
        <pt x="239" y="265" on="1"/>
        <pt x="282" y="239" on="0"/>
        <pt x="402" y="176" on="0"/>
        <pt x="476" y="176" on="1"/>
        <pt x="584" y="176" on="0"/>
        <pt x="659" y="272" on="0"/>
        <pt x="659" y="324" on="1"/>
        <pt x="659" y="372" on="0"/>
        <pt x="614" y="448" on="0"/>
        <pt x="498" y="448" on="1"/>
        <pt x="353" y="448" on="1"/>
        <pt x="293" y="448" on="0"/>
        <pt x="293" y="498" on="1"/>
        <pt x="293" y="598" on="1"/>
        <pt x="293" y="648" on="0"/>
        <pt x="353" y="648" on="1"/>
        <pt x="485" y="648" on="1"/>
        <pt x="557" y="648" on="0"/>
        <pt x="642" y="711" on="0"/>
        <pt x="642" y="771" on="1"/>
        <pt x="642" y="828" on="0"/>
        <pt x="532" y="874" on="0"/>
        <pt x="458" y="874" on="1"/>
        <pt x="385" y="874" on="0"/>
        <pt x="289" y="836" on="0"/>
        <pt x="240" y="800" on="1"/>
        <pt x="194" y="766" on="0"/>
        <pt x="163" y="803" on="1"/>
        <pt x="86" y="897" on="1"/>
        <pt x="51" y="939" on="0"/>
        <pt x="93" y="972" on="1"/>
        <pt x="163" y="1027" on="0"/>
        <pt x="316" y="1070" on="0"/>
        <pt x="458" y="1070" on="1"/>
        <pt x="655" y="1070" on="0"/>
        <pt x="922" y="918" on="0"/>
        <pt x="922" y="807" on="1"/>
        <pt x="922" y="699" on="0"/>
        <pt x="809" y="582" on="0"/>
        <pt x="742" y="559" on="1"/>
        <pt x="742" y="556" on="1"/>
        <pt x="860" y="516" on="0"/>
        <pt x="955" y="390" on="0"/>
        <pt x="955" y="308" on="1"/>
        <pt x="955" y="153" on="0"/>
        <pt x="704" y="-20" on="0"/>
        <pt x="476" y="-20" on="1"/>
        <pt x="290" y="-20" on="0"/>
        <pt x="131" y="51" on="0"/>
      </contour>
    </TTGlyph>
    <TTGlyph name="afii10074" xMin="136" yMin="0" xMax="1076" yMax="1050">
      <contour>
        <pt x="187" y="0" on="1"/>
        <pt x="136" y="0" on="0"/>
        <pt x="136" y="60" on="1"/>
        <pt x="136" y="990" on="1"/>
        <pt x="136" y="1050" on="0"/>
        <pt x="196" y="1050" on="1"/>
        <pt x="356" y="1050" on="1"/>
        <pt x="416" y="1050" on="0"/>
        <pt x="416" y="990" on="1"/>
        <pt x="416" y="487" on="1"/>
        <pt x="416" y="447" on="0"/>
        <pt x="412" y="407" on="1"/>
        <pt x="416" y="407" on="1"/>
        <pt x="710" y="985" on="1"/>
        <pt x="743" y="1050" on="0"/>
        <pt x="815" y="1050" on="1"/>
        <pt x="1016" y="1050" on="1"/>
        <pt x="1076" y="1050" on="0"/>
        <pt x="1076" y="990" on="1"/>
        <pt x="1076" y="60" on="1"/>
        <pt x="1076" y="0" on="0"/>
        <pt x="1016" y="0" on="1"/>
        <pt x="856" y="0" on="1"/>
        <pt x="796" y="0" on="0"/>
        <pt x="796" y="60" on="1"/>
        <pt x="796" y="563" on="1"/>
        <pt x="796" y="604" on="0"/>
        <pt x="800" y="643" on="1"/>
        <pt x="796" y="643" on="1"/>
        <pt x="502" y="65" on="1"/>
        <pt x="469" y="0" on="0"/>
        <pt x="397" y="0" on="1"/>
      </contour>
    </TTGlyph>
    <TTGlyph name="afii10075" xMin="136" yMin="0" xMax="1076" yMax="1471">
      <component glyphName="afii10074" x="0" y="0" flags="0x1204"/>
      <component glyphName="cyrbreve" x="0" y="0" flags="0x1004"/>
    </TTGlyph>
    <TTGlyph name="afii10076" xMin="136" yMin="0" xMax="1067" yMax="1050">
      <contour>
        <pt x="196" y="0" on="1"/>
        <pt x="136" y="0" on="0"/>
        <pt x="136" y="60" on="1"/>
        <pt x="136" y="990" on="1"/>
        <pt x="136" y="1050" on="0"/>
        <pt x="196" y="1050" on="1"/>
        <pt x="356" y="1050" on="1"/>
        <pt x="416" y="1050" on="0"/>
        <pt x="416" y="990" on="1"/>
        <pt x="416" y="648" on="1"/>
        <pt x="439" y="648" on="1"/>
        <pt x="488" y="648" on="0"/>
        <pt x="562" y="728" on="0"/>
        <pt x="590" y="776" on="1"/>
        <pt x="728" y="1009" on="1"/>
        <pt x="752" y="1050" on="0"/>
        <pt x="806" y="1050" on="1"/>
        <pt x="970" y="1050" on="1"/>
        <pt x="1048" y="1050" on="0"/>
        <pt x="1001" y="976" on="1"/>
        <pt x="837" y="716" on="1"/>
        <pt x="800" y="657" on="0"/>
        <pt x="697" y="566" on="0"/>
        <pt x="647" y="554" on="1"/>
        <pt x="647" y="552" on="1"/>
        <pt x="721" y="536" on="0"/>
        <pt x="797" y="465" on="0"/>
        <pt x="851" y="372" on="1"/>
        <pt x="1024" y="74" on="1"/>
        <pt x="1067" y="0" on="0"/>
        <pt x="993" y="0" on="1"/>
        <pt x="822" y="0" on="1"/>
        <pt x="768" y="0" on="0"/>
        <pt x="740" y="52" on="1"/>
        <pt x="585" y="338" on="1"/>
        <pt x="566" y="373" on="0"/>
        <pt x="486" y="448" on="0"/>
        <pt x="440" y="448" on="1"/>
        <pt x="416" y="448" on="1"/>
        <pt x="416" y="60" on="1"/>
        <pt x="416" y="0" on="0"/>
        <pt x="356" y="0" on="1"/>
      </contour>
    </TTGlyph>
    <TTGlyph name="afii10077" xMin="32" yMin="-20" xMax="1058" yMax="1050">
      <contour>
        <pt x="63" y="-8" on="1"/>
        <pt x="32" y="5" on="0"/>
        <pt x="38" y="33" on="1"/>
        <pt x="63" y="158" on="1"/>
        <pt x="69" y="190" on="0"/>
        <pt x="96" y="183" on="1"/>
        <pt x="124" y="176" on="0"/>
        <pt x="146" y="176" on="1"/>
        <pt x="243" y="176" on="0"/>
        <pt x="342" y="375" on="0"/>
        <pt x="342" y="774" on="1"/>
        <pt x="342" y="990" on="1"/>
        <pt x="342" y="1050" on="0"/>
        <pt x="402" y="1050" on="1"/>
        <pt x="998" y="1050" on="1"/>
        <pt x="1058" y="1050" on="0"/>
        <pt x="1058" y="990" on="1"/>
        <pt x="1058" y="60" on="1"/>
        <pt x="1058" y="0" on="0"/>
        <pt x="998" y="0" on="1"/>
        <pt x="838" y="0" on="1"/>
        <pt x="778" y="0" on="0"/>
        <pt x="778" y="60" on="1"/>
        <pt x="778" y="850" on="1"/>
        <pt x="572" y="850" on="1"/>
        <pt x="572" y="723" on="1"/>
        <pt x="572" y="321" on="0"/>
        <pt x="408" y="-20" on="0"/>
        <pt x="168" y="-20" on="1"/>
        <pt x="92" y="-20" on="0"/>
      </contour>
    </TTGlyph>
    <TTGlyph name="afii10078" xMin="136" yMin="0" xMax="1364" yMax="1050">
      <contour>
        <pt x="196" y="0" on="1"/>
        <pt x="136" y="0" on="0"/>
        <pt x="136" y="60" on="1"/>
        <pt x="136" y="990" on="1"/>
        <pt x="136" y="1050" on="0"/>
        <pt x="196" y="1050" on="1"/>
        <pt x="465" y="1050" on="1"/>
        <pt x="531" y="1050" on="0"/>
        <pt x="550" y="985" on="1"/>
        <pt x="719" y="394" on="1"/>
        <pt x="729" y="359" on="0"/>
        <pt x="748" y="264" on="0"/>
        <pt x="748" y="235" on="1"/>
        <pt x="752" y="235" on="1"/>
        <pt x="752" y="264" on="0"/>
        <pt x="771" y="359" on="0"/>
        <pt x="781" y="394" on="1"/>
        <pt x="950" y="985" on="1"/>
        <pt x="969" y="1050" on="0"/>
        <pt x="1035" y="1050" on="1"/>
        <pt x="1304" y="1050" on="1"/>
        <pt x="1364" y="1050" on="0"/>
        <pt x="1364" y="990" on="1"/>
        <pt x="1364" y="60" on="1"/>
        <pt x="1364" y="0" on="0"/>
        <pt x="1304" y="0" on="1"/>
        <pt x="1144" y="0" on="1"/>
        <pt x="1084" y="0" on="0"/>
        <pt x="1084" y="60" on="1"/>
        <pt x="1084" y="565" on="1"/>
        <pt x="1084" y="606" on="0"/>
        <pt x="1088" y="645" on="1"/>
        <pt x="1084" y="645" on="1"/>
        <pt x="911" y="61" on="1"/>
        <pt x="893" y="0" on="0"/>
        <pt x="857" y="0" on="1"/>
        <pt x="643" y="0" on="1"/>
        <pt x="607" y="0" on="0"/>
        <pt x="589" y="61" on="1"/>
        <pt x="416" y="645" on="1"/>
        <pt x="412" y="645" on="1"/>
        <pt x="416" y="606" on="0"/>
        <pt x="416" y="565" on="1"/>
        <pt x="416" y="60" on="1"/>
        <pt x="416" y="0" on="0"/>
        <pt x="356" y="0" on="1"/>
      </contour>
    </TTGlyph>
    <TTGlyph name="afii10079" xMin="136" yMin="0" xMax="1056" yMax="1050">
      <contour>
        <pt x="196" y="0" on="1"/>
        <pt x="136" y="0" on="0"/>
        <pt x="136" y="60" on="1"/>
        <pt x="136" y="990" on="1"/>
        <pt x="136" y="1050" on="0"/>
        <pt x="196" y="1050" on="1"/>
        <pt x="356" y="1050" on="1"/>
        <pt x="416" y="1050" on="0"/>
        <pt x="416" y="990" on="1"/>
        <pt x="416" y="648" on="1"/>
        <pt x="776" y="648" on="1"/>
        <pt x="776" y="990" on="1"/>
        <pt x="776" y="1050" on="0"/>
        <pt x="836" y="1050" on="1"/>
        <pt x="996" y="1050" on="1"/>
        <pt x="1056" y="1050" on="0"/>
        <pt x="1056" y="990" on="1"/>
        <pt x="1056" y="60" on="1"/>
        <pt x="1056" y="0" on="0"/>
        <pt x="996" y="0" on="1"/>
        <pt x="836" y="0" on="1"/>
        <pt x="776" y="0" on="0"/>
        <pt x="776" y="60" on="1"/>
        <pt x="776" y="448" on="1"/>
        <pt x="416" y="448" on="1"/>
        <pt x="416" y="60" on="1"/>
        <pt x="416" y="0" on="0"/>
        <pt x="356" y="0" on="1"/>
      </contour>
    </TTGlyph>
    <TTGlyph name="afii10080" xMin="80" yMin="-20" xMax="1126" yMax="1070">
      <component glyphName="o" x="0" y="0" flags="0x1204"/>
    </TTGlyph>
    <TTGlyph name="afii10081" xMin="136" yMin="0" xMax="1048" yMax="1050">
      <contour>
        <pt x="196" y="0" on="1"/>
        <pt x="136" y="0" on="0"/>
        <pt x="136" y="60" on="1"/>
        <pt x="136" y="990" on="1"/>
        <pt x="136" y="1050" on="0"/>
        <pt x="196" y="1050" on="1"/>
        <pt x="988" y="1050" on="1"/>
        <pt x="1048" y="1050" on="0"/>
        <pt x="1048" y="990" on="1"/>
        <pt x="1048" y="60" on="1"/>
        <pt x="1048" y="0" on="0"/>
        <pt x="988" y="0" on="1"/>
        <pt x="828" y="0" on="1"/>
        <pt x="768" y="0" on="0"/>
        <pt x="768" y="60" on="1"/>
        <pt x="768" y="850" on="1"/>
        <pt x="416" y="850" on="1"/>
        <pt x="416" y="60" on="1"/>
        <pt x="416" y="0" on="0"/>
        <pt x="356" y="0" on="1"/>
      </contour>
    </TTGlyph>
    <TTGlyph name="afii10082" xMin="136" yMin="-400" xMax="1112" yMax="1070">
      <component glyphName="p" x="0" y="0" flags="0x1204"/>
    </TTGlyph>
    <TTGlyph name="afii10083" xMin="80" yMin="-20" xMax="1041" yMax="1070">
      <component glyphName="c" x="0" y="0" flags="0x1204"/>
    </TTGlyph>
    <TTGlyph name="afii10084" xMin="30" yMin="0" xMax="986" yMax="1050">
      <contour>
        <pt x="90" y="850" on="1"/>
        <pt x="30" y="850" on="0"/>
        <pt x="30" y="900" on="1"/>
        <pt x="30" y="1000" on="1"/>
        <pt x="30" y="1050" on="0"/>
        <pt x="90" y="1050" on="1"/>
        <pt x="926" y="1050" on="1"/>
        <pt x="986" y="1050" on="0"/>
        <pt x="986" y="1000" on="1"/>
        <pt x="986" y="900" on="1"/>
        <pt x="986" y="850" on="0"/>
        <pt x="926" y="850" on="1"/>
        <pt x="648" y="850" on="1"/>
        <pt x="648" y="60" on="1"/>
        <pt x="648" y="0" on="0"/>
        <pt x="588" y="0" on="1"/>
        <pt x="428" y="0" on="1"/>
        <pt x="368" y="0" on="0"/>
        <pt x="368" y="60" on="1"/>
        <pt x="368" y="850" on="1"/>
      </contour>
    </TTGlyph>
    <TTGlyph name="afii10085" xMin="17" yMin="-420" xMax="990" yMax="1050">
      <component glyphName="y" x="0" y="0" flags="0x1204"/>
    </TTGlyph>
    <TTGlyph name="afii10086" xMin="80" yMin="-400" xMax="1658" yMax="1476">
      <contour>
        <pt x="80" y="525" on="1"/>
        <pt x="80" y="760" on="0"/>
        <pt x="296" y="1070" on="0"/>
        <pt x="496" y="1070" on="1"/>
        <pt x="569" y="1070" on="0"/>
        <pt x="677" y="1023" on="0"/>
        <pt x="729" y="937" on="1"/>
        <pt x="733" y="937" on="1"/>
        <pt x="729" y="977" on="0"/>
        <pt x="729" y="1017" on="1"/>
        <pt x="729" y="1416" on="1"/>
        <pt x="729" y="1476" on="0"/>
        <pt x="789" y="1476" on="1"/>
        <pt x="949" y="1476" on="1"/>
        <pt x="1009" y="1476" on="0"/>
        <pt x="1009" y="1416" on="1"/>
        <pt x="1009" y="1017" on="1"/>
        <pt x="1009" y="977" on="0"/>
        <pt x="1005" y="937" on="1"/>
        <pt x="1009" y="937" on="1"/>
        <pt x="1061" y="1023" on="0"/>
        <pt x="1169" y="1070" on="0"/>
        <pt x="1242" y="1070" on="1"/>
        <pt x="1442" y="1070" on="0"/>
        <pt x="1658" y="760" on="0"/>
        <pt x="1658" y="525" on="1"/>
        <pt x="1658" y="290" on="0"/>
        <pt x="1442" y="-20" on="0"/>
        <pt x="1242" y="-20" on="1"/>
        <pt x="1169" y="-20" on="0"/>
        <pt x="1061" y="27" on="0"/>
        <pt x="1009" y="113" on="1"/>
        <pt x="1005" y="113" on="1"/>
        <pt x="1009" y="73" on="0"/>
        <pt x="1009" y="33" on="1"/>
        <pt x="1009" y="-340" on="1"/>
        <pt x="1009" y="-400" on="0"/>
        <pt x="949" y="-400" on="1"/>
        <pt x="789" y="-400" on="1"/>
        <pt x="729" y="-400" on="0"/>
        <pt x="729" y="-340" on="1"/>
        <pt x="729" y="33" on="1"/>
        <pt x="729" y="73" on="0"/>
        <pt x="733" y="113" on="1"/>
        <pt x="729" y="113" on="1"/>
        <pt x="677" y="27" on="0"/>
        <pt x="569" y="-20" on="0"/>
        <pt x="496" y="-20" on="1"/>
        <pt x="296" y="-20" on="0"/>
        <pt x="80" y="290" on="0"/>
      </contour>
      <contour>
        <pt x="376" y="525" on="1"/>
        <pt x="376" y="370" on="0"/>
        <pt x="455" y="176" on="0"/>
        <pt x="555" y="176" on="1"/>
        <pt x="632" y="176" on="0"/>
        <pt x="729" y="357" on="0"/>
        <pt x="729" y="475" on="1"/>
        <pt x="729" y="575" on="1"/>
        <pt x="729" y="693" on="0"/>
        <pt x="632" y="874" on="0"/>
        <pt x="555" y="874" on="1"/>
        <pt x="455" y="874" on="0"/>
        <pt x="376" y="680" on="0"/>
      </contour>
      <contour>
        <pt x="1009" y="475" on="1"/>
        <pt x="1009" y="357" on="0"/>
        <pt x="1106" y="176" on="0"/>
        <pt x="1183" y="176" on="1"/>
        <pt x="1283" y="176" on="0"/>
        <pt x="1362" y="370" on="0"/>
        <pt x="1362" y="525" on="1"/>
        <pt x="1362" y="680" on="0"/>
        <pt x="1283" y="874" on="0"/>
        <pt x="1183" y="874" on="1"/>
        <pt x="1106" y="874" on="0"/>
        <pt x="1009" y="693" on="0"/>
        <pt x="1009" y="575" on="1"/>
      </contour>
    </TTGlyph>
    <TTGlyph name="afii10087" xMin="6" yMin="0" xMax="1081" yMax="1050">
      <component glyphName="x" x="0" y="0" flags="0x1204"/>
    </TTGlyph>
    <TTGlyph name="afii10088" xMin="136" yMin="-310" xMax="1188" yMax="1050">
      <contour>
        <pt x="196" y="0" on="1"/>
        <pt x="136" y="0" on="0"/>
        <pt x="136" y="60" on="1"/>
        <pt x="136" y="990" on="1"/>
        <pt x="136" y="1050" on="0"/>
        <pt x="196" y="1050" on="1"/>
        <pt x="356" y="1050" on="1"/>
        <pt x="416" y="1050" on="0"/>
        <pt x="416" y="990" on="1"/>
        <pt x="416" y="200" on="1"/>
        <pt x="762" y="200" on="1"/>
        <pt x="762" y="990" on="1"/>
        <pt x="762" y="1050" on="0"/>
        <pt x="822" y="1050" on="1"/>
        <pt x="982" y="1050" on="1"/>
        <pt x="1042" y="1050" on="0"/>
        <pt x="1042" y="990" on="1"/>
        <pt x="1042" y="200" on="1"/>
        <pt x="1128" y="200" on="1"/>
        <pt x="1188" y="200" on="0"/>
        <pt x="1188" y="140" on="1"/>
        <pt x="1188" y="-250" on="1"/>
        <pt x="1188" y="-310" on="0"/>
        <pt x="1133" y="-310" on="1"/>
        <pt x="1013" y="-310" on="1"/>
        <pt x="958" y="-310" on="0"/>
        <pt x="958" y="-250" on="1"/>
        <pt x="958" y="0" on="1"/>
      </contour>
    </TTGlyph>
    <TTGlyph name="afii10089" xMin="100" yMin="0" xMax="994" yMax="1050">
      <contour>
        <pt x="100" y="736" on="1"/>
        <pt x="100" y="990" on="1"/>
        <pt x="100" y="1050" on="0"/>
        <pt x="160" y="1050" on="1"/>
        <pt x="320" y="1050" on="1"/>
        <pt x="380" y="1050" on="0"/>
        <pt x="380" y="990" on="1"/>
        <pt x="380" y="724" on="1"/>
        <pt x="380" y="628" on="0"/>
        <pt x="464" y="576" on="0"/>
        <pt x="544" y="576" on="1"/>
        <pt x="586" y="576" on="0"/>
        <pt x="676" y="594" on="0"/>
        <pt x="714" y="646" on="1"/>
        <pt x="714" y="990" on="1"/>
        <pt x="714" y="1050" on="0"/>
        <pt x="774" y="1050" on="1"/>
        <pt x="934" y="1050" on="1"/>
        <pt x="994" y="1050" on="0"/>
        <pt x="994" y="990" on="1"/>
        <pt x="994" y="60" on="1"/>
        <pt x="994" y="0" on="0"/>
        <pt x="934" y="0" on="1"/>
        <pt x="774" y="0" on="1"/>
        <pt x="714" y="0" on="0"/>
        <pt x="714" y="60" on="1"/>
        <pt x="714" y="356" on="1"/>
        <pt x="714" y="396" on="0"/>
        <pt x="718" y="436" on="1"/>
        <pt x="712" y="436" on="1"/>
        <pt x="652" y="406" on="0"/>
        <pt x="484" y="380" on="0"/>
        <pt x="432" y="380" on="1"/>
        <pt x="250" y="380" on="0"/>
        <pt x="100" y="578" on="0"/>
      </contour>
    </TTGlyph>
    <TTGlyph name="afii10090" xMin="136" yMin="0" xMax="1638" yMax="1050">
      <contour>
        <pt x="196" y="0" on="1"/>
        <pt x="136" y="0" on="0"/>
        <pt x="136" y="60" on="1"/>
        <pt x="136" y="990" on="1"/>
        <pt x="136" y="1050" on="0"/>
        <pt x="196" y="1050" on="1"/>
        <pt x="356" y="1050" on="1"/>
        <pt x="416" y="1050" on="0"/>
        <pt x="416" y="990" on="1"/>
        <pt x="416" y="200" on="1"/>
        <pt x="750" y="200" on="1"/>
        <pt x="750" y="990" on="1"/>
        <pt x="750" y="1050" on="0"/>
        <pt x="810" y="1050" on="1"/>
        <pt x="970" y="1050" on="1"/>
        <pt x="1030" y="1050" on="0"/>
        <pt x="1030" y="990" on="1"/>
        <pt x="1030" y="200" on="1"/>
        <pt x="1358" y="200" on="1"/>
        <pt x="1358" y="990" on="1"/>
        <pt x="1358" y="1050" on="0"/>
        <pt x="1418" y="1050" on="1"/>
        <pt x="1578" y="1050" on="1"/>
        <pt x="1638" y="1050" on="0"/>
        <pt x="1638" y="990" on="1"/>
        <pt x="1638" y="60" on="1"/>
        <pt x="1638" y="0" on="0"/>
        <pt x="1578" y="0" on="1"/>
      </contour>
    </TTGlyph>
    <TTGlyph name="afii10091" xMin="136" yMin="-310" xMax="1784" yMax="1050">
      <contour>
        <pt x="196" y="0" on="1"/>
        <pt x="136" y="0" on="0"/>
        <pt x="136" y="60" on="1"/>
        <pt x="136" y="990" on="1"/>
        <pt x="136" y="1050" on="0"/>
        <pt x="196" y="1050" on="1"/>
        <pt x="356" y="1050" on="1"/>
        <pt x="416" y="1050" on="0"/>
        <pt x="416" y="990" on="1"/>
        <pt x="416" y="200" on="1"/>
        <pt x="750" y="200" on="1"/>
        <pt x="750" y="990" on="1"/>
        <pt x="750" y="1050" on="0"/>
        <pt x="810" y="1050" on="1"/>
        <pt x="970" y="1050" on="1"/>
        <pt x="1030" y="1050" on="0"/>
        <pt x="1030" y="990" on="1"/>
        <pt x="1030" y="200" on="1"/>
        <pt x="1358" y="200" on="1"/>
        <pt x="1358" y="990" on="1"/>
        <pt x="1358" y="1050" on="0"/>
        <pt x="1418" y="1050" on="1"/>
        <pt x="1578" y="1050" on="1"/>
        <pt x="1638" y="1050" on="0"/>
        <pt x="1638" y="990" on="1"/>
        <pt x="1638" y="200" on="1"/>
        <pt x="1724" y="200" on="1"/>
        <pt x="1784" y="200" on="0"/>
        <pt x="1784" y="140" on="1"/>
        <pt x="1784" y="-250" on="1"/>
        <pt x="1784" y="-310" on="0"/>
        <pt x="1729" y="-310" on="1"/>
        <pt x="1609" y="-310" on="1"/>
        <pt x="1554" y="-310" on="0"/>
        <pt x="1554" y="-250" on="1"/>
        <pt x="1554" y="0" on="1"/>
      </contour>
    </TTGlyph>
    <TTGlyph name="afii10092" xMin="47" yMin="0" xMax="1240" yMax="1050">
      <contour>
        <pt x="107" y="850" on="1"/>
        <pt x="47" y="850" on="0"/>
        <pt x="47" y="900" on="1"/>
        <pt x="47" y="1000" on="1"/>
        <pt x="47" y="1050" on="0"/>
        <pt x="107" y="1050" on="1"/>
        <pt x="604" y="1050" on="1"/>
        <pt x="664" y="1050" on="0"/>
        <pt x="664" y="990" on="1"/>
        <pt x="664" y="648" on="1"/>
        <pt x="851" y="648" on="1"/>
        <pt x="1091" y="648" on="0"/>
        <pt x="1240" y="454" on="0"/>
        <pt x="1240" y="324" on="1"/>
        <pt x="1240" y="194" on="0"/>
        <pt x="1091" y="0" on="0"/>
        <pt x="851" y="0" on="1"/>
        <pt x="444" y="0" on="1"/>
        <pt x="384" y="0" on="0"/>
        <pt x="384" y="60" on="1"/>
        <pt x="384" y="850" on="1"/>
      </contour>
      <contour>
        <pt x="664" y="196" on="1"/>
        <pt x="733" y="196" on="1"/>
        <pt x="853" y="196" on="0"/>
        <pt x="944" y="254" on="0"/>
        <pt x="944" y="324" on="1"/>
        <pt x="944" y="394" on="0"/>
        <pt x="853" y="452" on="0"/>
        <pt x="733" y="452" on="1"/>
        <pt x="664" y="452" on="1"/>
      </contour>
    </TTGlyph>
    <TTGlyph name="afii10093" xMin="136" yMin="0" xMax="1416" yMax="1050">
      <component glyphName="afii10094" x="0" y="0" flags="0x1004"/>
      <component glyphName="dotlessi" x="1000" y="0" flags="0x1004"/>
    </TTGlyph>
    <TTGlyph name="afii10094" xMin="136" yMin="0" xMax="992" yMax="1050">
      <contour>
        <pt x="196" y="0" on="1"/>
        <pt x="136" y="0" on="0"/>
        <pt x="136" y="60" on="1"/>
        <pt x="136" y="990" on="1"/>
        <pt x="136" y="1050" on="0"/>
        <pt x="196" y="1050" on="1"/>
        <pt x="356" y="1050" on="1"/>
        <pt x="416" y="1050" on="0"/>
        <pt x="416" y="990" on="1"/>
        <pt x="416" y="648" on="1"/>
        <pt x="603" y="648" on="1"/>
        <pt x="843" y="648" on="0"/>
        <pt x="992" y="454" on="0"/>
        <pt x="992" y="324" on="1"/>
        <pt x="992" y="194" on="0"/>
        <pt x="843" y="0" on="0"/>
        <pt x="603" y="0" on="1"/>
      </contour>
      <contour>
        <pt x="416" y="196" on="1"/>
        <pt x="485" y="196" on="1"/>
        <pt x="605" y="196" on="0"/>
        <pt x="696" y="254" on="0"/>
        <pt x="696" y="324" on="1"/>
        <pt x="696" y="394" on="0"/>
        <pt x="605" y="452" on="0"/>
        <pt x="485" y="452" on="1"/>
        <pt x="416" y="452" on="1"/>
      </contour>
    </TTGlyph>
    <TTGlyph name="afii10095" xMin="36" yMin="-20" xMax="990" yMax="1070">
      <contour>
        <pt x="74" y="111" on="1"/>
        <pt x="36" y="148" on="0"/>
        <pt x="79" y="192" on="1"/>
        <pt x="160" y="274" on="1"/>
        <pt x="199" y="313" on="0"/>
        <pt x="240" y="272" on="1"/>
        <pt x="276" y="236" on="0"/>
        <pt x="370" y="176" on="0"/>
        <pt x="469" y="176" on="1"/>
        <pt x="582" y="176" on="0"/>
        <pt x="683" y="300" on="0"/>
        <pt x="693" y="448" on="1"/>
        <pt x="341" y="448" on="1"/>
        <pt x="281" y="448" on="0"/>
        <pt x="281" y="498" on="1"/>
        <pt x="281" y="598" on="1"/>
        <pt x="281" y="648" on="0"/>
        <pt x="341" y="648" on="1"/>
        <pt x="689" y="648" on="1"/>
        <pt x="679" y="758" on="0"/>
        <pt x="578" y="874" on="0"/>
        <pt x="469" y="874" on="1"/>
        <pt x="422" y="874" on="0"/>
        <pt x="308" y="843" on="0"/>
        <pt x="259" y="800" on="1"/>
        <pt x="215" y="761" on="0"/>
        <pt x="182" y="792" on="1"/>
        <pt x="98" y="870" on="1"/>
        <pt x="58" y="907" on="0"/>
        <pt x="96" y="945" on="1"/>
        <pt x="161" y="1011" on="0"/>
        <pt x="346" y="1070" on="0"/>
        <pt x="469" y="1070" on="1"/>
        <pt x="734" y="1070" on="0"/>
        <pt x="990" y="780" on="0"/>
        <pt x="990" y="525" on="1"/>
        <pt x="990" y="270" on="0"/>
        <pt x="734" y="-20" on="0"/>
        <pt x="469" y="-20" on="1"/>
        <pt x="284" y="-20" on="0"/>
        <pt x="126" y="60" on="0"/>
      </contour>
    </TTGlyph>
    <TTGlyph name="afii10096" xMin="136" yMin="-20" xMax="1618" yMax="1070">
      <contour>
        <pt x="196" y="0" on="1"/>
        <pt x="136" y="0" on="0"/>
        <pt x="136" y="60" on="1"/>
        <pt x="136" y="990" on="1"/>
        <pt x="136" y="1050" on="0"/>
        <pt x="196" y="1050" on="1"/>
        <pt x="356" y="1050" on="1"/>
        <pt x="416" y="1050" on="0"/>
        <pt x="416" y="990" on="1"/>
        <pt x="416" y="648" on="1"/>
        <pt x="579" y="648" on="1"/>
        <pt x="594" y="802" on="0"/>
        <pt x="835" y="1070" on="0"/>
        <pt x="1095" y="1070" on="1"/>
        <pt x="1355" y="1070" on="0"/>
        <pt x="1618" y="780" on="0"/>
        <pt x="1618" y="525" on="1"/>
        <pt x="1618" y="270" on="0"/>
        <pt x="1355" y="-20" on="0"/>
        <pt x="1095" y="-20" on="1"/>
        <pt x="835" y="-20" on="0"/>
        <pt x="591" y="246" on="0"/>
        <pt x="576" y="448" on="1"/>
        <pt x="416" y="448" on="1"/>
        <pt x="416" y="60" on="1"/>
        <pt x="416" y="0" on="0"/>
        <pt x="356" y="0" on="1"/>
      </contour>
      <contour>
        <pt x="868" y="525" on="1"/>
        <pt x="868" y="335" on="0"/>
        <pt x="985" y="176" on="0"/>
        <pt x="1095" y="176" on="1"/>
        <pt x="1205" y="176" on="0"/>
        <pt x="1322" y="335" on="0"/>
        <pt x="1322" y="525" on="1"/>
        <pt x="1322" y="715" on="0"/>
        <pt x="1205" y="874" on="0"/>
        <pt x="1095" y="874" on="1"/>
        <pt x="985" y="874" on="0"/>
        <pt x="868" y="715" on="0"/>
      </contour>
    </TTGlyph>
    <TTGlyph name="afii10097" xMin="45" yMin="0" xMax="1012" yMax="1050">
      <contour>
        <pt x="121" y="0" on="1"/>
        <pt x="45" y="0" on="0"/>
        <pt x="90" y="74" on="1"/>
        <pt x="240" y="319" on="1"/>
        <pt x="280" y="384" on="0"/>
        <pt x="340" y="430" on="0"/>
        <pt x="390" y="460" on="1"/>
        <pt x="390" y="462" on="1"/>
        <pt x="278" y="486" on="0"/>
        <pt x="114" y="627" on="0"/>
        <pt x="114" y="746" on="1"/>
        <pt x="114" y="867" on="0"/>
        <pt x="276" y="1050" on="0"/>
        <pt x="503" y="1050" on="1"/>
        <pt x="952" y="1050" on="1"/>
        <pt x="1012" y="1050" on="0"/>
        <pt x="1012" y="990" on="1"/>
        <pt x="1012" y="60" on="1"/>
        <pt x="1012" y="0" on="0"/>
        <pt x="952" y="0" on="1"/>
        <pt x="792" y="0" on="1"/>
        <pt x="732" y="0" on="0"/>
        <pt x="732" y="60" on="1"/>
        <pt x="732" y="402" on="1"/>
        <pt x="643" y="402" on="1"/>
        <pt x="597" y="402" on="0"/>
        <pt x="545" y="356" on="0"/>
        <pt x="510" y="294" on="1"/>
        <pt x="374" y="52" on="1"/>
        <pt x="345" y="0" on="0"/>
        <pt x="292" y="0" on="1"/>
      </contour>
      <contour>
        <pt x="410" y="731" on="1"/>
        <pt x="410" y="646" on="0"/>
        <pt x="540" y="598" on="0"/>
        <pt x="640" y="598" on="1"/>
        <pt x="732" y="598" on="1"/>
        <pt x="732" y="854" on="1"/>
        <pt x="621" y="854" on="1"/>
        <pt x="498" y="854" on="0"/>
        <pt x="410" y="795" on="0"/>
      </contour>
    </TTGlyph>
    <TTGlyph name="afii10098" xMin="136" yMin="0" xMax="888" yMax="1366">
      <contour>
        <pt x="196" y="0" on="1"/>
        <pt x="136" y="0" on="0"/>
        <pt x="136" y="60" on="1"/>
        <pt x="136" y="990" on="1"/>
        <pt x="136" y="1050" on="0"/>
        <pt x="196" y="1050" on="1"/>
        <pt x="658" y="1050" on="1"/>
        <pt x="658" y="1306" on="1"/>
        <pt x="658" y="1366" on="0"/>
        <pt x="713" y="1366" on="1"/>
        <pt x="833" y="1366" on="1"/>
        <pt x="888" y="1366" on="0"/>
        <pt x="888" y="1306" on="1"/>
        <pt x="888" y="910" on="1"/>
        <pt x="888" y="850" on="0"/>
        <pt x="828" y="850" on="1"/>
        <pt x="416" y="850" on="1"/>
        <pt x="416" y="60" on="1"/>
        <pt x="416" y="0" on="0"/>
        <pt x="356" y="0" on="1"/>
      </contour>
    </TTGlyph>
    <TTGlyph name="afii10099" xMin="47" yMin="-421" xMax="1127" yMax="1476">
      <contour>
        <pt x="107" y="870" on="1"/>
        <pt x="47" y="870" on="0"/>
        <pt x="47" y="920" on="1"/>
        <pt x="47" y="1020" on="1"/>
        <pt x="47" y="1070" on="0"/>
        <pt x="107" y="1070" on="1"/>
        <pt x="198" y="1070" on="1"/>
        <pt x="198" y="1416" on="1"/>
        <pt x="198" y="1476" on="0"/>
        <pt x="258" y="1476" on="1"/>
        <pt x="418" y="1476" on="1"/>
        <pt x="478" y="1476" on="0"/>
        <pt x="478" y="1416" on="1"/>
        <pt x="478" y="1070" on="1"/>
        <pt x="841" y="1070" on="1"/>
        <pt x="901" y="1070" on="0"/>
        <pt x="901" y="1020" on="1"/>
        <pt x="901" y="920" on="1"/>
        <pt x="901" y="870" on="0"/>
        <pt x="841" y="870" on="1"/>
        <pt x="478" y="870" on="1"/>
        <pt x="478" y="667" on="1"/>
        <pt x="478" y="627" on="0"/>
        <pt x="474" y="587" on="1"/>
        <pt x="480" y="587" on="1"/>
        <pt x="526" y="666" on="0"/>
        <pt x="663" y="725" on="0"/>
        <pt x="758" y="725" on="1"/>
        <pt x="906" y="725" on="0"/>
        <pt x="1127" y="537" on="0"/>
        <pt x="1127" y="269" on="1"/>
        <pt x="1127" y="9" on="0"/>
        <pt x="849" y="-306" on="0"/>
        <pt x="636" y="-396" on="1"/>
        <pt x="576" y="-421" on="0"/>
        <pt x="558" y="-378" on="1"/>
        <pt x="525" y="-300" on="1"/>
        <pt x="508" y="-259" on="0"/>
        <pt x="555" y="-228" on="1"/>
        <pt x="642" y="-171" on="0"/>
        <pt x="831" y="39" on="0"/>
        <pt x="831" y="254" on="1"/>
        <pt x="831" y="366" on="0"/>
        <pt x="771" y="529" on="0"/>
        <pt x="679" y="529" on="1"/>
        <pt x="579" y="529" on="0"/>
        <pt x="478" y="360" on="0"/>
        <pt x="478" y="149" on="1"/>
        <pt x="478" y="60" on="1"/>
        <pt x="478" y="0" on="0"/>
        <pt x="418" y="0" on="1"/>
        <pt x="258" y="0" on="1"/>
        <pt x="198" y="0" on="0"/>
        <pt x="198" y="60" on="1"/>
        <pt x="198" y="870" on="1"/>
      </contour>
    </TTGlyph>
    <TTGlyph name="afii10100" xMin="136" yMin="0" xMax="886" yMax="1435">
      <component glyphName="afii10068" x="0" y="0" flags="0x1204"/>
      <component glyphName="acute" x="183" y="0" flags="0x1004"/>
    </TTGlyph>
    <TTGlyph name="afii10101" xMin="80" yMin="-20" xMax="1034" yMax="1070">
      <contour>
        <pt x="996" y="111" on="1"/>
        <pt x="944" y="60" on="0"/>
        <pt x="786" y="-20" on="0"/>
        <pt x="601" y="-20" on="1"/>
        <pt x="336" y="-20" on="0"/>
        <pt x="80" y="270" on="0"/>
        <pt x="80" y="525" on="1"/>
        <pt x="80" y="780" on="0"/>
        <pt x="336" y="1070" on="0"/>
        <pt x="601" y="1070" on="1"/>
        <pt x="724" y="1070" on="0"/>
        <pt x="909" y="1011" on="0"/>
        <pt x="974" y="945" on="1"/>
        <pt x="1012" y="907" on="0"/>
        <pt x="972" y="870" on="1"/>
        <pt x="888" y="792" on="1"/>
        <pt x="855" y="761" on="0"/>
        <pt x="811" y="800" on="1"/>
        <pt x="762" y="843" on="0"/>
        <pt x="648" y="874" on="0"/>
        <pt x="601" y="874" on="1"/>
        <pt x="492" y="874" on="0"/>
        <pt x="391" y="758" on="0"/>
        <pt x="381" y="648" on="1"/>
        <pt x="729" y="648" on="1"/>
        <pt x="789" y="648" on="0"/>
        <pt x="789" y="598" on="1"/>
        <pt x="789" y="498" on="1"/>
        <pt x="789" y="448" on="0"/>
        <pt x="729" y="448" on="1"/>
        <pt x="377" y="448" on="1"/>
        <pt x="387" y="300" on="0"/>
        <pt x="488" y="176" on="0"/>
        <pt x="601" y="176" on="1"/>
        <pt x="700" y="176" on="0"/>
        <pt x="794" y="236" on="0"/>
        <pt x="830" y="272" on="1"/>
        <pt x="871" y="313" on="0"/>
        <pt x="910" y="274" on="1"/>
        <pt x="991" y="192" on="1"/>
        <pt x="1034" y="148" on="0"/>
      </contour>
    </TTGlyph>
    <TTGlyph name="afii10102" xMin="44" yMin="-20" xMax="934" yMax="1070">
      <component glyphName="s" x="0" y="0" flags="0x1204"/>
    </TTGlyph>
    <TTGlyph name="afii10103" xMin="136" yMin="0" xMax="416" yMax="1452">
      <component glyphName="i" x="0" y="0" flags="0x1204"/>
    </TTGlyph>
    <TTGlyph name="afii10104" xMin="-17" yMin="0" xMax="569" yMax="1438">
      <component glyphName="idieresis" x="0" y="0" flags="0x1204"/>
    </TTGlyph>
    <TTGlyph name="afii10105" xMin="-119" yMin="-420" xMax="426" yMax="1452">
      <component glyphName="j" x="0" y="0" flags="0x1204"/>
    </TTGlyph>
    <TTGlyph name="afii10106" xMin="32" yMin="-20" xMax="1634" yMax="1050">
      <contour>
        <pt x="63" y="-8" on="1"/>
        <pt x="32" y="5" on="0"/>
        <pt x="38" y="33" on="1"/>
        <pt x="63" y="158" on="1"/>
        <pt x="69" y="190" on="0"/>
        <pt x="96" y="183" on="1"/>
        <pt x="124" y="176" on="0"/>
        <pt x="146" y="176" on="1"/>
        <pt x="243" y="176" on="0"/>
        <pt x="342" y="375" on="0"/>
        <pt x="342" y="774" on="1"/>
        <pt x="342" y="990" on="1"/>
        <pt x="342" y="1050" on="0"/>
        <pt x="402" y="1050" on="1"/>
        <pt x="998" y="1050" on="1"/>
        <pt x="1058" y="1050" on="0"/>
        <pt x="1058" y="990" on="1"/>
        <pt x="1058" y="648" on="1"/>
        <pt x="1245" y="648" on="1"/>
        <pt x="1485" y="648" on="0"/>
        <pt x="1634" y="454" on="0"/>
        <pt x="1634" y="324" on="1"/>
        <pt x="1634" y="194" on="0"/>
        <pt x="1485" y="0" on="0"/>
        <pt x="1245" y="0" on="1"/>
        <pt x="838" y="0" on="1"/>
        <pt x="778" y="0" on="0"/>
        <pt x="778" y="60" on="1"/>
        <pt x="778" y="850" on="1"/>
        <pt x="572" y="850" on="1"/>
        <pt x="572" y="723" on="1"/>
        <pt x="572" y="321" on="0"/>
        <pt x="408" y="-20" on="0"/>
        <pt x="168" y="-20" on="1"/>
        <pt x="92" y="-20" on="0"/>
      </contour>
      <contour>
        <pt x="1058" y="196" on="1"/>
        <pt x="1127" y="196" on="1"/>
        <pt x="1247" y="196" on="0"/>
        <pt x="1338" y="254" on="0"/>
        <pt x="1338" y="324" on="1"/>
        <pt x="1338" y="394" on="0"/>
        <pt x="1247" y="452" on="0"/>
        <pt x="1127" y="452" on="1"/>
        <pt x="1058" y="452" on="1"/>
      </contour>
    </TTGlyph>
    <TTGlyph name="afii10107" xMin="136" yMin="0" xMax="1632" yMax="1050">
      <contour>
        <pt x="196" y="0" on="1"/>
        <pt x="136" y="0" on="0"/>
        <pt x="136" y="60" on="1"/>
        <pt x="136" y="990" on="1"/>
        <pt x="136" y="1050" on="0"/>
        <pt x="196" y="1050" on="1"/>
        <pt x="356" y="1050" on="1"/>
        <pt x="416" y="1050" on="0"/>
        <pt x="416" y="990" on="1"/>
        <pt x="416" y="648" on="1"/>
        <pt x="776" y="648" on="1"/>
        <pt x="776" y="990" on="1"/>
        <pt x="776" y="1050" on="0"/>
        <pt x="836" y="1050" on="1"/>
        <pt x="996" y="1050" on="1"/>
        <pt x="1056" y="1050" on="0"/>
        <pt x="1056" y="990" on="1"/>
        <pt x="1056" y="648" on="1"/>
        <pt x="1243" y="648" on="1"/>
        <pt x="1483" y="648" on="0"/>
        <pt x="1632" y="454" on="0"/>
        <pt x="1632" y="324" on="1"/>
        <pt x="1632" y="194" on="0"/>
        <pt x="1483" y="0" on="0"/>
        <pt x="1243" y="0" on="1"/>
        <pt x="836" y="0" on="1"/>
        <pt x="776" y="0" on="0"/>
        <pt x="776" y="60" on="1"/>
        <pt x="776" y="448" on="1"/>
        <pt x="416" y="448" on="1"/>
        <pt x="416" y="60" on="1"/>
        <pt x="416" y="0" on="0"/>
        <pt x="356" y="0" on="1"/>
      </contour>
      <contour>
        <pt x="1056" y="196" on="1"/>
        <pt x="1125" y="196" on="1"/>
        <pt x="1245" y="196" on="0"/>
        <pt x="1336" y="254" on="0"/>
        <pt x="1336" y="324" on="1"/>
        <pt x="1336" y="394" on="0"/>
        <pt x="1245" y="452" on="0"/>
        <pt x="1125" y="452" on="1"/>
        <pt x="1056" y="452" on="1"/>
      </contour>
    </TTGlyph>
    <TTGlyph name="afii10108" xMin="47" yMin="0" xMax="1108" yMax="1476">
      <contour>
        <pt x="107" y="870" on="1"/>
        <pt x="47" y="870" on="0"/>
        <pt x="47" y="920" on="1"/>
        <pt x="47" y="1020" on="1"/>
        <pt x="47" y="1070" on="0"/>
        <pt x="107" y="1070" on="1"/>
        <pt x="198" y="1070" on="1"/>
        <pt x="198" y="1416" on="1"/>
        <pt x="198" y="1476" on="0"/>
        <pt x="258" y="1476" on="1"/>
        <pt x="418" y="1476" on="1"/>
        <pt x="478" y="1476" on="0"/>
        <pt x="478" y="1416" on="1"/>
        <pt x="478" y="1070" on="1"/>
        <pt x="841" y="1070" on="1"/>
        <pt x="901" y="1070" on="0"/>
        <pt x="901" y="1020" on="1"/>
        <pt x="901" y="920" on="1"/>
        <pt x="901" y="870" on="0"/>
        <pt x="841" y="870" on="1"/>
        <pt x="478" y="870" on="1"/>
        <pt x="478" y="667" on="1"/>
        <pt x="478" y="627" on="0"/>
        <pt x="474" y="587" on="1"/>
        <pt x="480" y="587" on="1"/>
        <pt x="526" y="666" on="0"/>
        <pt x="663" y="725" on="0"/>
        <pt x="758" y="725" on="1"/>
        <pt x="912" y="725" on="0"/>
        <pt x="1108" y="529" on="0"/>
        <pt x="1108" y="269" on="1"/>
        <pt x="1108" y="60" on="1"/>
        <pt x="1108" y="0" on="0"/>
        <pt x="1048" y="0" on="1"/>
        <pt x="888" y="0" on="1"/>
        <pt x="828" y="0" on="0"/>
        <pt x="828" y="60" on="1"/>
        <pt x="828" y="207" on="1"/>
        <pt x="828" y="405" on="0"/>
        <pt x="771" y="529" on="0"/>
        <pt x="679" y="529" on="1"/>
        <pt x="579" y="529" on="0"/>
        <pt x="478" y="360" on="0"/>
        <pt x="478" y="149" on="1"/>
        <pt x="478" y="60" on="1"/>
        <pt x="478" y="0" on="0"/>
        <pt x="418" y="0" on="1"/>
        <pt x="258" y="0" on="1"/>
        <pt x="198" y="0" on="0"/>
        <pt x="198" y="60" on="1"/>
        <pt x="198" y="870" on="1"/>
      </contour>
    </TTGlyph>
    <TTGlyph name="afii10109" xMin="136" yMin="0" xMax="1067" yMax="1435">
      <component glyphName="afii10076" x="0" y="0" flags="0x1204"/>
      <component glyphName="acute" x="254" y="0" flags="0x1004"/>
    </TTGlyph>
    <TTGlyph name="afii10110" xMin="17" yMin="-420" xMax="990" yMax="1471">
      <component glyphName="afii10085" x="0" y="0" flags="0x1204"/>
      <component glyphName="cyrbreve" x="-83" y="0" flags="0x1004"/>
    </TTGlyph>
    <TTGlyph name="afii10145" xMin="160" yMin="-370" xMax="1270" yMax="1434">
      <contour>
        <pt x="230" y="0" on="1"/>
        <pt x="160" y="0" on="0"/>
        <pt x="160" y="75" on="1"/>
        <pt x="160" y="1359" on="1"/>
        <pt x="160" y="1434" on="0"/>
        <pt x="230" y="1434" on="1"/>
        <pt x="382" y="1434" on="1"/>
        <pt x="452" y="1434" on="0"/>
        <pt x="452" y="1359" on="1"/>
        <pt x="452" y="248" on="1"/>
        <pt x="978" y="248" on="1"/>
        <pt x="978" y="1359" on="1"/>
        <pt x="978" y="1434" on="0"/>
        <pt x="1048" y="1434" on="1"/>
        <pt x="1200" y="1434" on="1"/>
        <pt x="1270" y="1434" on="0"/>
        <pt x="1270" y="1359" on="1"/>
        <pt x="1270" y="75" on="1"/>
        <pt x="1270" y="0" on="0"/>
        <pt x="1200" y="0" on="1"/>
        <pt x="840" y="0" on="1"/>
        <pt x="840" y="-300" on="1"/>
        <pt x="840" y="-370" on="0"/>
        <pt x="780" y="-370" on="1"/>
        <pt x="650" y="-370" on="1"/>
        <pt x="590" y="-370" on="0"/>
        <pt x="590" y="-300" on="1"/>
        <pt x="590" y="0" on="1"/>
      </contour>
    </TTGlyph>
    <TTGlyph name="afii10146" xMin="36" yMin="0" xMax="1549" yMax="1434">
      <contour>
        <pt x="111" y="1028" on="1"/>
        <pt x="36" y="1028" on="0"/>
        <pt x="36" y="1093" on="1"/>
        <pt x="36" y="1211" on="1"/>
        <pt x="36" y="1276" on="0"/>
        <pt x="111" y="1276" on="1"/>
        <pt x="444" y="1276" on="1"/>
        <pt x="444" y="1359" on="1"/>
        <pt x="444" y="1434" on="0"/>
        <pt x="514" y="1434" on="1"/>
        <pt x="666" y="1434" on="1"/>
        <pt x="736" y="1434" on="0"/>
        <pt x="736" y="1359" on="1"/>
        <pt x="736" y="1276" on="1"/>
        <pt x="1069" y="1276" on="1"/>
        <pt x="1144" y="1276" on="0"/>
        <pt x="1144" y="1211" on="1"/>
        <pt x="1144" y="1093" on="1"/>
        <pt x="1144" y="1028" on="0"/>
        <pt x="1069" y="1028" on="1"/>
        <pt x="736" y="1028" on="1"/>
        <pt x="736" y="870" on="1"/>
        <pt x="891" y="870" on="1"/>
        <pt x="1261" y="870" on="0"/>
        <pt x="1549" y="635" on="0"/>
        <pt x="1549" y="435" on="1"/>
        <pt x="1549" y="235" on="0"/>
        <pt x="1261" y="0" on="0"/>
        <pt x="891" y="0" on="1"/>
        <pt x="514" y="0" on="1"/>
        <pt x="444" y="0" on="0"/>
        <pt x="444" y="75" on="1"/>
        <pt x="444" y="1028" on="1"/>
      </contour>
      <contour>
        <pt x="736" y="244" on="1"/>
        <pt x="862" y="244" on="1"/>
        <pt x="1072" y="244" on="0"/>
        <pt x="1237" y="315" on="0"/>
        <pt x="1237" y="435" on="1"/>
        <pt x="1237" y="555" on="0"/>
        <pt x="1072" y="626" on="0"/>
        <pt x="862" y="626" on="1"/>
        <pt x="736" y="626" on="1"/>
      </contour>
    </TTGlyph>
    <TTGlyph name="afii10147" xMin="86" yMin="-34" xMax="1458" yMax="1468">
      <contour>
        <pt x="86" y="717" on="1"/>
        <pt x="86" y="1062" on="0"/>
        <pt x="442" y="1468" on="0"/>
        <pt x="772" y="1468" on="1"/>
        <pt x="1102" y="1468" on="0"/>
        <pt x="1458" y="1062" on="0"/>
        <pt x="1458" y="717" on="1"/>
        <pt x="1458" y="372" on="0"/>
        <pt x="1102" y="-34" on="0"/>
        <pt x="772" y="-34" on="1"/>
        <pt x="442" y="-34" on="0"/>
        <pt x="86" y="372" on="0"/>
      </contour>
      <contour>
        <pt x="402" y="622" on="1"/>
        <pt x="408" y="454" on="0"/>
        <pt x="577" y="202" on="0"/>
        <pt x="772" y="202" on="1"/>
        <pt x="967" y="202" on="0"/>
        <pt x="1136" y="454" on="0"/>
        <pt x="1142" y="622" on="1"/>
      </contour>
      <contour>
        <pt x="408" y="870" on="1"/>
        <pt x="1136" y="870" on="1"/>
        <pt x="1128" y="986" on="0"/>
        <pt x="967" y="1232" on="0"/>
        <pt x="772" y="1232" on="1"/>
        <pt x="577" y="1232" on="0"/>
        <pt x="416" y="986" on="0"/>
      </contour>
    </TTGlyph>
    <TTGlyph name="afii10148" xMin="18" yMin="0" xMax="1568" yMax="1468">
      <contour>
        <pt x="43" y="1368" on="1"/>
        <pt x="18" y="1434" on="0"/>
        <pt x="90" y="1434" on="1"/>
        <pt x="249" y="1434" on="1"/>
        <pt x="316" y="1434" on="0"/>
        <pt x="341" y="1365" on="1"/>
        <pt x="647" y="530" on="1"/>
        <pt x="671" y="466" on="0"/>
        <pt x="678" y="423" on="0"/>
        <pt x="683" y="373" on="1"/>
        <pt x="687" y="373" on="1"/>
        <pt x="692" y="423" on="0"/>
        <pt x="700" y="466" on="0"/>
        <pt x="723" y="530" on="1"/>
        <pt x="896" y="999" on="1"/>
        <pt x="1009" y="1305" on="0"/>
        <pt x="1192" y="1468" on="0"/>
        <pt x="1379" y="1468" on="1"/>
        <pt x="1434" y="1468" on="0"/>
        <pt x="1512" y="1442" on="1"/>
        <pt x="1568" y="1423" on="0"/>
        <pt x="1557" y="1383" on="1"/>
        <pt x="1521" y="1254" on="1"/>
        <pt x="1505" y="1195" on="0"/>
        <pt x="1454" y="1220" on="1"/>
        <pt x="1430" y="1232" on="0"/>
        <pt x="1380" y="1232" on="1"/>
        <pt x="1296" y="1232" on="0"/>
        <pt x="1155" y="906" on="0"/>
        <pt x="1095" y="744" on="1"/>
        <pt x="849" y="81" on="1"/>
        <pt x="819" y="0" on="0"/>
        <pt x="755" y="0" on="1"/>
        <pt x="615" y="0" on="1"/>
        <pt x="551" y="0" on="0"/>
        <pt x="521" y="81" on="1"/>
      </contour>
    </TTGlyph>
    <TTGlyph name="afii10193" xMin="136" yMin="-310" xMax="1042" yMax="1050">
      <contour>
        <pt x="196" y="0" on="1"/>
        <pt x="136" y="0" on="0"/>
        <pt x="136" y="60" on="1"/>
        <pt x="136" y="990" on="1"/>
        <pt x="136" y="1050" on="0"/>
        <pt x="196" y="1050" on="1"/>
        <pt x="356" y="1050" on="1"/>
        <pt x="416" y="1050" on="0"/>
        <pt x="416" y="990" on="1"/>
        <pt x="416" y="200" on="1"/>
        <pt x="762" y="200" on="1"/>
        <pt x="762" y="990" on="1"/>
        <pt x="762" y="1050" on="0"/>
        <pt x="822" y="1050" on="1"/>
        <pt x="982" y="1050" on="1"/>
        <pt x="1042" y="1050" on="0"/>
        <pt x="1042" y="990" on="1"/>
        <pt x="1042" y="60" on="1"/>
        <pt x="1042" y="0" on="0"/>
        <pt x="982" y="0" on="1"/>
        <pt x="704" y="0" on="1"/>
        <pt x="704" y="-250" on="1"/>
        <pt x="704" y="-310" on="0"/>
        <pt x="649" y="-310" on="1"/>
        <pt x="529" y="-310" on="1"/>
        <pt x="474" y="-310" on="0"/>
        <pt x="474" y="-250" on="1"/>
        <pt x="474" y="0" on="1"/>
      </contour>
    </TTGlyph>
    <TTGlyph name="afii10194" xMin="47" yMin="0" xMax="1210" yMax="1476">
      <contour>
        <pt x="107" y="850" on="1"/>
        <pt x="47" y="850" on="0"/>
        <pt x="47" y="900" on="1"/>
        <pt x="47" y="1000" on="1"/>
        <pt x="47" y="1050" on="0"/>
        <pt x="107" y="1050" on="1"/>
        <pt x="354" y="1050" on="1"/>
        <pt x="354" y="1416" on="1"/>
        <pt x="354" y="1476" on="0"/>
        <pt x="414" y="1476" on="1"/>
        <pt x="574" y="1476" on="1"/>
        <pt x="634" y="1476" on="0"/>
        <pt x="634" y="1416" on="1"/>
        <pt x="634" y="1050" on="1"/>
        <pt x="881" y="1050" on="1"/>
        <pt x="941" y="1050" on="0"/>
        <pt x="941" y="1000" on="1"/>
        <pt x="941" y="900" on="1"/>
        <pt x="941" y="850" on="0"/>
        <pt x="881" y="850" on="1"/>
        <pt x="634" y="850" on="1"/>
        <pt x="634" y="648" on="1"/>
        <pt x="821" y="648" on="1"/>
        <pt x="1061" y="648" on="0"/>
        <pt x="1210" y="454" on="0"/>
        <pt x="1210" y="324" on="1"/>
        <pt x="1210" y="194" on="0"/>
        <pt x="1061" y="0" on="0"/>
        <pt x="821" y="0" on="1"/>
        <pt x="414" y="0" on="1"/>
        <pt x="354" y="0" on="0"/>
        <pt x="354" y="60" on="1"/>
        <pt x="354" y="850" on="1"/>
      </contour>
      <contour>
        <pt x="634" y="196" on="1"/>
        <pt x="703" y="196" on="1"/>
        <pt x="823" y="196" on="0"/>
        <pt x="914" y="254" on="0"/>
        <pt x="914" y="324" on="1"/>
        <pt x="914" y="394" on="0"/>
        <pt x="823" y="452" on="0"/>
        <pt x="703" y="452" on="1"/>
        <pt x="634" y="452" on="1"/>
      </contour>
    </TTGlyph>
    <TTGlyph name="afii10195" xMin="80" yMin="-20" xMax="1126" yMax="1070">
      <contour>
        <pt x="80" y="525" on="1"/>
        <pt x="80" y="780" on="0"/>
        <pt x="343" y="1070" on="0"/>
        <pt x="603" y="1070" on="1"/>
        <pt x="863" y="1070" on="0"/>
        <pt x="1126" y="780" on="0"/>
        <pt x="1126" y="525" on="1"/>
        <pt x="1126" y="270" on="0"/>
        <pt x="863" y="-20" on="0"/>
        <pt x="603" y="-20" on="1"/>
        <pt x="343" y="-20" on="0"/>
        <pt x="80" y="270" on="0"/>
      </contour>
      <contour>
        <pt x="379" y="448" on="1"/>
        <pt x="388" y="318" on="0"/>
        <pt x="492" y="176" on="0"/>
        <pt x="603" y="176" on="1"/>
        <pt x="714" y="176" on="0"/>
        <pt x="818" y="318" on="0"/>
        <pt x="827" y="448" on="1"/>
      </contour>
      <contour>
        <pt x="384" y="648" on="1"/>
        <pt x="822" y="648" on="1"/>
        <pt x="808" y="744" on="0"/>
        <pt x="714" y="874" on="0"/>
        <pt x="603" y="874" on="1"/>
        <pt x="492" y="874" on="0"/>
        <pt x="398" y="744" on="0"/>
      </contour>
    </TTGlyph>
    <TTGlyph name="afii10196" xMin="17" yMin="0" xMax="1156" yMax="1070">
      <contour>
        <pt x="42" y="972" on="1"/>
        <pt x="17" y="1050" on="0"/>
        <pt x="75" y="1050" on="1"/>
        <pt x="254" y="1050" on="1"/>
        <pt x="301" y="1050" on="0"/>
        <pt x="314" y="999" on="1"/>
        <pt x="469" y="413" on="1"/>
        <pt x="482" y="364" on="0"/>
        <pt x="499" y="268" on="0"/>
        <pt x="501" y="238" on="1"/>
        <pt x="507" y="238" on="1"/>
        <pt x="509" y="268" on="0"/>
        <pt x="526" y="366" on="0"/>
        <pt x="539" y="413" on="1"/>
        <pt x="606" y="662" on="1"/>
        <pt x="661" y="868" on="0"/>
        <pt x="825" y="1070" on="0"/>
        <pt x="966" y="1070" on="1"/>
        <pt x="1041" y="1070" on="0"/>
        <pt x="1110" y="1049" on="1"/>
        <pt x="1156" y="1033" on="0"/>
        <pt x="1141" y="986" on="1"/>
        <pt x="1109" y="888" on="1"/>
        <pt x="1092" y="837" on="0"/>
        <pt x="1067" y="859" on="1"/>
        <pt x="1050" y="874" on="0"/>
        <pt x="1008" y="874" on="1"/>
        <pt x="948" y="874" on="0"/>
        <pt x="850" y="623" on="0"/>
        <pt x="820" y="528" on="1"/>
        <pt x="676" y="67" on="1"/>
        <pt x="655" y="0" on="0"/>
        <pt x="603" y="0" on="1"/>
        <pt x="405" y="0" on="1"/>
        <pt x="353" y="0" on="0"/>
        <pt x="332" y="67" on="1"/>
      </contour>
    </TTGlyph>
    <TTGlyph name="afii10846" xMin="82" yMin="-20" xMax="1094" yMax="1070">
      <contour>
        <pt x="82" y="578" on="1"/>
        <pt x="82" y="638" on="0"/>
        <pt x="138" y="638" on="1"/>
        <pt x="798" y="638" on="1"/>
        <pt x="783" y="780" on="0"/>
        <pt x="657" y="874" on="0"/>
        <pt x="563" y="874" on="1"/>
        <pt x="480" y="874" on="0"/>
        <pt x="384" y="831" on="0"/>
        <pt x="346" y="800" on="1"/>
        <pt x="298" y="761" on="0"/>
        <pt x="261" y="799" on="1"/>
        <pt x="189" y="872" on="1"/>
        <pt x="142" y="920" on="0"/>
        <pt x="186" y="960" on="1"/>
        <pt x="246" y="1014" on="0"/>
        <pt x="418" y="1070" on="0"/>
        <pt x="563" y="1070" on="1"/>
        <pt x="837" y="1070" on="0"/>
        <pt x="1094" y="771" on="0"/>
        <pt x="1094" y="525" on="1"/>
        <pt x="1094" y="273" on="0"/>
        <pt x="840" y="-20" on="0"/>
        <pt x="590" y="-20" on="1"/>
        <pt x="336" y="-20" on="0"/>
        <pt x="82" y="282" on="0"/>
      </contour>
      <contour>
        <pt x="362" y="438" on="1"/>
        <pt x="362" y="324" on="0"/>
        <pt x="470" y="177" on="0"/>
        <pt x="588" y="177" on="1"/>
        <pt x="682" y="177" on="0"/>
        <pt x="786" y="309" on="0"/>
        <pt x="797" y="438" on="1"/>
      </contour>
    </TTGlyph>
    <TTGlyph name="afii61289" xMin="55" yMin="-23" xMax="940" yMax="1487">
      <contour>
        <pt x="55" y="314" on="1"/>
        <pt x="55" y="413" on="1"/>
        <pt x="55" y="461" on="0"/>
        <pt x="100" y="492" on="1"/>
        <pt x="144" y="522" on="0"/>
        <pt x="175" y="555" on="1"/>
        <pt x="175" y="939" on="1"/>
        <pt x="175" y="1245" on="0"/>
        <pt x="389" y="1487" on="0"/>
        <pt x="550" y="1487" on="1"/>
        <pt x="716" y="1487" on="0"/>
        <pt x="877" y="1308" on="0"/>
        <pt x="877" y="1194" on="1"/>
        <pt x="877" y="1032" on="0"/>
        <pt x="720" y="703" on="0"/>
        <pt x="435" y="501" on="1"/>
        <pt x="435" y="367" on="1"/>
        <pt x="435" y="240" on="0"/>
        <pt x="522" y="178" on="0"/>
        <pt x="568" y="178" on="1"/>
        <pt x="642" y="178" on="0"/>
        <pt x="739" y="245" on="0"/>
        <pt x="768" y="286" on="1"/>
        <pt x="799" y="329" on="0"/>
        <pt x="838" y="302" on="1"/>
        <pt x="902" y="258" on="1"/>
        <pt x="940" y="232" on="0"/>
        <pt x="910" y="184" on="1"/>
        <pt x="854" y="94" on="0"/>
        <pt x="674" y="-23" on="0"/>
        <pt x="529" y="-23" on="1"/>
        <pt x="369" y="-23" on="0"/>
        <pt x="175" y="156" on="0"/>
        <pt x="175" y="317" on="1"/>
        <pt x="175" y="319" on="1"/>
        <pt x="175" y="339" on="0"/>
        <pt x="177" y="359" on="1"/>
        <pt x="175" y="359" on="1"/>
        <pt x="141" y="319" on="0"/>
        <pt x="110" y="298" on="1"/>
        <pt x="55" y="261" on="0"/>
      </contour>
      <contour>
        <pt x="431" y="713" on="1"/>
        <pt x="435" y="713" on="1"/>
        <pt x="576" y="847" on="0"/>
        <pt x="650" y="1050" on="0"/>
        <pt x="650" y="1198" on="1"/>
        <pt x="650" y="1242" on="0"/>
        <pt x="604" y="1297" on="0"/>
        <pt x="560" y="1297" on="1"/>
        <pt x="484" y="1297" on="0"/>
        <pt x="435" y="1125" on="0"/>
        <pt x="435" y="927" on="1"/>
        <pt x="435" y="793" on="1"/>
        <pt x="435" y="753" on="0"/>
      </contour>
    </TTGlyph>
    <TTGlyph name="agrave" xMin="80" yMin="-20" xMax="987" yMax="1435">
      <component glyphName="gravecomb" x="782" y="0" flags="0x1004"/>
      <component glyphName="a" x="0" y="0" flags="0x1204"/>
    </TTGlyph>
    <TTGlyph name="amacron" xMin="80" yMin="-20" xMax="987" yMax="1392">
      <component glyphName="uni0304" x="863" y="0" flags="0x1004"/>
      <component glyphName="a" x="0" y="0" flags="0x1204"/>
    </TTGlyph>
    <TTGlyph name="ampersand" xMin="112" yMin="-34" xMax="1410" yMax="1468">
      <contour>
        <pt x="112" y="316" on="1"/>
        <pt x="112" y="464" on="0"/>
        <pt x="262" y="690" on="0"/>
        <pt x="443" y="820" on="1"/>
        <pt x="372" y="900" on="0"/>
        <pt x="270" y="1041" on="0"/>
        <pt x="270" y="1164" on="1"/>
        <pt x="270" y="1284" on="0"/>
        <pt x="459" y="1468" on="0"/>
        <pt x="676" y="1468" on="1"/>
        <pt x="810" y="1468" on="0"/>
        <pt x="1041" y="1332" on="0"/>
        <pt x="1041" y="1165" on="1"/>
        <pt x="1041" y="1041" on="0"/>
        <pt x="937" y="866" on="0"/>
        <pt x="815" y="774" on="1"/>
        <pt x="1055" y="460" on="1"/>
        <pt x="1100" y="502" on="0"/>
        <pt x="1174" y="610" on="0"/>
        <pt x="1187" y="640" on="1"/>
        <pt x="1215" y="705" on="0"/>
        <pt x="1274" y="670" on="1"/>
        <pt x="1380" y="606" on="1"/>
        <pt x="1410" y="590" on="0"/>
        <pt x="1386" y="531" on="1"/>
        <pt x="1358" y="462" on="0"/>
        <pt x="1272" y="338" on="0"/>
        <pt x="1197" y="273" on="1"/>
        <pt x="1353" y="66" on="1"/>
        <pt x="1403" y="0" on="0"/>
        <pt x="1322" y="0" on="1"/>
        <pt x="1137" y="0" on="1"/>
        <pt x="1063" y="0" on="0"/>
        <pt x="1020" y="59" on="1"/>
        <pt x="984" y="108" on="1"/>
        <pt x="884" y="28" on="0"/>
        <pt x="670" y="-34" on="0"/>
        <pt x="529" y="-34" on="1"/>
        <pt x="348" y="-34" on="0"/>
        <pt x="112" y="134" on="0"/>
      </contour>
      <contour>
        <pt x="412" y="328" on="1"/>
        <pt x="412" y="261" on="0"/>
        <pt x="507" y="184" on="0"/>
        <pt x="570" y="184" on="1"/>
        <pt x="654" y="184" on="0"/>
        <pt x="776" y="228" on="0"/>
        <pt x="846" y="288" on="1"/>
        <pt x="590" y="624" on="1"/>
        <pt x="494" y="546" on="0"/>
        <pt x="412" y="426" on="0"/>
      </contour>
      <contour>
        <pt x="540" y="1153" on="1"/>
        <pt x="540" y="1083" on="0"/>
        <pt x="615" y="996" on="0"/>
        <pt x="660" y="951" on="1"/>
        <pt x="723" y="1008" on="0"/>
        <pt x="771" y="1069" on="0"/>
        <pt x="771" y="1135" on="1"/>
        <pt x="771" y="1185" on="0"/>
        <pt x="708" y="1238" on="0"/>
        <pt x="654" y="1238" on="1"/>
        <pt x="597" y="1238" on="0"/>
        <pt x="540" y="1173" on="0"/>
      </contour>
    </TTGlyph>
    <TTGlyph name="aogonek" xMin="80" yMin="-420" xMax="990" yMax="1070">
      <contour>
        <pt x="80" y="280" on="1"/>
        <pt x="80" y="480" on="0"/>
        <pt x="462" y="660" on="0"/>
        <pt x="707" y="666" on="1"/>
        <pt x="707" y="706" on="1"/>
        <pt x="707" y="798" on="0"/>
        <pt x="615" y="874" on="0"/>
        <pt x="533" y="874" on="1"/>
        <pt x="475" y="874" on="0"/>
        <pt x="386" y="841" on="0"/>
        <pt x="321" y="798" on="0"/>
        <pt x="295" y="776" on="1"/>
        <pt x="249" y="736" on="0"/>
        <pt x="219" y="772" on="1"/>
        <pt x="136" y="874" on="1"/>
        <pt x="105" y="912" on="0"/>
        <pt x="151" y="952" on="1"/>
        <pt x="186" y="983" on="0"/>
        <pt x="279" y="1029" on="0"/>
        <pt x="433" y="1070" on="0"/>
        <pt x="556" y="1070" on="1"/>
        <pt x="764" y="1070" on="0"/>
        <pt x="987" y="878" on="0"/>
        <pt x="987" y="691" on="1"/>
        <pt x="987" y="60" on="1"/>
        <pt x="987" y="15" on="0"/>
        <pt x="950" y="-11" on="1"/>
        <pt x="898" y="-54" on="0"/>
        <pt x="772" y="-145" on="0"/>
        <pt x="772" y="-176" on="1"/>
        <pt x="772" y="-207" on="0"/>
        <pt x="819" y="-224" on="0"/>
        <pt x="851" y="-224" on="1"/>
        <pt x="901" y="-224" on="0"/>
        <pt x="932" y="-219" on="1"/>
        <pt x="968" y="-213" on="0"/>
        <pt x="972" y="-250" on="1"/>
        <pt x="986" y="-368" on="1"/>
        <pt x="990" y="-404" on="0"/>
        <pt x="952" y="-411" on="1"/>
        <pt x="908" y="-420" on="0"/>
        <pt x="818" y="-420" on="1"/>
        <pt x="677" y="-420" on="0"/>
        <pt x="536" y="-332" on="0"/>
        <pt x="536" y="-247" on="1"/>
        <pt x="536" y="-211" on="0"/>
        <pt x="555" y="-143" on="0"/>
        <pt x="639" y="-45" on="0"/>
        <pt x="691" y="0" on="1"/>
        <pt x="709" y="13" on="0"/>
        <pt x="709" y="60" on="1"/>
        <pt x="709" y="90" on="1"/>
        <pt x="707" y="90" on="1"/>
        <pt x="648" y="33" on="0"/>
        <pt x="483" y="-20" on="0"/>
        <pt x="414" y="-20" on="1"/>
        <pt x="250" y="-20" on="0"/>
        <pt x="80" y="141" on="0"/>
      </contour>
      <contour>
        <pt x="376" y="286" on="1"/>
        <pt x="376" y="251" on="0"/>
        <pt x="404" y="200" on="0"/>
        <pt x="464" y="176" on="0"/>
        <pt x="501" y="176" on="1"/>
        <pt x="552" y="176" on="0"/>
        <pt x="648" y="204" on="0"/>
        <pt x="707" y="256" on="1"/>
        <pt x="707" y="473" on="1"/>
        <pt x="539" y="454" on="0"/>
        <pt x="425" y="394" on="0"/>
        <pt x="376" y="330" on="0"/>
      </contour>
    </TTGlyph>
    <TTGlyph name="approxequal" xMin="69" yMin="274" xMax="1211" yMax="1086">
      <component glyphName="asciitilde" x="0" y="160" flags="0x1004"/>
      <component glyphName="asciitilde" x="0" y="-250" flags="0x1204"/>
    </TTGlyph>
    <TTGlyph name="aring" xMin="80" yMin="-20" xMax="987" yMax="1499">
      <component glyphName="uni030A" x="863" y="0" flags="0x1004"/>
      <component glyphName="a" x="0" y="0" flags="0x1204"/>
    </TTGlyph>
    <TTGlyph name="asciicircum" xMin="45" yMin="856" xMax="876" yMax="1441">
      <contour>
        <pt x="85" y="929" on="1"/>
        <pt x="45" y="958" on="0"/>
        <pt x="80" y="1007" on="1"/>
        <pt x="370" y="1405" on="1"/>
        <pt x="396" y="1441" on="0"/>
        <pt x="442" y="1441" on="1"/>
        <pt x="478" y="1441" on="1"/>
        <pt x="524" y="1441" on="0"/>
        <pt x="550" y="1405" on="1"/>
        <pt x="840" y="1007" on="1"/>
        <pt x="876" y="958" on="0"/>
        <pt x="835" y="929" on="1"/>
        <pt x="773" y="885" on="1"/>
        <pt x="732" y="856" on="0"/>
        <pt x="698" y="904" on="1"/>
        <pt x="461" y="1233" on="1"/>
        <pt x="459" y="1233" on="1"/>
        <pt x="222" y="904" on="1"/>
        <pt x="188" y="856" on="0"/>
        <pt x="147" y="885" on="1"/>
      </contour>
    </TTGlyph>
    <TTGlyph name="asciitilde" xMin="69" yMin="524" xMax="1211" yMax="926">
      <contour>
        <pt x="100" y="634" on="1"/>
        <pt x="69" y="650" on="0"/>
        <pt x="83" y="688" on="1"/>
        <pt x="128" y="810" on="0"/>
        <pt x="282" y="926" on="0"/>
        <pt x="424" y="926" on="1"/>
        <pt x="554" y="926" on="0"/>
        <pt x="818" y="714" on="0"/>
        <pt x="893" y="714" on="1"/>
        <pt x="968" y="714" on="0"/>
        <pt x="1036" y="776" on="0"/>
        <pt x="1062" y="822" on="1"/>
        <pt x="1088" y="867" on="0"/>
        <pt x="1114" y="852" on="1"/>
        <pt x="1180" y="816" on="1"/>
        <pt x="1211" y="800" on="0"/>
        <pt x="1197" y="762" on="1"/>
        <pt x="1152" y="640" on="0"/>
        <pt x="998" y="524" on="0"/>
        <pt x="856" y="524" on="1"/>
        <pt x="726" y="524" on="0"/>
        <pt x="462" y="736" on="0"/>
        <pt x="387" y="736" on="1"/>
        <pt x="312" y="736" on="0"/>
        <pt x="244" y="674" on="0"/>
        <pt x="218" y="628" on="1"/>
        <pt x="192" y="583" on="0"/>
        <pt x="166" y="598" on="1"/>
      </contour>
    </TTGlyph>
    <TTGlyph name="asterisk" xMin="64" yMin="638" xMax="895" yMax="1478">
      <contour>
        <pt x="348" y="1058" on="1"/>
        <pt x="152" y="1142" on="1"/>
        <pt x="66" y="1179" on="0"/>
        <pt x="108" y="1253" on="1"/>
        <pt x="126" y="1284" on="1"/>
        <pt x="168" y="1356" on="0"/>
        <pt x="243" y="1300" on="1"/>
        <pt x="414" y="1172" on="1"/>
        <pt x="389" y="1385" on="1"/>
        <pt x="378" y="1478" on="0"/>
        <pt x="462" y="1478" on="1"/>
        <pt x="498" y="1478" on="1"/>
        <pt x="582" y="1478" on="0"/>
        <pt x="571" y="1385" on="1"/>
        <pt x="546" y="1172" on="1"/>
        <pt x="717" y="1300" on="1"/>
        <pt x="793" y="1357" on="0"/>
        <pt x="835" y="1283" on="1"/>
        <pt x="853" y="1252" on="1"/>
        <pt x="895" y="1179" on="0"/>
        <pt x="808" y="1142" on="1"/>
        <pt x="612" y="1058" on="1"/>
        <pt x="809" y="973" on="1"/>
        <pt x="895" y="936" on="0"/>
        <pt x="853" y="864" on="1"/>
        <pt x="835" y="833" on="1"/>
        <pt x="793" y="760" on="0"/>
        <pt x="718" y="816" on="1"/>
        <pt x="546" y="944" on="1"/>
        <pt x="571" y="732" on="1"/>
        <pt x="582" y="638" on="0"/>
        <pt x="497" y="638" on="1"/>
        <pt x="462" y="638" on="1"/>
        <pt x="378" y="638" on="0"/>
        <pt x="389" y="732" on="1"/>
        <pt x="414" y="944" on="1"/>
        <pt x="243" y="816" on="1"/>
        <pt x="167" y="759" on="0"/>
        <pt x="125" y="832" on="1"/>
        <pt x="107" y="863" on="1"/>
        <pt x="64" y="936" on="0"/>
        <pt x="152" y="974" on="1"/>
      </contour>
    </TTGlyph>
    <TTGlyph name="at" xMin="112" yMin="-358" xMax="1962" yMax="1500">
      <contour>
        <pt x="112" y="564" on="1"/>
        <pt x="112" y="964" on="0"/>
        <pt x="639" y="1500" on="0"/>
        <pt x="1063" y="1500" on="1"/>
        <pt x="1451" y="1500" on="0"/>
        <pt x="1962" y="1076" on="0"/>
        <pt x="1962" y="700" on="1"/>
        <pt x="1962" y="406" on="0"/>
        <pt x="1675" y="100" on="0"/>
        <pt x="1439" y="100" on="1"/>
        <pt x="1337" y="100" on="0"/>
        <pt x="1213" y="167" on="0"/>
        <pt x="1189" y="271" on="1"/>
        <pt x="1187" y="271" on="1"/>
        <pt x="1126" y="194" on="0"/>
        <pt x="990" y="100" on="0"/>
        <pt x="872" y="100" on="1"/>
        <pt x="755" y="100" on="0"/>
        <pt x="564" y="276" on="0"/>
        <pt x="564" y="487" on="1"/>
        <pt x="564" y="714" on="0"/>
        <pt x="867" y="1043" on="0"/>
        <pt x="1075" y="1043" on="1"/>
        <pt x="1215" y="1043" on="0"/>
        <pt x="1266" y="897" on="1"/>
        <pt x="1270" y="897" on="1"/>
        <pt x="1284" y="958" on="1"/>
        <pt x="1295" y="1006" on="0"/>
        <pt x="1343" y="1006" on="1"/>
        <pt x="1482" y="1006" on="1"/>
        <pt x="1533" y="1006" on="0"/>
        <pt x="1521" y="954" on="1"/>
        <pt x="1401" y="422" on="1"/>
        <pt x="1384" y="347" on="0"/>
        <pt x="1401" y="280" on="0"/>
        <pt x="1450" y="280" on="1"/>
        <pt x="1595" y="280" on="0"/>
        <pt x="1774" y="476" on="0"/>
        <pt x="1774" y="661" on="1"/>
        <pt x="1774" y="972" on="0"/>
        <pt x="1399" y="1318" on="0"/>
        <pt x="1063" y="1318" on="1"/>
        <pt x="731" y="1318" on="0"/>
        <pt x="300" y="892" on="0"/>
        <pt x="300" y="570" on="1"/>
        <pt x="300" y="244" on="0"/>
        <pt x="727" y="-176" on="0"/>
        <pt x="1061" y="-176" on="1"/>
        <pt x="1211" y="-176" on="0"/>
        <pt x="1438" y="-130" on="0"/>
        <pt x="1582" y="-50" on="1"/>
        <pt x="1627" y="-25" on="0"/>
        <pt x="1641" y="-47" on="1"/>
        <pt x="1703" y="-140" on="1"/>
        <pt x="1730" y="-181" on="0"/>
        <pt x="1687" y="-206" on="1"/>
        <pt x="1539" y="-294" on="0"/>
        <pt x="1188" y="-358" on="0"/>
        <pt x="1050" y="-358" on="1"/>
        <pt x="647" y="-358" on="0"/>
        <pt x="112" y="168" on="0"/>
      </contour>
      <contour>
        <pt x="806" y="433" on="1"/>
        <pt x="806" y="366" on="0"/>
        <pt x="870" y="280" on="0"/>
        <pt x="924" y="280" on="1"/>
        <pt x="1017" y="280" on="0"/>
        <pt x="1181" y="473" on="0"/>
        <pt x="1196" y="582" on="1"/>
        <pt x="1205" y="648" on="0"/>
        <pt x="1205" y="704" on="1"/>
        <pt x="1205" y="768" on="0"/>
        <pt x="1133" y="863" on="0"/>
        <pt x="1079" y="863" on="1"/>
        <pt x="987" y="863" on="0"/>
        <pt x="806" y="651" on="0"/>
      </contour>
    </TTGlyph>
    <TTGlyph name="atilde" xMin="80" yMin="-20" xMax="987" yMax="1396">
      <component glyphName="tildecomb" x="863" y="0" flags="0x1004"/>
      <component glyphName="a" x="0" y="0" flags="0x1204"/>
    </TTGlyph>
    <TTGlyph name="b" xMin="136" yMin="-20" xMax="1112" yMax="1476">
      <contour>
        <pt x="196" y="0" on="1"/>
        <pt x="136" y="0" on="0"/>
        <pt x="136" y="60" on="1"/>
        <pt x="136" y="1416" on="1"/>
        <pt x="136" y="1476" on="0"/>
        <pt x="196" y="1476" on="1"/>
        <pt x="356" y="1476" on="1"/>
        <pt x="416" y="1476" on="0"/>
        <pt x="416" y="1416" on="1"/>
        <pt x="416" y="1012" on="1"/>
        <pt x="416" y="972" on="0"/>
        <pt x="412" y="932" on="1"/>
        <pt x="416" y="932" on="1"/>
        <pt x="468" y="1018" on="0"/>
        <pt x="596" y="1070" on="0"/>
        <pt x="686" y="1070" on="1"/>
        <pt x="921" y="1070" on="0"/>
        <pt x="1112" y="745" on="0"/>
        <pt x="1112" y="525" on="1"/>
        <pt x="1112" y="305" on="0"/>
        <pt x="921" y="-20" on="0"/>
        <pt x="686" y="-20" on="1"/>
        <pt x="596" y="-20" on="0"/>
        <pt x="468" y="32" on="0"/>
        <pt x="416" y="118" on="1"/>
        <pt x="412" y="118" on="1"/>
        <pt x="408" y="60" on="1"/>
        <pt x="404" y="0" on="0"/>
        <pt x="354" y="0" on="1"/>
      </contour>
      <contour>
        <pt x="416" y="480" on="1"/>
        <pt x="416" y="345" on="0"/>
        <pt x="523" y="176" on="0"/>
        <pt x="598" y="176" on="1"/>
        <pt x="733" y="176" on="0"/>
        <pt x="816" y="365" on="0"/>
        <pt x="816" y="525" on="1"/>
        <pt x="816" y="685" on="0"/>
        <pt x="733" y="874" on="0"/>
        <pt x="598" y="874" on="1"/>
        <pt x="523" y="874" on="0"/>
        <pt x="416" y="705" on="0"/>
        <pt x="416" y="570" on="1"/>
      </contour>
    </TTGlyph>
    <TTGlyph name="backslash" xMin="-13" yMin="-427" xMax="869" yMax="1482">
      <contour>
        <pt x="9" y="1359" on="1"/>
        <pt x="-13" y="1415" on="0"/>
        <pt x="34" y="1433" on="1"/>
        <pt x="115" y="1464" on="1"/>
        <pt x="161" y="1482" on="0"/>
        <pt x="183" y="1426" on="1"/>
        <pt x="847" y="-304" on="1"/>
        <pt x="869" y="-360" on="0"/>
        <pt x="822" y="-378" on="1"/>
        <pt x="741" y="-409" on="1"/>
        <pt x="695" y="-427" on="0"/>
        <pt x="673" y="-371" on="1"/>
      </contour>
    </TTGlyph>
    <TTGlyph name="bar" xMin="215" yMin="-440" xMax="415" yMax="1496">
      <contour>
        <pt x="265" y="-440" on="1"/>
        <pt x="215" y="-440" on="0"/>
        <pt x="215" y="-380" on="1"/>
        <pt x="215" y="1436" on="1"/>
        <pt x="215" y="1496" on="0"/>
        <pt x="265" y="1496" on="1"/>
        <pt x="365" y="1496" on="1"/>
        <pt x="415" y="1496" on="0"/>
        <pt x="415" y="1436" on="1"/>
        <pt x="415" y="-380" on="1"/>
        <pt x="415" y="-440" on="0"/>
        <pt x="365" y="-440" on="1"/>
      </contour>
    </TTGlyph>
</ttFont>
